<?xml version="1.0" standalone="no"?><!DOCTYPE svg PUBLIC "-//W3C//DTD SVG 1.1//EN" "http://www.w3.org/Graphics/SVG/1.1/DTD/svg11.dtd"><svg t="1591145664291" class="icon" viewBox="0 0 1024 1024" version="1.1" xmlns="http://www.w3.org/2000/svg" p-id="4024" xmlns:xlink="http://www.w3.org/1999/xlink" width="200" height="200"><defs><style type="text/css"></style></defs><path d="M769.5 932.1h-515c-58 0-105.3-42.4-105.3-94.5V381.9c0-52.1 47.2-94.5 105.3-94.5h25.8c17.5 0 31.7 14.2 31.7 31.7s-14.2 31.7-31.7 31.7h-25.8c-22.7 0-41.9 14.3-41.9 31.2v455.6c0 16.9 19.2 31.2 41.9 31.2h515.1c22.7 0 41.9-14.3 41.9-31.2V381.9c0-16.9-19.2-31.2-41.9-31.2h-24.8c-17.5 0-31.7-14.2-31.7-31.7s14.2-31.7 31.7-31.7h24.8c58 0 105.2 42.4 105.2 94.5v455.6c0 52.3-47.2 94.7-105.3 94.7z" fill="#1afa29" p-id="4025"></path><path d="M680.6 609.7H343.4c-17.5 0-31.7-14.2-31.7-31.7s14.2-31.7 31.7-31.7h337.3c17.5 0 31.7 14.2 31.7 31.7s-14.3 31.7-31.8 31.7zM680.6 769.3H343.4c-17.5 0-31.7-14.2-31.7-31.7s14.2-31.7 31.7-31.7h337.3c17.5 0 31.7 14.2 31.7 31.7s-14.3 31.7-31.8 31.7zM627.1 469.9c-5 0-10.1-1.2-14.7-3.6L512 413.5l-100.4 52.8c-10.7 5.6-23.6 4.7-33.4-2.4-9.8-7.1-14.6-19.1-12.6-31l19.2-111.8-81.2-79.1c-8.6-8.4-11.7-21-8-32.5 3.7-11.5 13.6-19.8 25.6-21.6l112.2-16.3 50.2-101.7c10.7-21.6 46.1-21.7 56.8 0l50.2 101.7 112.2 16.3c11.9 1.7 21.9 10.1 25.6 21.6 3.7 11.5 0.6 24.1-8 32.5l-81.2 79.1 19.2 111.8c2 11.9-2.8 23.9-12.6 31-5.6 3.9-12.1 6-18.7 6zM512 346c5.1 0 10.1 1.2 14.7 3.6l58.3 30.7-11.2-64.9c-1.8-10.3 1.7-20.8 9.1-28l47.2-46-65.2-9.5c-10.3-1.5-19.2-8-23.8-17.3L512 155.5l-29.1 59.1c-4.6 9.4-13.5 15.8-23.9 17.3l-65.2 9.5 47.2 46c7.5 7.3 10.9 17.8 9.1 28L439 380.3l58.3-30.7c4.6-2.4 9.6-3.6 14.7-3.6z" fill="#1afa29" p-id="4026"></path></svg>