<?xml version="1.0" standalone="no"?><!DOCTYPE svg PUBLIC "-//W3C//DTD SVG 1.1//EN" "http://www.w3.org/Graphics/SVG/1.1/DTD/svg11.dtd"><svg t="1591078986007" class="icon" viewBox="0 0 1024 1024" version="1.1" xmlns="http://www.w3.org/2000/svg" p-id="2163" xmlns:xlink="http://www.w3.org/1999/xlink" width="200" height="200"><defs><style type="text/css"></style></defs><path d="M483.074204 74.504878c78.844719 0 183.671183 24.492834 183.671183 236.313124 0 57.553811-17.590634 114.584712-49.529043 160.616094-9.937326 14.307867-6.355755 33.939997 7.993045 43.831274 14.378475 9.876951 34.036187 6.323009 43.973514-7.984858 39.189557-56.446593 60.759829-126.231983 60.759829-196.46251 0-247.40474-134.234237-299.327296-246.868527-299.327296s-246.868527 51.922557-246.868527 299.327296c0 104.570637 47.891753 205.525933 123.280768 262.434038l0 4.568039C192.447057 601.696882 86.108147 669.528779 86.108147 754.085594c0 94.446046 132.661416 167.846776 330.09709 182.632527 0.802272 0.060375 1.604544 0.091074 2.405793 0.091074 16.387225 0 30.242791-12.600993 31.475875-29.153994 1.327228-17.3389-11.727089-32.461319-29.130458-33.769105C253.178233 861.316827 149.307537 801.915949 149.307537 754.085594c0-44.431955 91.710748-100.403734 245.233284-117.172653 16.015765-1.752924 28.142967-15.245216 28.142967-31.322379l0-48.66128c0-10.631128-5.368264-20.554128-14.3181-26.370601-65.172325-42.491767-108.961644-130.786719-108.961644-219.74068C299.403021 98.997712 404.229484 74.504878 483.074204 74.504878z" p-id="2164"></path><path d="M967.299627 693.089381c-3.833305-11.915377-13.899568-20.75572-26.198685-23.065322l-124.161834-23.214724-60.830437-107.517759c-6.066159-10.685363-17.399275-17.298991-29.732162-17.298991-12.299117 0-23.666002 6.613628-29.732162 17.298991l-60.896952 107.517759-124.128065 23.214724c-12.299117 2.309602-22.36538 11.150968-26.198685 23.065322-3.833305 11.897981-0.800225 24.926716 7.866155 33.95023l85.962837 89.354074-15.59928 121.327276c-1.566682 12.264325 3.666506 24.411993 13.632485 31.739888 5.966898 4.370541 13.066597 6.613628 20.23281 6.613628 4.833075 0 9.66615-1.014096 14.199397-3.091408l114.66146-52.346205 114.66146 52.346205c11.232832 5.167696 24.432459 3.805676 34.432207-3.539616 9.999748-7.328919 15.199167-19.476587 13.632485-31.739888L873.436866 816.393685l85.996606-89.354074C968.099852 718.016097 971.132932 704.987363 967.299627 693.089381zM812.873512 781.01492c-7.133468 7.42818-10.532891 17.698081-9.233292 27.901467l9.899464 76.657914-72.963779-33.31885c-8.999978-4.120854-19.398816-4.120854-28.398794 0l-72.996524 33.31885 9.866718-76.67531c1.299599-10.203386-2.099824-20.456914-9.233292-27.885094l-53.597709-55.686277 77.730339-14.540158c9.899464-1.861394 18.46556-7.976672 23.432689-16.717753l38.998199-68.831668 38.931684 68.831668c4.966105 8.741082 13.533224 14.856359 23.432689 16.717753l77.730339 14.540158L812.873512 781.01492z" p-id="2165"></path></svg>