<?xml version="1.0" standalone="no"?><!DOCTYPE svg PUBLIC "-//W3C//DTD SVG 1.1//EN" "http://www.w3.org/Graphics/SVG/1.1/DTD/svg11.dtd"><svg t="1657850043561" class="icon" viewBox="0 0 1024 1024" version="1.1" xmlns="http://www.w3.org/2000/svg" p-id="2254" xmlns:xlink="http://www.w3.org/1999/xlink" width="200" height="200"><defs><style type="text/css">@font-face { font-family: feedback-iconfont; src: url("//at.alicdn.com/t/font_1031158_u69w8yhxdu.woff2?t=1630033759944") format("woff2"), url("//at.alicdn.com/t/font_1031158_u69w8yhxdu.woff?t=1630033759944") format("woff"), url("//at.alicdn.com/t/font_1031158_u69w8yhxdu.ttf?t=1630033759944") format("truetype"); }
</style></defs><path d="M512.007561 0C229.239061 0 0.015121 229.22394 0.015121 511.992439s229.22394 512.007561 511.99244 512.007561S1024 794.77606 1024 512.007561A511.992439 511.992439 0 0 0 512.007561 0z m0 952.294747c-243.165788 0-440.287187-197.121399-440.287187-440.287186S268.841773 71.705253 512.007561 71.705253 952.294747 268.841773 952.294747 512.007561A440.287187 440.287187 0 0 1 512.007561 952.294747z m0 0" p-id="2255" fill="#ffffff"></path><path d="M754.024129 512.007561a29.909951 29.909951 0 0 1 0 13.881362 24.768706 24.768706 0 0 1-6.57777 8.77036l-159.333245 157.866478a36.170174 36.170174 0 0 1-51.155392-51.094907l92.088779-92.814602H306.690412a36.548207 36.548207 0 1 1 0-73.081291H629.046501l-94.281369-92.814602a36.215538 36.215538 0 0 1 51.155393-51.276362l154.948064 154.237363a21.9259 21.9259 0 0 1 6.57777 9.496182 29.955315 29.955315 0 0 1 6.57777 16.814897z m0 0" p-id="2256" fill="#ffffff"></path></svg>