<?xml version="1.0" standalone="no"?><!DOCTYPE svg PUBLIC "-//W3C//DTD SVG 1.1//EN" "http://www.w3.org/Graphics/SVG/1.1/DTD/svg11.dtd"><svg t="1630462474531" class="icon" viewBox="0 0 1024 1024" version="1.1" xmlns="http://www.w3.org/2000/svg" p-id="7522" xmlns:xlink="http://www.w3.org/1999/xlink" width="200" height="200"><defs><style type="text/css"></style></defs><path d="M992 0h-768a32 32 0 0 0-32 32V192H32a32 32 0 0 0-32 32v768a32 32 0 0 0 32 32h768a32 32 0 0 0 32-32V832h160a32 32 0 0 0 32-32V32a32 32 0 0 0-32-32zM768 256v155.52H64V256h704zM64 960V475.52h704V960H64z m896-192h-128V224a32 32 0 0 0-32-32H256V64h704v704z" fill="#ffffff" p-id="7523" data-spm-anchor-id="a313x.7781069.0.i3" class="selected"></path><path d="M156.16 365.44h13.44a32 32 0 0 0 0-64h-13.44a32 32 0 0 0 0 64zM281.6 365.44h14.08a32 32 0 0 0 0-64H281.6a32 32 0 0 0 0 64zM407.68 365.44h13.44a32 32 0 0 0 0-64h-13.44a32 32 0 0 0 0 64zM533.12 365.44h154.24a32 32 0 0 0 0-64H533.12a32 32 0 0 0 0 64z" fill="#ffffff" p-id="7524" data-spm-anchor-id="a313x.7781069.0.i4" class="selected"></path></svg>