<?xml version="1.0" standalone="no"?><!DOCTYPE svg PUBLIC "-//W3C//DTD SVG 1.1//EN" "http://www.w3.org/Graphics/SVG/1.1/DTD/svg11.dtd"><svg t="1643011907686" class="icon" viewBox="0 0 1024 1024" version="1.1" xmlns="http://www.w3.org/2000/svg" p-id="5883" xmlns:xlink="http://www.w3.org/1999/xlink" width="200" height="200"><defs><style type="text/css"></style></defs><path d="M880.73 569.98c-44.67 0-82.84 28.3-97.52 67.91H233.92c-36.52 0-66.24-29.68-66.24-66.17v-1.53c0-36.49 29.71-66.17 66.24-66.17h616.52c76.22 0 138.24-61.98 138.24-138.17s-62.01-138.17-138.24-138.17h-549.3c-14.68-39.6-52.85-67.9-97.51-67.9-57.32 0-103.95 46.61-103.95 103.9s46.63 103.9 103.95 103.9c44.66 0 82.83-28.3 97.51-67.9h549.29c36.52 0 66.24 29.68 66.24 66.17s-29.71 66.17-66.24 66.17H233.92c-76.22 0-138.24 61.98-138.24 138.17v1.53c0 76.19 62.01 138.17 138.24 138.17h549.3c14.68 39.59 52.85 67.89 97.51 67.89 57.32 0 103.95-46.61 103.95-103.9s-46.63-103.9-103.95-103.9z m-677.1-266.4c-22.03 0-39.95-17.9-39.95-39.9s17.92-39.9 39.95-39.9 39.95 17.9 39.95 39.9-17.92 39.9-39.95 39.9z m677.1 410.21c-22.03 0-39.95-17.9-39.95-39.9s17.92-39.9 39.95-39.9 39.95 17.9 39.95 39.9-17.92 39.9-39.95 39.9z" fill="#31D0C8" p-id="5884"></path></svg>