<svg width="20" height="20" viewBox="0 0 20 20" fill="none" xmlns="http://www.w3.org/2000/svg">
<circle cx="10" cy="10" r="10" fill="#616161"/>
<path d="M10 16.3634C6.48509 16.3634 3.63658 13.5149 3.63658 10C3.63658 6.48509 6.48509 3.63658 10 3.63658C11.7566 3.63658 13.3473 4.34891 14.4996 5.5004L17.0709 2.92909C15.2611 1.11926 12.7607 0 10 0C4.47703 0 0 4.47704 0 10C0 15.523 4.47703 20 10 20C12.7615 20 15.2611 18.8807 17.0717 17.0717L14.5004 14.5004C13.3473 15.6511 11.7566 16.3634 10 16.3634Z" fill="#9E9E9E"/>
<path d="M16.3634 10.0005H13.1813C13.1813 8.24382 11.7566 6.81836 9.99918 6.81836C8.24172 6.81836 6.81787 8.24302 6.81787 10.0005C6.81787 10.8562 7.15631 11.6322 7.70667 12.2051L7.70425 12.2076L11.6438 16.1471L11.6446 16.1479C14.3618 15.4227 16.3634 12.9457 16.3634 10.0005Z" fill="#424242"/>
<path d="M19.9992 10H16.3626C16.3626 12.9452 14.3602 15.4222 11.6447 16.1475L14.4529 18.9557C17.7405 17.3175 19.9992 13.9226 19.9992 10Z" fill="#616161"/>
<path d="M10 19.8852C4.49637 19.8852 0.0322321 15.4388 0.000805802 9.94238C0.000805802 9.96172 0 9.98026 0 9.99959C0 15.5226 4.47704 19.9996 10 19.9996C15.523 19.9996 20 15.5226 20 9.99959C20 9.98026 19.9992 9.96172 19.9992 9.94238C19.9678 15.4388 15.5028 19.8852 10 19.8852Z" fill="#212121" fill-opacity="0.1"/>
<path d="M11.6455 16.1475L11.7341 16.2361C14.4046 15.4819 16.3635 13.0274 16.3635 10.1136V10C16.3635 12.9452 14.3611 15.4222 11.6455 16.1475Z" fill="white" fill-opacity="0.05"/>
<path d="M18.1818 9.09082H9.99964C9.49763 9.09082 9.0907 9.49775 9.0907 9.99976C9.0907 10.5018 9.49763 10.9087 9.99964 10.9087H18.1809C18.683 10.9087 19.0899 10.5018 19.0899 9.99976C19.0907 9.49775 18.6838 9.09082 18.1818 9.09082Z" fill="#9E9E9E"/>
<path opacity="0.5" d="M18.1818 9.09082H9.99964C9.49763 9.09082 9.0907 9.49775 9.0907 9.99976C9.0907 10.5018 9.49763 10.9087 9.99964 10.9087H18.1809C18.683 10.9087 19.0899 10.5018 19.0899 9.99976C19.0907 9.49775 18.6838 9.09082 18.1818 9.09082Z" fill="#BDBDBD"/>
<ellipse cx="1.81794" cy="9.99909" rx="0.681708" ry="0.681708" fill="#BDBDBD"/>
<ellipse cx="10.0001" cy="1.81745" rx="0.681708" ry="0.681708" fill="#BDBDBD"/>
<circle cx="10.0001" cy="18.1807" r="0.681708" fill="#BDBDBD"/>
<circle cx="4.20478" cy="4.21393" r="0.681708" fill="#BDBDBD"/>
<ellipse cx="4.20478" cy="15.795" rx="0.681708" ry="0.681709" fill="#BDBDBD"/>
<circle cx="15.7954" cy="15.795" r="0.681708" fill="#757575"/>
<path d="M10 9.20444H18.1813C18.664 9.20444 19.0588 9.58155 19.087 10.057C19.0878 10.0376 19.0903 10.0191 19.0903 9.99977C19.0903 9.49775 18.6833 9.09082 18.1813 9.09082H10C9.49799 9.09082 9.09106 9.49775 9.09106 9.99977C9.09106 10.0191 9.09187 10.0376 9.09429 10.057C9.12249 9.58155 9.51653 9.20444 10 9.20444Z" fill="white" fill-opacity="0.2"/>
<path d="M19.087 10.0566C19.0572 10.5313 18.6632 10.9092 18.1813 10.9092H10C9.51733 10.9092 9.12249 10.5321 9.09429 10.0566C9.09187 10.076 9.09106 10.0945 9.09106 10.113C9.09106 10.6151 9.49799 11.022 10 11.022H18.1813C18.6833 11.022 19.0903 10.6151 19.0903 10.113C19.0903 10.0945 19.0895 10.076 19.087 10.0566Z" fill="#212121" fill-opacity="0.2"/>
<path d="M10 3.75063C11.7567 3.75063 13.3473 4.46296 14.4996 5.61445L17.1265 2.98592C17.1072 2.96658 17.0887 2.94724 17.0701 2.92871L14.4996 5.50002C13.3473 4.34853 11.7567 3.6362 10 3.6362C6.48511 3.6362 3.6366 6.48471 3.6366 9.99962C3.6366 10.019 3.6374 10.0375 3.6374 10.0568C3.66802 6.56852 6.50445 3.75063 10 3.75063V3.75063Z" fill="#212121" fill-opacity="0.1"/>
<circle cx="10" cy="10" r="10" fill="url(#paint0_radial_1020_2786)"/>
<defs>
<radialGradient id="paint0_radial_1020_2786" cx="0" cy="0" r="1" gradientUnits="userSpaceOnUse" gradientTransform="translate(2.93256 2.90979) scale(19.9655)">
<stop stop-color="white" stop-opacity="0.1"/>
<stop offset="1" stop-color="white" stop-opacity="0.01"/>
</radialGradient>
</defs>
</svg>
