<?xml version="1.0" standalone="no"?><!DOCTYPE svg PUBLIC "-//W3C//DTD SVG 1.1//EN" "http://www.w3.org/Graphics/SVG/1.1/DTD/svg11.dtd"><svg t="1656484054081" class="icon" viewBox="0 0 1024 1024" version="1.1" xmlns="http://www.w3.org/2000/svg" p-id="19324" xmlns:xlink="http://www.w3.org/1999/xlink" width="200" height="200"><defs><style type="text/css">@font-face { font-family: feedback-iconfont; src: url("//at.alicdn.com/t/font_1031158_u69w8yhxdu.woff2?t=1630033759944") format("woff2"), url("//at.alicdn.com/t/font_1031158_u69w8yhxdu.woff?t=1630033759944") format("woff"), url("//at.alicdn.com/t/font_1031158_u69w8yhxdu.ttf?t=1630033759944") format("truetype"); }
</style></defs><path d="M259.461744 675.527706H118.03353a64.549288 64.549288 0 0 0-62.501459 66.127823V957.829514A64.549288 64.549288 0 0 0 118.03353 1023.957337h141.428214a64.591951 64.591951 0 0 0 62.714774-66.127823V741.655529a64.591951 64.591951 0 0 0-62.714774-66.127823z m0 304.4013H118.03353a19.1984 19.1984 0 0 1-19.198401-22.120823v-213.528873a21.331556 21.331556 0 0 1 19.198401-24.488626h141.428214a22.120823 22.120823 0 0 1 20.691609 24.488626V957.829514a20.051662 20.051662 0 0 1-20.691609 22.120823z m678.343471-668.594951h-141.428214a65.061245 65.061245 0 0 0-62.501458 67.301059v578.085159a65.039913 65.039913 0 0 0 62.501458 67.279727h141.428214a65.189234 65.189234 0 0 0 62.501458-67.279727v-578.085159a65.061245 65.061245 0 0 0-62.501458-67.301059z m2.133156 665.779186h-143.56137a16.425298 16.425298 0 0 1-17.705191-20.328973V385.205233a19.1984 19.1984 0 0 1 17.705191-23.827348h141.428214a19.539705 19.539705 0 0 1 17.918507 23.827348v571.579035c0 14.228148-3.626364 20.328973-15.785351 20.328973zM440.993283 476.866928a64.954587 64.954587 0 0 0-62.714774 66.810432v413.448213a64.933256 64.933256 0 0 0 62.714774 66.810432h141.64153a64.933256 64.933256 0 0 0 62.714774-66.810432V543.67736a64.954587 64.954587 0 0 0-62.714774-66.810432h-141.64153zM582.634813 977.881177h-141.64153a17.769186 17.769186 0 0 1-19.1984-20.755604V543.67736a19.049079 19.049079 0 0 1 19.1984-22.376802h141.64153a19.326389 19.326389 0 0 1 19.625031 22.376802v413.448213a18.046496 18.046496 0 0 1-19.625031 20.755604z m-20.904925-530.387801L904.527988 97.271894l62.92809 65.061245 8.532622-162.311807h-172.998917l63.354721 67.045079-333.838847 334.052162-176.411966-181.766186a41.831181 41.831181 0 0 0-58.661778 0L36.333671 488.129989a29.693526 29.693526 0 0 0-3.626364 45.841513c13.43888 13.908174 34.130489-1.130572 49.702525-17.214565L330.922455 264.809933l172.998917 179.889009a39.271394 39.271394 0 0 0 28.584285 12.052329 38.140822 38.140822 0 0 0 29.224231-9.172569z" p-id="19325"></path></svg>