<?xml version="1.0" standalone="no"?><!DOCTYPE svg PUBLIC "-//W3C//DTD SVG 1.1//EN" "http://www.w3.org/Graphics/SVG/1.1/DTD/svg11.dtd"><svg t="1592965687686" class="icon" viewBox="0 0 1024 1024" version="1.1" xmlns="http://www.w3.org/2000/svg" p-id="5338" xmlns:xlink="http://www.w3.org/1999/xlink" width="200" height="200"><defs><style type="text/css"></style></defs><path d="M250.82 463.24m4.5 0l581 0q4.5 0 4.5 4.5l0 374q0 4.5-4.5 4.5l-581 0q-4.5 0-4.5-4.5l0-374q0-4.5 4.5-4.5Z" fill="#BAD4FF" p-id="5339"></path><path d="M500.89 774.47a13.08 13.08 0 0 1-2.47-0.24 13.46 13.46 0 0 1-10.81-15.69c0.52-2.79 12.78-68.73 30.09-118 13.51-38.4 35.39-76.61 49.63-99.47H433.79a13.48 13.48 0 1 1 0-27h158.42a13.48 13.48 0 0 1 11.06 21.2c-0.41 0.57-40.5 58.38-60.13 114.18-16.62 47.27-28.89 113.29-29 114a13.48 13.48 0 0 1-13.25 11.02z" fill="#3585F9" p-id="5340"></path><path d="M376.48 178.92m13.48 0l0.01 0q13.48 0 13.48 13.48l0 100.59q0 13.48-13.48 13.48l-0.01 0q-13.48 0-13.48-13.48l0-100.59q0-13.48 13.48-13.48Z" fill="#3585F9" p-id="5341"></path><path d="M499.52 178.92m13.48 0l0.01 0q13.48 0 13.48 13.48l0 100.59q0 13.48-13.48 13.48l-0.01 0q-13.48 0-13.48-13.48l0-100.59q0-13.48 13.48-13.48Z" fill="#3585F9" p-id="5342"></path><path d="M622.55 178.92m13.48 0l0.01 0q13.48 0 13.48 13.48l0 100.59q0 13.48-13.48 13.48l-0.01 0q-13.48 0-13.48-13.48l0-100.59q0-13.48 13.48-13.48Z" fill="#3585F9" p-id="5343"></path><path d="M821.49 231.07H700.08v0.21a13.29 13.29 0 0 0 0 26.53v0.19h121.41a9.07 9.07 0 0 1 9.07 9.06v116.3H195.44V267.1a9.07 9.07 0 0 1 9.07-9.06h121.41v-0.14a13.37 13.37 0 0 0 0-26.72v-0.11H204.51a36.08 36.08 0 0 0-36 36v557.3a36.09 36.09 0 0 0 36 36h617a36.09 36.09 0 0 0 36-36V267.1a36.08 36.08 0 0 0-36.02-36.03z m0 602.39h-617a9.09 9.09 0 0 1-9.07-9.09v-414h635.14v414a9.09 9.09 0 0 1-9.07 9.09z" fill="#3585F9" p-id="5344"></path></svg>