<?xml version="1.0" standalone="no"?><!DOCTYPE svg PUBLIC "-//W3C//DTD SVG 1.1//EN" "http://www.w3.org/Graphics/SVG/1.1/DTD/svg11.dtd"><svg t="1600397681612" class="icon" viewBox="0 0 1024 1024" version="1.1" xmlns="http://www.w3.org/2000/svg" p-id="11735" xmlns:xlink="http://www.w3.org/1999/xlink" width="200" height="200"><defs><style type="text/css"></style></defs><path d="M818.51904 513.58208a304.93696 304.93696 0 1 0-304.93696 304.93696 304.93696 304.93696 0 0 0 304.93696-304.93696z" fill="#64F4AF" p-id="11736"></path><path d="M512 942.08a430.08 430.08 0 1 1 430.08-430.08 430.592 430.592 0 0 1-430.08 430.08z m0-794.17344A364.09344 364.09344 0 1 0 876.09344 512 364.50304 364.50304 0 0 0 512 147.90656zM373.67296 751.104l-57.02144-33.21344a226.09408 226.09408 0 0 1 385.90976-7.8336l-55.61344 35.5072a160.11776 160.11776 0 0 0-273.27488 5.53984z m18.06848-327.552a52.85888 52.85888 0 1 0-52.85888 52.84864 52.85888 52.85888 0 0 0 52.85888-52.85376z m323.49184 0a52.85376 52.85376 0 1 0-52.85888 52.85376 52.85888 52.85888 0 0 0 52.85376-52.85888z" fill="#242F44" p-id="11737"></path></svg>