<svg width="16" height="16" viewBox="0 0 16 16" fill="none" xmlns="http://www.w3.org/2000/svg">
<mask id="mask0_24_6685" style="mask-type:alpha" maskUnits="userSpaceOnUse" x="0" y="0" width="16" height="16">
<rect width="16" height="16" fill="#D9D9D9"/>
</mask>
<g mask="url(#mask0_24_6685)">
<path d="M8.00002 9.96618C7.91113 9.96618 7.8278 9.95229 7.75002 9.92452C7.67224 9.89674 7.60002 9.84952 7.53335 9.78285L4.45002 6.69952C4.3278 6.57729 4.26946 6.42452 4.27502 6.24118C4.28058 6.05785 4.34446 5.90507 4.46669 5.78285C4.58891 5.66063 4.74446 5.59952 4.93335 5.59952C5.12224 5.59952 5.2778 5.66063 5.40002 5.78285L8.00002 8.38285L10.6167 5.76618C10.7389 5.64396 10.8917 5.58563 11.075 5.59118C11.2584 5.59674 11.4111 5.66063 11.5334 5.78285C11.6556 5.90507 11.7167 6.06063 11.7167 6.24952C11.7167 6.4384 11.6556 6.59396 11.5334 6.71618L8.46669 9.78285C8.40002 9.84952 8.3278 9.89674 8.25002 9.92452C8.17224 9.95229 8.08891 9.96618 8.00002 9.96618Z" fill="#1C1B1F"/>
</g>
</svg>
