<svg width="24" height="24" viewBox="0 0 24 24" fill="none" xmlns="http://www.w3.org/2000/svg">
<path fill-rule="evenodd" clip-rule="evenodd" d="M19.875 18C20.4963 18 21 18.4477 21 19C21 19.5523 20.4963 20 19.875 20H4.125C3.50368 20 3 19.5523 3 19C3 18.4477 3.50368 18 4.125 18H19.875ZM19.875 11C20.4963 11 21 11.4477 21 12C21 12.5523 20.4963 13 19.875 13H4.125C3.50368 13 3 12.5523 3 12C3 11.4477 3.50368 11 4.125 11H19.875ZM19.875 4C20.4963 4 21 4.44772 21 5C21 5.55228 20.4963 6 19.875 6H4.125C3.50368 6 3 5.55228 3 5C3 4.44772 3.50368 4 4.125 4H19.875Z" fill="#5A5E72"/>
</svg>
