<?xml version="1.0" standalone="no"?><!DOCTYPE svg PUBLIC "-//W3C//DTD SVG 1.1//EN" "http://www.w3.org/Graphics/SVG/1.1/DTD/svg11.dtd"><svg t="1656483615034" class="icon" viewBox="0 0 1024 1024" version="1.1" xmlns="http://www.w3.org/2000/svg" p-id="8116" xmlns:xlink="http://www.w3.org/1999/xlink" width="200" height="200"><defs><style type="text/css">@font-face { font-family: feedback-iconfont; src: url("//at.alicdn.com/t/font_1031158_u69w8yhxdu.woff2?t=1630033759944") format("woff2"), url("//at.alicdn.com/t/font_1031158_u69w8yhxdu.woff?t=1630033759944") format("woff"), url("//at.alicdn.com/t/font_1031158_u69w8yhxdu.ttf?t=1630033759944") format("truetype"); }
</style></defs><path d="M100.72 846.81l130.39-736.94c3.19-18.1 21.79-30.37 41.48-27.5 19.69 2.97 33.12 20.04 29.82 38.14L172.02 857.54c-3.19 18.1-21.78 30.37-41.48 27.5-19.59-3.06-33.01-20.03-29.82-38.23z m800.15 4.29L770.48 114.05c-3.19-18.1-21.79-30.37-41.48-27.5-19.69 2.97-33.12 20.04-29.82 38.14l130.39 737.05c3.19 18.1 21.78 30.36 41.48 27.5 19.7-2.97 33.01-20.04 29.82-38.14zM464.7 285.92V144.83c0-18.5 16.17-33.53 36.09-33.53s36.09 15.03 36.09 33.53v141.09c0 18.5-16.17 33.53-36.09 33.53-19.91 0.11-36.09-14.92-36.09-33.53z m0 566V710.83c0-18.51 16.17-33.53 36.09-33.53s36.09 15.03 36.09 33.53v141.09c0 18.51-16.17 33.53-36.09 33.53-19.91 0-36.09-15.03-36.09-33.53z m0-278.4V410.24c0-18.51 16.17-33.53 36.09-33.53s36.09 15.03 36.09 33.53v163.28c0 18.51-16.17 33.53-36.09 33.53-19.91 0-36.09-15.02-36.09-33.53z m0 0" p-id="8117"></path></svg>