<?xml version="1.0" standalone="no"?><!DOCTYPE svg PUBLIC "-//W3C//DTD SVG 1.1//EN" "http://www.w3.org/Graphics/SVG/1.1/DTD/svg11.dtd"><svg t="1625810324297" class="icon" viewBox="0 0 1024 1024" version="1.1" xmlns="http://www.w3.org/2000/svg" p-id="6011" xmlns:xlink="http://www.w3.org/1999/xlink" width="32" height="32"><defs><style type="text/css"></style></defs><path d="M950.816354 280.779295v670.100438H73.183393V73.120267H664.217799a36.560133 36.560133 0 0 0 36.560134-36.560134A36.560133 36.560133 0 0 0 664.217799 0H70.906291A70.843165 70.843165 0 0 0 0.063126 70.843165v882.31367a70.843165 70.843165 0 0 0 70.843165 70.843165h882.31367a70.779912 70.779912 0 0 0 70.71666-70.969671V280.779295a36.560133 36.560133 0 0 0-36.560134-36.560134 36.560133 36.560133 0 0 0-36.560133 36.560134z" p-id="6012"></path><path d="M213.414908 835.506579V571.299524c1.138551-20.177651 12.650565-31.626413 33.903515-33.966767 21.442708 1.265057 32.701711 12.650565 33.966768 33.966767v98.231639l112.463524-119.674347a43.454691 43.454691 0 0 1 26.819199-12.650565c20.177651 3.605411 31.626413 14.927667 33.903514 33.966768 0 10.689728-7.716845 22.644512-23.213787 35.737846l-85.707579 85.834085 105.315955 108.921367a5.249985 5.249985 0 0 0 1.834332 3.605411c11.828278 13.093335 17.837297 23.846315 17.837297 32.132435-1.265057 18.975848-13.093335 28.590277-35.737847 28.590278-11.954784 0-23.846315-6.009018-35.737846-17.837297l-117.776762-128.656248v116.005683q-3.605411 30.361356-33.840262 30.361356c-22.644512 0-34.03002-10.057199-34.030021-30.361356zM607.986037 540.874915h-82.228674c-22.644512 1.201804-33.903515 13.156588-33.903515 35.737847v257.122737c0 21.442708 11.259003 32.132436 33.903515 32.132436q32.195688 0 33.966768-32.132436V759.033912h49.969732q107.087034-7.084317 114.234604-108.921366-6.957811-102.090061-115.94243-109.237631z m-1.644574 157.183273H559.850636V601.534375h46.490827c28.527025 2.46686 44.276978 18.596331 46.427575 48.261906-2.340355 30.993885-17.90055 47.123355-46.427575 48.261907zM745.560933 833.735499V573.007351c0-22.581259 11.259003-34.536043 33.966768-35.737847q32.069183 1.771079 33.903515 35.737847v260.728148q-1.771079 32.132436-33.903515 32.132436c-22.707765 0-33.966768-10.689728-33.966768-32.132436zM233.655813 449.66434a36.496881 36.496881 0 0 1-23.846316-64.201618L392.610164 227.710174a36.560133 36.560133 0 0 1 50.602261 2.783124l140.990549 130.553833 238.652913-231.568596a36.560133 36.560133 0 0 1 50.602261 52.626351l-265.66187 257.312496A35.990858 35.990858 0 0 1 581.989125 449.66434a36.686639 36.686639 0 0 1-25.807153-11.575267L413.799861 306.017172 257.565381 440.872197a36.180616 36.180616 0 0 1-23.909568 8.792143z" p-id="6013"></path></svg>