<?xml version="1.0" standalone="no"?><!DOCTYPE svg PUBLIC "-//W3C//DTD SVG 1.1//EN" "http://www.w3.org/Graphics/SVG/1.1/DTD/svg11.dtd"><svg t="1656483985315" class="icon" viewBox="0 0 1024 1024" version="1.1" xmlns="http://www.w3.org/2000/svg" p-id="18408" xmlns:xlink="http://www.w3.org/1999/xlink" width="200" height="200"><defs><style type="text/css">@font-face { font-family: feedback-iconfont; src: url("//at.alicdn.com/t/font_1031158_u69w8yhxdu.woff2?t=1630033759944") format("woff2"), url("//at.alicdn.com/t/font_1031158_u69w8yhxdu.woff?t=1630033759944") format("woff"), url("//at.alicdn.com/t/font_1031158_u69w8yhxdu.ttf?t=1630033759944") format("truetype"); }
</style></defs><path d="M337.220678 1001.781422 22.167383 686.728127C7.423258 671.881612 0.051195 653.144286 0.051195 630.106589c0-22.935306 7.372063-41.877412 22.116188-56.621538l531.607639-551.368863C568.621538 7.372063 587.461254 0 610.49895 0l334.712129 0c22.935306 0 41.877412 7.372063 56.621538 22.116188C1016.576742 36.962704 1023.948805 55.80242 1023.948805 78.737726l0 334.712129c0 23.037696-7.372063 41.877412-22.116188 56.621538L450.463754 1001.781422C435.719628 1016.525547 416.879912 1023.89761 393.842216 1023.89761 370.906909 1023.89761 352.067193 1016.525547 337.220678 1001.781422zM610.49895 39.420058c-9.829417 0-18.839716 4.09559-27.030897 12.286771L51.758024 602.973303c-8.191181 8.293571-12.286771 17.20148-12.286771 27.030897 0 9.829417 4.09559 18.839716 12.286771 27.030897l315.053295 315.053295c18.020598 18.122988 36.143586 18.122988 54.164184 0l551.368863-531.607639c8.191181-8.191181 12.286771-17.20148 12.286771-27.030897L984.631137 78.737726c0-26.211779-13.105889-39.420058-39.420058-39.420058L610.49895 39.317668zM876.30277 285.462654C856.541546 305.223878 833.606239 315.053295 807.394461 315.053295S758.144986 305.223878 738.486151 285.462654C718.724928 265.80382 708.89551 242.868513 708.89551 216.554345c0-26.211779 9.829417-49.249475 29.590641-68.908309C758.144986 127.987201 781.080292 118.157784 807.394461 118.157784S856.541546 127.987201 876.30277 147.646035C895.961604 167.407259 905.791021 190.342566 905.791021 216.554345 905.791021 242.868513 895.961604 265.80382 876.30277 285.462654zM849.169483 174.779322C837.70183 163.311669 823.776822 157.475452 807.394461 157.475452c-16.382362 0-30.409759 5.836216-41.877412 17.20148C754.049395 186.246975 748.315568 200.274373 748.315568 216.554345c0 16.382362 5.733827 30.409759 17.20148 41.877412 11.467653 11.467653 25.392661 17.20148 41.877412 17.20148 16.382362 0 30.409759-5.733827 41.877412-17.20148 11.467653-11.467653 17.20148-25.392661 17.20148-41.877412C866.473353 200.274373 860.637136 186.246975 849.169483 174.779322z" p-id="18409"></path></svg>