<?xml version="1.0" standalone="no"?><!DOCTYPE svg PUBLIC "-//W3C//DTD SVG 1.1//EN" "http://www.w3.org/Graphics/SVG/1.1/DTD/svg11.dtd"><svg t="1643017400738" class="icon" viewBox="0 0 1088 1024" version="1.1" xmlns="http://www.w3.org/2000/svg" p-id="26554" xmlns:xlink="http://www.w3.org/1999/xlink" width="212.5" height="200"><defs><style type="text/css"></style></defs><path d="M64.557535 441.48446h707.521915a134.36261 134.36261 0 1 1 3.865261 129.038277H64.557535a64.531937 64.531937 0 1 1 0-129.038277z m102.391015-371.16743h297.369106a137.357547 137.357547 0 0 1 239.748562 0h294.374169a64.557535 64.557535 0 0 1 0 129.11507H703.349481a137.43434 137.43434 0 0 1-238.443077 0H166.871757a64.557535 64.557535 0 1 1 0-129.11507z m93.431802 685.277467a136.589614 136.589614 0 0 1 121.486939 73.209575h642.273241a64.531937 64.531937 0 1 1 0 129.063875H378.00203a136.717603 136.717603 0 0 1-117.519287 66.118998 134.209023 134.209023 0 1 1 0-268.392448z" p-id="26555"></path></svg>