<?xml version="1.0" standalone="no"?><!DOCTYPE svg PUBLIC "-//W3C//DTD SVG 1.1//EN" "http://www.w3.org/Graphics/SVG/1.1/DTD/svg11.dtd"><svg t="1591323124433" class="icon" viewBox="0 0 1024 1024" version="1.1" xmlns="http://www.w3.org/2000/svg" p-id="2615" xmlns:xlink="http://www.w3.org/1999/xlink" width="200" height="200"><defs><style type="text/css"></style></defs><path d="M890 157.63c-0.05-33.36-17.36-66.29-47.59-81.93-15.54-8-32-10.7-49.17-10.7h-575c-31.45 0-58.73 14.65-76.84 40.17-11.46 16.1-15.4 35.83-15.4 55.2V776.8c0 17.47-0.12 35 0 52.42 0.26 40 26.1 75.78 64.52 87.6 13.88 4.27 27.89 3.64 42.1 3.46l129.85-1.74 135.11-1.8 22.43-0.3c15.67-0.2 30.71-13.63 30-30-0.71-16.06-13.17-30.2-30-30L414.7 857.9l-164.16 2.19c-12.5 0.17-25.62 1.36-38.23 0.36a62.47 62.47 0 0 1-7.83-2.13 58.78 58.78 0 0 1-5.72-3.25l-0.61-0.42c-1-0.88-2-1.73-3-2.67s-2-2.08-2.92-3.15a59.9 59.9 0 0 1-3.94-6.81 64.94 64.94 0 0 1-2.19-8c-0.49-6.85-0.19-13.83-0.19-20.65V236.13c0-26.58-0.1-53.15 0-79.72q0-2.44 0.18-4.89a64.31 64.31 0 0 1 2.2-8.05 60.13 60.13 0 0 1 3.68-6.42 0.76 0.76 0 0 1 0.08-0.11c1-1.14 2-2.34 3.1-3.43 0.93-0.92 1.91-1.77 2.88-2.64l0.14-0.09a60.47 60.47 0 0 1 6.29-3.61 63.84 63.84 0 0 1 7.43-2c6-0.4 12.06-0.17 18-0.17h500.4c23.06 0 46.13-0.17 69.19 0 1.48 0 3 0.06 4.43 0.15a65.42 65.42 0 0 1 7.52 2.08 60.84 60.84 0 0 1 5.72 3.24l0.61 0.43c1 0.87 2 1.73 3 2.66s2 2.09 2.92 3.15a61.69 61.69 0 0 1 3.94 6.81 65.63 65.63 0 0 1 2.18 7.94c0.31 4.76 0.19 9.54 0.19 14.31v372.4c0 18-0.36 36 0 54.06v0.76c0 15.68 13.79 30.7 30 30s30-13.17 30-30V238.64q0.01-40.51 0.01-81.01zM193 849.92a8.89 8.89 0 0 1 0.94 1.22c-0.19 0.01-0.62-0.63-0.94-1.22z m3.12-717.64c0-0.09 0.53-0.47 1.08-0.83a7.29 7.29 0 0 1-1.13 0.83z m627 3.3a9.66 9.66 0 0 1-0.94-1.22c0.04-0.01 0.47 0.64 0.82 1.22z" fill="#0071C3" p-id="2616"></path><path d="M665.65 229.53H364.54c-14 0-28-0.3-42 0H322c-15.68 0-30.7 13.79-30 30s13.17 30 30 30h301.08c14 0 28 0.31 42 0h0.59c15.68 0 30.7-13.79 30-30s-13.21-30-30.02-30zM665.65 401.19H364.54c-14 0-28-0.31-42 0H322c-15.68 0-30.7 13.79-30 30s13.17 30 30 30h301.08c14 0 28 0.31 42 0h0.59c15.68 0 30.7-13.78 30-30s-13.21-30-30.02-30zM545.76 574H322c-15.68 0-30.7 13.79-30 30s13.17 30 30 30h223.76c15.68 0 30.7-13.79 30-30s-13.19-30-30-30z" fill="#0071C3" p-id="2617"></path><path d="M889.46 908l-54.67-53.16c14.75-19.24 25-41.84 28.62-65.81a183.44 183.44 0 0 0 2.47-26.56v-1.51c-0.46-30-9.45-60.64-27-85.13a159.08 159.08 0 0 0-75.26-57.56c-57.69-21.33-128-2.37-167 45.28-21.14 25.86-33.48 55.82-36.1 89.19-2.38 30.34 5.58 62.18 21.27 88.2 15.28 25.34 38.45 47.23 65.53 59.45 31.06 14 64.06 18.16 97.59 11.54a143.55 143.55 0 0 0 44.86-17.24l48.15 46.82 9.14 8.88c11.25 10.94 31.33 12 42.38 0 10.88-11.84 12.03-30.72 0.02-42.39z m-102-89.46c0.61-0.82 1.14-1.55 1.14-1.57 0.03 0.29-0.55 0.96-1.1 1.56zM769.09 688c-0.82-0.61-1.55-1.15-1.57-1.15 0.3 0 0.97 0.59 1.57 1.15z m-130.54 18.4c-0.62 0.82-1.15 1.55-1.15 1.56a4.65 4.65 0 0 1 1.15-1.56zM657 836.94l1.56 1.15c-0.33-0.01-1-0.6-1.56-1.15z m68.6 17.79a129.63 129.63 0 0 1-25.07 0 126.4 126.4 0 0 1-23.63-6.47 123.67 123.67 0 0 1-16.47-9.14c-1.47-1-2.91-2-4.36-3v-0.05c-3-2.49-5.91-5.11-8.67-7.88-2.6-2.6-5.1-5.33-7.46-8.16l-0.39-0.48c-0.91-1.29-1.86-2.57-2.74-3.88a123.85 123.85 0 0 1-9.51-17 127 127 0 0 1-6.54-23.67 129.63 129.63 0 0 1 0-25.07 127.15 127.15 0 0 1 6.46-23.63 124.25 124.25 0 0 1 9.15-16.46c1-1.48 2-2.92 3-4.36v-0.05q3.73-4.51 7.88-8.67c2.61-2.6 5.33-5.1 8.16-7.46l0.48-0.39c1.3-0.91 2.57-1.86 3.89-2.74a123.74 123.74 0 0 1 17-9.51 127.36 127.36 0 0 1 23.63-6.46 129.63 129.63 0 0 1 25.07 0 127.36 127.36 0 0 1 23.63 6.46 124.25 124.25 0 0 1 16.46 9.15c1.48 1 2.91 2 4.36 3q4.52 3.74 8.66 7.88 3.91 3.91 7.47 8.17l0.39 0.48c0.91 1.29 1.85 2.56 2.74 3.88a124.25 124.25 0 0 1 9.5 17 126.59 126.59 0 0 1 6.6 23.78c0.41 4.15 0.62 8.3 0.65 12.48s-0.24 8.34-0.65 12.49a126.9 126.9 0 0 1-6.47 23.68 125.33 125.33 0 0 1-9.14 16.46c-1 1.48-2 2.91-3 4.36q-3.74 4.51-7.88 8.66-3.91 3.92-8.16 7.47l-0.48 0.39c-1.3 0.91-2.57 1.86-3.88 2.74a126 126 0 0 1-17 9.51 127.26 127.26 0 0 1-23.72 6.49z" fill="#FD9A16" p-id="2618"></path></svg>