<?xml version="1.0" standalone="no"?><!DOCTYPE svg PUBLIC "-//W3C//DTD SVG 1.1//EN" "http://www.w3.org/Graphics/SVG/1.1/DTD/svg11.dtd"><svg t="1591148448098" class="icon" viewBox="0 0 1114 1024" version="1.1" xmlns="http://www.w3.org/2000/svg" p-id="6193" data-spm-anchor-id="a313x.7781069.0.i15" xmlns:xlink="http://www.w3.org/1999/xlink" width="217.578125" height="200"><defs><style type="text/css"></style></defs><path d="M567.766539 513.435009c4.052808-18.012479-9.00624-37.826207-23.506286-52.23619L99.442074 17.011076A57.910121 57.910121 0 0 0 17.305167 99.147982l423.743579 413.296341-423.743579 412.485779a57.820059 57.820059 0 0 0 40.888329 99.068637 57.729997 57.729997 0 0 0 41.248578-17.111855l444.998304-443.28712C556.778927 549.459968 571.098848 531.447489 567.766539 513.435009z" fill="#cccccc" p-id="6194" data-spm-anchor-id="a313x.7781069.0.i17" class=""></path><path d="M1089.588069 461.288881L644.319577 17.011076A57.910121 57.910121 0 0 0 562.362795 99.147982l423.833642 413.566528-423.833642 412.215592a57.820059 57.820059 0 0 0 40.888329 99.068637 57.729997 57.729997 0 0 0 40.888328-16.931731l445.268492-443.287119c12.248486-14.319921 27.018719-31.701964 23.506286-50.164755 4.232933-18.192604-9.00624-38.006332-23.326161-52.326253z" fill="#cccccc" p-id="6195" data-spm-anchor-id="a313x.7781069.0.i16" class=""></path></svg>