<?xml version="1.0" standalone="no"?><!DOCTYPE svg PUBLIC "-//W3C//DTD SVG 1.1//EN" "http://www.w3.org/Graphics/SVG/1.1/DTD/svg11.dtd"><svg t="1604625998038" class="icon" viewBox="0 0 1024 1024" version="1.1" xmlns="http://www.w3.org/2000/svg" p-id="3857" xmlns:xlink="http://www.w3.org/1999/xlink" width="200" height="200"><defs><style type="text/css"></style></defs><path d="M150.027311 149.708792a512.142484 512.142484 0 1 0 724.260293 0 512.870994 512.870994 0 0 0-724.260293 0z" fill="#4D4D4D" p-id="3858"></path><path d="M666.783691 299.781838L512.096748 454.468781 357.531224 299.781838a40.675138 40.675138 0 0 0-57.552285 57.552285l154.686943 154.565525L299.978939 666.586591a40.675138 40.675138 0 0 0 57.552285 57.430866L512.096748 569.451933 666.783691 724.017457a40.55372 40.55372 0 0 0 57.430867-57.430866L569.649033 511.899648l154.565525-154.565525a40.675138 40.675138 0 0 0-57.430867-57.552285z" fill="#FFFFFF" p-id="3859"></path></svg>