<?xml version="1.0" standalone="no"?><!DOCTYPE svg PUBLIC "-//W3C//DTD SVG 1.1//EN" "http://www.w3.org/Graphics/SVG/1.1/DTD/svg11.dtd"><svg t="1656052241636" class="icon" viewBox="0 0 1058 1024" version="1.1" xmlns="http://www.w3.org/2000/svg" p-id="2977" xmlns:xlink="http://www.w3.org/1999/xlink" width="206.640625" height="200"><defs><style type="text/css">@font-face { font-family: feedback-iconfont; src: url("//at.alicdn.com/t/font_1031158_u69w8yhxdu.woff2?t=1630033759944") format("woff2"), url("//at.alicdn.com/t/font_1031158_u69w8yhxdu.woff?t=1630033759944") format("woff"), url("//at.alicdn.com/t/font_1031158_u69w8yhxdu.ttf?t=1630033759944") format("truetype"); }
</style></defs><path d="M1041.066667 361.813333l-484.693334-341.333333c-3.413333-3.413333-6.826667-6.826667-13.653333-10.24-13.653333-6.826667-34.133333-3.413333-44.373333 13.653333l-481.28 337.92c-13.653333 10.24-17.066667 34.133333-3.413334 51.2s34.133333 23.893333 47.786667 13.653334l34.133333-23.893334v559.786667c0 20.48 17.066667 37.546667 37.546667 37.546667s37.546667-17.066667 37.546667-37.546667v-614.4l358.4-252.586667 365.226666 256v607.573334c0 20.48 17.066667 37.546667 37.546667 37.546666s37.546667-17.066667 37.546667-37.546666v-556.373334l27.306666 17.066667c13.653333 10.24 37.546667 3.413333 47.786667-13.653333 13.653333-13.653333 10.24-34.133333-3.413333-44.373334z m-679.253334 27.306667h-81.92c-30.72 0-37.546667 6.826667-37.546666 37.546667v85.333333c0 30.72 6.826667 37.546667 37.546666 37.546667h81.92c30.72 0 37.546667-6.826667 37.546667-37.546667v-85.333333c0-30.72-6.826667-37.546667-37.546667-37.546667z m0 204.8h-81.92c-30.72 0-37.546667 6.826667-37.546666 37.546667v85.333333c0 30.72 6.826667 37.546667 37.546666 37.546667h81.92c30.72 0 37.546667-6.826667 37.546667-37.546667v-85.333333c0-30.72-6.826667-37.546667-37.546667-37.546667z m0 208.213333h-81.92c-30.72 0-37.546667 6.826667-37.546666 37.546667v85.333333c0 30.72 6.826667 37.546667 37.546666 37.546667h81.92c30.72 0 37.546667-6.826667 37.546667-37.546667v-85.333333c0-34.133333-6.826667-37.546667-37.546667-37.546667z m215.04 0h-81.92c-30.72 0-37.546667 6.826667-37.546666 37.546667v85.333333c0 30.72 6.826667 37.546667 37.546666 37.546667h81.92c30.72 0 37.546667-6.826667 37.546667-37.546667v-85.333333c0-34.133333-6.826667-37.546667-37.546667-37.546667z m215.04 0h-81.92c-30.72 0-37.546667 6.826667-37.546666 37.546667v85.333333c0 30.72 6.826667 37.546667 37.546666 37.546667h81.92c30.72 0 37.546667-6.826667 37.546667-37.546667v-85.333333c3.413333-34.133333-3.413333-37.546667-37.546667-37.546667z m-215.04-208.213333h-81.92c-30.72 0-37.546667 6.826667-37.546666 37.546667v85.333333c0 30.72 6.826667 37.546667 37.546666 37.546667h81.92c30.72 0 37.546667-6.826667 37.546667-37.546667v-85.333333c0-30.72-6.826667-37.546667-37.546667-37.546667z" p-id="2978"></path></svg>