<svg width="12" height="12" viewBox="0 0 12 12" fill="none" xmlns="http://www.w3.org/2000/svg">
<mask id="mask0_516_20973" style="mask-type:alpha" maskUnits="userSpaceOnUse" x="0" y="0" width="12" height="12">
<rect width="12" height="12" fill="#8D91A5"/>
</mask>
<g mask="url(#mask0_516_20973)">
<path d="M3.57507 10.55C3.45007 10.425 3.38757 10.2771 3.38757 10.1062C3.38757 9.93542 3.45007 9.7875 3.57507 9.6625L7.23757 6L3.56257 2.325C3.44591 2.20833 3.38757 2.0625 3.38757 1.8875C3.38757 1.7125 3.45007 1.5625 3.57507 1.4375C3.70007 1.3125 3.84799 1.25 4.01882 1.25C4.18966 1.25 4.33757 1.3125 4.46257 1.4375L8.66257 5.65C8.71257 5.7 8.74799 5.75417 8.76882 5.8125C8.78966 5.87083 8.80007 5.93333 8.80007 6C8.80007 6.06667 8.78966 6.12917 8.76882 6.1875C8.74799 6.24583 8.71257 6.3 8.66257 6.35L4.45007 10.5625C4.33341 10.6792 4.18966 10.7375 4.01882 10.7375C3.84799 10.7375 3.70007 10.675 3.57507 10.55Z" fill="#8D91A5"/>
</g>
</svg>
