<?xml version="1.0" standalone="no"?><!DOCTYPE svg PUBLIC "-//W3C//DTD SVG 1.1//EN" "http://www.w3.org/Graphics/SVG/1.1/DTD/svg11.dtd"><svg t="1595554910945" class="icon" viewBox="0 0 1024 1024" version="1.1" xmlns="http://www.w3.org/2000/svg" p-id="9453" xmlns:xlink="http://www.w3.org/1999/xlink" width="200" height="200"><defs><style type="text/css"></style></defs><path d="M787.2 32L576 288h140.8v185.6H403.2V896h140.8V614.4h313.6V288h140.8zM185.6 524.8C96 524.8 19.2 601.6 19.2 704c0 51.2 19.2 96 51.2 121.6l108.8 115.2c6.4 6.4 19.2 6.4 19.2 0l108.8-115.2c32-32 51.2-76.8 51.2-121.6 0-102.4-76.8-179.2-172.8-179.2z m0 230.4c-38.4 0-64-25.6-64-64s32-64 64-64c38.4 0 64 25.6 64 64s-25.6 64-64 64z" fill="#eb5e24" p-id="9454"></path></svg>