<?xml version="1.0" standalone="no"?><!DOCTYPE svg PUBLIC "-//W3C//DTD SVG 1.1//EN" "http://www.w3.org/Graphics/SVG/1.1/DTD/svg11.dtd"><svg t="1656483903158" class="icon" viewBox="0 0 1028 1024" version="1.1" xmlns="http://www.w3.org/2000/svg" p-id="13631" xmlns:xlink="http://www.w3.org/1999/xlink" width="200.78125" height="200"><defs><style type="text/css">@font-face { font-family: feedback-iconfont; src: url("//at.alicdn.com/t/font_1031158_u69w8yhxdu.woff2?t=1630033759944") format("woff2"), url("//at.alicdn.com/t/font_1031158_u69w8yhxdu.woff?t=1630033759944") format("woff"), url("//at.alicdn.com/t/font_1031158_u69w8yhxdu.ttf?t=1630033759944") format("truetype"); }
</style></defs><path d="M305.812537 598.25446a239.065035 239.065035 0 0 1-170.274241-68.109696l-68.109696-68.109697a241.108326 241.108326 0 0 1 0-340.548482L120.554163 70.404312a241.108326 241.108326 0 0 1 340.548482 0l68.109697 68.109697a239.746132 239.746132 0 0 1 0 340.548482L476.767876 528.101473a238.383938 238.383938 0 0 1-170.955339 70.152987zM290.828404 138.514009a104.207836 104.207836 0 0 0-74.239569 30.649363l-49.720079 49.720079a104.207836 104.207836 0 0 0 0 147.798041l64.704212 68.109697a105.57003 105.57003 0 0 0 147.798042 0l50.401175-50.401176a105.57003 105.57003 0 0 0 0-147.798041l-68.109696-64.704212A103.526739 103.526739 0 0 0 290.828404 138.514009zM728.773753 1023.940063a240.427229 240.427229 0 0 1-169.593145-68.109696l-68.109696-68.109697a241.108326 241.108326 0 0 1 0-340.548482L544.877572 496.089915a246.557101 246.557101 0 0 1 340.548483 0l68.109696 68.109697a241.108326 241.108326 0 0 1 0 340.548483l-50.401175 50.401175A241.789423 241.789423 0 0 1 728.773753 1023.940063z m-14.984133-459.740451a105.57003 105.57003 0 0 0-73.558473 29.968266l-50.401175 50.401176a105.57003 105.57003 0 0 0-29.968267 73.558472 104.207836 104.207836 0 0 0 29.968267 73.558472l68.109696 68.109697a104.207836 104.207836 0 0 0 147.798042 0l49.720078-50.401176a103.526739 103.526739 0 0 0 0-147.116944l-64.704211-68.109697a106.932224 106.932224 0 0 0-76.963957-32.011557z" p-id="13632"></path><path d="M295.048522 393.801014m48.160829-48.160828l0 0q48.160828-48.160828 96.321656 0l236.469667 236.469667q48.160828 48.160828 0 96.321656l0 0q-48.160828 48.160828-96.321656 0l-236.469667-236.469667q-48.160828-48.160828 0-96.321656Z" p-id="13633"></path></svg>