<?xml version="1.0" standalone="no"?><!DOCTYPE svg PUBLIC "-//W3C//DTD SVG 1.1//EN" "http://www.w3.org/Graphics/SVG/1.1/DTD/svg11.dtd"><svg t="1625810238954" class="icon" viewBox="0 0 1024 1024" version="1.1" xmlns="http://www.w3.org/2000/svg" p-id="5192" xmlns:xlink="http://www.w3.org/1999/xlink" width="32" height="32"><defs><style type="text/css"></style></defs><path d="M880.128 92.16H143.872c-40.448 0-73.728 33.28-73.728 73.728v552.448c0 40.448 33.28 73.728 73.728 73.728h325.12v53.76H297.472c-23.552 0-43.008 19.456-43.008 43.008s19.456 43.008 43.008 43.008H727.04c23.552 0 43.008-19.456 43.008-43.008s-19.456-43.008-43.008-43.008h-172.032v-53.76h325.12c40.448 0 73.728-33.28 73.728-73.728V165.888c0-40.448-33.28-73.728-73.728-73.728z m-12.288 613.888h-711.68V178.176h662.528l6.656 0.512h42.496v527.36z" p-id="5193"></path><path d="M772.608 384.512l-5.12-2.048c-13.824-5.12-29.696 1.024-36.864 13.824l-33.792 58.88-96.768-180.736-3.072-5.12c-14.336-17.92-43.52-14.336-52.224 7.68l-101.376 252.416L353.28 394.24l-3.584-4.096c-2.048-2.048-4.096-4.096-6.656-5.12-14.848-8.192-33.28-3.072-41.984 11.264l-61.44 107.52-2.048 5.12c-5.12 13.824 1.024 29.696 13.824 36.864l5.12 2.048c13.824 5.12 29.696-1.024 36.864-13.824l36.864-64L424.96 612.352l3.584 4.096c3.072 3.072 6.656 5.632 10.752 7.168 15.872 6.144 33.792-1.536 39.936-16.896l98.304-245.76 91.648 172.032 3.072 5.12c2.56 3.072 5.12 5.632 8.704 7.168 14.848 8.192 33.28 3.072 41.984-11.264l61.44-107.52 2.048-5.12c5.12-13.824-1.024-29.184-13.824-36.864z" p-id="5194"></path></svg>