<?xml version="1.0" standalone="no"?><!DOCTYPE svg PUBLIC "-//W3C//DTD SVG 1.1//EN" "http://www.w3.org/Graphics/SVG/1.1/DTD/svg11.dtd"><svg t="1596770482360" class="icon" viewBox="0 0 1024 1024" version="1.1" xmlns="http://www.w3.org/2000/svg" p-id="28814" xmlns:xlink="http://www.w3.org/1999/xlink" width="200" height="200"><defs><style type="text/css"></style></defs><path d="M592.822259 119.658264c-43.331901-25.855878-92.096535-36.230156-140.893914-36.230156-48.797379 0-97.562013 15.513322-140.893914 36.230156C186.408015 192.117552 148.508847 342.075913 218.939943 461.074144l232.989425 393.160381L684.918793 461.074144C755.348865 342.075913 717.385229 192.117552 592.822259 119.658264zM323.602677 282.216593c14.858406-21.829168 26.182312-49.320289 34.037211-82.474386 21.796422 9.589402 33.57877 16.135492 35.346019 19.636223 0 0.884137-1.76725 2.618641-5.236258 5.236258s-5.694699 4.811586-6.545066 6.545066c-13.091156 22.680559-29.65132 47.554062-49.745984 74.619488 15.709797-0.883113 33.57877-2.618641 53.673433-5.236258 5.236258-10.472516 11.323906-23.989367 18.327414-40.582277 21.796422 11.356652 32.269961 17.902742 31.41857 19.636223-0.851391 1.734504-2.160199 3.501754-3.927449 5.236258-3.469008 2.618641-6.087649 5.236258-7.854898 7.854898-0.851391 1.734504-3.076058 4.811586-6.545066 9.163707-34.037211 46.24423-61.528332 75.92932-82.474386 89.020476 7.854898-0.884137 36.19741-5.661953 85.092004-14.399965l-6.545066 27.491121c-29.65132 0.883113-61.986773 5.236258-96.874351 13.091156l-9.163707-30.109762c7.003508-1.734504 17.018605-8.739035 30.109762-20.946055 8.705266-8.739035 20.946055-23.989367 36.654828-45.818535-36.654828 6.119371-58.452273 10.472516-65.455781 13.091156l-9.163707-28.800953C310.054103 298.352085 318.36642 290.955628 323.602677 282.216593zM410.004513 461.565331c-39.273469 8.739035-71.54343 15.284101-96.874351 19.636223l-9.163707-32.727379c26.182312 0 63.295582-5.236258 111.274316-15.709797L410.004513 461.565331zM597.207126 485.130026c-9.621125-1.734504-24.022113-2.618641-43.200918-2.618641l-90.328261 0c-16.560164 0-31.877011 0.884137-45.818535 2.618641l0-26.182312c7.003508 0.884137 22.254863 1.308809 45.818535 1.308809l26.182312 0 0-65.455781-13.091156 0c-5.236258 0-13.942547 0.425695-26.182312 1.308809-9.622148 0-16.167215 0-19.636223 0L430.950568 368.618429c7.854898 0.883113 23.106254 1.308809 45.818535 1.308809l56.292074 0c1.768273 0 7.397481 0 17.018605 0 15.709797-0.884137 26.640754-1.308809 32.727379-1.308809l0 27.491121c-17.476023-1.734504-34.037211-2.618641-49.745984-2.618641l-15.709797 0 0 66.76459 36.654828 0c14.859429 0 29.259394-0.884137 43.200918-2.618641L597.207126 485.130026zM582.807161 360.764554c-6.086625-6.120394-24.414039-20.946055-54.982242-44.509726-8.705266-6.120394-14.399965-10.473539-17.018605-13.091156-19.178805 19.211551-44.968168 38.847773-77.238129 58.910715-6.087649-7.854898-15.251356-14.82566-27.491121-20.946055 51.513234-20.061918 91.638093-51.938929 120.438023-95.565543l-51.055816 0c-28.800953 0-44.509726 0.425695-47.128367 1.308809L428.330904 219.379453c2.618641 0 6.087649 0.425695 10.472516 1.308809 13.091156 0.884137 25.330922 1.308809 36.654828 1.308809l47.128367 0c16.561188 0 33.186843-0.883113 49.745984-2.618641 1.768273 0 2.160199 0.884137 1.308809 2.618641-11.322883 20.946055-26.63973 42.317805-45.818535 64.146972 22.713304 13.091156 48.437176 29.684066 77.238129 49.747008L582.807161 360.764554z" p-id="28815" fill="#d81e06"></path></svg>