<?xml version="1.0" standalone="no"?><!DOCTYPE svg PUBLIC "-//W3C//DTD SVG 1.1//EN" "http://www.w3.org/Graphics/SVG/1.1/DTD/svg11.dtd"><svg t="1643014298721" class="icon" viewBox="0 0 1024 1024" version="1.1" xmlns="http://www.w3.org/2000/svg" p-id="6044" xmlns:xlink="http://www.w3.org/1999/xlink" width="200" height="200"><defs><style type="text/css"></style></defs><path d="M950.4 128.2H330.1c-5.5 0-10 4.5-10 10v172c0 5.5 4.5 10 10 10h620.3c5.5 0 10-4.5 10-10v-172c0-5.5-4.5-10-10-10z m-62 120H392.1v-48h496.3v48zM950.4 704.2H491.8c-5.5 0-10 4.5-10 10v172c0 5.5 4.5 10 10 10h458.6c5.5 0 10-4.5 10-10v-172c0-5.5-4.5-10-10-10z m-62 120H553.8v-48h334.6v48zM491.8 608.2h457.1c5.5 0 10-4.5 10-10v-172c0-5.5-4.5-10-10-10H491.8c-5.5 0-10 4.5-10 10v172c0 5.5 4.5 10 10 10z m62-120h333.1v48H553.8v-48zM384.1 548.2c19.9 0 36-16.1 36-36s-16.1-36-36-36h-188v-163c35.2-14.2 60-48.7 60-89 0-53-43-96-96-96s-96 43-96 96c0 40.3 24.8 74.8 60 89v487c0 19.9 16.1 36 36 36h224c19.9 0 36-16.1 36-36s-16.1-36-36-36h-188v-216h188z" p-id="6045" fill="#51e49d"></path></svg>