<?xml version="1.0" encoding="UTF-8"?>
<svg width="200px" height="117px" viewBox="0 0 200 117" version="1.1" xmlns="http://www.w3.org/2000/svg" xmlns:xlink="http://www.w3.org/1999/xlink">
    <title>编组</title>
    <defs>
        <path d="M99.4961746,115.006112 L48.6607939,115.006112 C20.7701689,113.541268 5.09667911,119.315595 0.53523707,95.8677804 C-3.21684011,76.5804567 13.3477371,59.7349679 31.7657058,52.2154366 C35.6133621,50.6529366 38.3672683,47.2349679 39.2266433,43.1724679 C44.4219558,18.5630929 65.648821,-0.838634753 99.1267185,0.0279366181 C99.5834414,0.0397558667 99.1267185,38.0004789 99.4961746,75.7856378 C99.692525,95.8668715 99.4961746,101.920035 99.4961746,115.006112 Z" id="path-1"></path>
        <path d="M198.253437,82.7735695 C198.253437,114.199351 176.731802,114.978175 145.696646,114.978175 L48.6607939,114.978175 C20.7701689,113.513331 5.09667911,119.287658 0.53523707,95.8398438 C-3.21684011,76.5525201 13.3477371,59.7070313 31.7657058,52.1875 C35.6133621,50.625 38.3672683,47.2070313 39.2266433,43.1445313 C44.4219558,18.5351563 67.0586746,1.42108547e-14 94.2461746,1.42108547e-14 C114.285237,1.42108547e-14 131.8243,10.0585938 141.785237,25.1953125 C143.738362,28.1835938 146.882893,30.1757813 150.41805,30.703125 C178.777425,35 198.253437,54.375132 198.253437,82.7735695 Z" id="path-3"></path>
    </defs>
    <g id="页面-1" stroke="none" stroke-width="1" fill="none" fill-rule="evenodd">
        <g id="编组" transform="translate(1.000000, 1.000000)">
            <mask id="mask-2" fill="white">
                <use xlink:href="#path-1"></use>
            </mask>
            <use id="蒙版" fill="#000000" fill-rule="nonzero" xlink:href="#path-1"></use>
            <rect id="矩形" fill="#D8D8D8" mask="url(#mask-2)" x="100.496175" y="-11.2220634" width="112" height="146"></rect>
            <mask id="mask-4" fill="white">
                <use xlink:href="#path-3"></use>
            </mask>
            <use id="蒙版" stroke="#000000" fill-rule="nonzero" xlink:href="#path-3"></use>
        </g>
    </g>
</svg>