<?xml version="1.0" standalone="no"?><!DOCTYPE svg PUBLIC "-//W3C//DTD SVG 1.1//EN" "http://www.w3.org/Graphics/SVG/1.1/DTD/svg11.dtd"><svg t="1656483766106" class="icon" viewBox="0 0 1024 1024" version="1.1" xmlns="http://www.w3.org/2000/svg" p-id="12344" xmlns:xlink="http://www.w3.org/1999/xlink" width="200" height="200"><defs><style type="text/css">@font-face { font-family: feedback-iconfont; src: url("//at.alicdn.com/t/font_1031158_u69w8yhxdu.woff2?t=1630033759944") format("woff2"), url("//at.alicdn.com/t/font_1031158_u69w8yhxdu.woff?t=1630033759944") format("woff"), url("//at.alicdn.com/t/font_1031158_u69w8yhxdu.ttf?t=1630033759944") format("truetype"); }
</style></defs><path d="M10.666667 10.666667m213.333333 0l576 0q213.333333 0 213.333333 213.333333l0 576q0 213.333333-213.333333 213.333333l-576 0q-213.333333 0-213.333333-213.333333l0-576q0-213.333333 213.333333-213.333333Z" fill="#F3F8FF" p-id="12345"></path><path d="M881.152 589.141333l-97.28-59.946666v37.44H498.922667V246.826667h34.773333l-55.68-104.96-55.573333 104.96h34.773333v330.624l-211.946667 228.842666L217.6 776.32l-29.546667 116.650667 108.096-31.829334-21.418666-23.061333 209.792-226.453333h299.370666v37.546666z" fill="#DAE9FF" p-id="12346"></path><path d="M841.813333 840.682667l-21.824-118.677334-26.24 24.533334-186.730666-232.213334 223.68-209.706666 22.762666 28.373333 37.056-114.197333-109.952 23.509333 22.848 28.352-231.296 216.661333L273.066667 464.597333l2.773333-42.304-100.970667 52.544 93.162667 67.285334 2.154667-32.64 295.850666 22.506666L762.24 776.106667l-26.24 24.533333z" fill="#DAE9FF" p-id="12347"></path><path d="M464.746667 747.392c0 22.848 17.152 41.386667 38.293333 41.386667 21.141333 0 38.293333-18.538667 38.293333-41.386667 0-22.869333-17.152-41.408-38.293333-41.408-21.141333 0-38.293333 18.538667-38.293333 41.386667z m-127.744-356.288c0 22.848 17.130667 41.386667 38.293333 41.386667 21.141333 0 38.293333-18.538667 38.293333-41.386667 0-14.805333-7.296-28.458667-19.157333-35.861333a35.84 35.84 0 0 0-38.293333 0c-11.84 7.402667-19.136 21.056-19.136 35.84z m271.552-82.816c0 14.805333 7.296 28.458667 19.136 35.861333a35.84 35.84 0 0 0 38.314666 0c11.84-7.402667 19.136-21.056 19.136-35.84 0-22.869333-17.152-41.408-38.293333-41.408-21.141333 0-38.293333 18.538667-38.293333 41.386667z" fill="#FFD6C2" p-id="12348"></path><path d="M855.616 575.402667l-97.28-60.074667v37.589333H473.386667V233.066667h34.688L452.501333 128l-55.594666 105.066667h34.794666V563.626667l-211.946666 228.821333-27.797334-29.930667-29.44 116.672 108.074667-31.850666-21.397333-23.04 209.685333-226.346667h299.456v37.44z" fill="#3889FF" p-id="12349"></path><path d="M816.298667 826.858667l-21.824-118.698667-26.24 24.64-186.858667-232.32 223.786667-209.706667 22.762666 28.373334 37.056-114.197334-109.952 23.616 22.762667 28.245334L546.56 473.6l-299.050667-22.826667 2.773334-42.197333L149.333333 460.992l93.162667 67.285333 2.048-32.64 295.957333 22.613334 196.224 244.032-26.24 24.64z" fill="#3889FF" p-id="12350"></path><path d="M439.210667 712.213333c0 22.869333 17.152 41.386667 38.293333 41.386667 21.162667 0 38.293333-18.517333 38.293333-41.386667s-17.130667-41.386667-38.293333-41.386666c-21.141333 0-38.293333 18.517333-38.293333 41.386666z m-127.850667-356.288c0 14.784 7.296 28.458667 19.157333 35.84a35.84 35.84 0 0 0 38.293334 0c11.84-7.381333 19.136-21.056 19.136-35.84 0-22.869333-17.130667-41.386667-38.293334-41.386666-21.141333 0-38.293333 18.517333-38.293333 41.386666z m271.573333-82.794666c0 14.784 7.296 28.458667 19.136 35.84a35.84 35.84 0 0 0 38.293334 0c11.84-7.381333 19.157333-21.056 19.157333-35.84 0-14.805333-7.317333-28.458667-19.157333-35.84a35.84 35.84 0 0 0-38.293334 0c-11.84 7.381333-19.157333 21.034667-19.157333 35.84z" fill="#FB560A" p-id="12351"></path></svg>