<?xml version="1.0" standalone="no"?><!DOCTYPE svg PUBLIC "-//W3C//DTD SVG 1.1//EN" "http://www.w3.org/Graphics/SVG/1.1/DTD/svg11.dtd"><svg t="1595487839944" class="icon" viewBox="0 0 1073 1024" version="1.1" xmlns="http://www.w3.org/2000/svg" p-id="2833" xmlns:xlink="http://www.w3.org/1999/xlink" width="209.5703125" height="200"><defs><style type="text/css"></style></defs><path d="M315.953548 287.132903a57.145806 57.145806 0 1 1 56.815484-57.145806 56.980645 56.980645 0 0 1-56.815484 57.145806z m0-81.259355a24.113548 24.113548 0 1 0 23.783226 24.113549 23.948387 23.948387 0 0 0-23.783226-24.113549zM588.056774 208.350968h463.607742v33.032258H588.056774z" p-id="2834"></path><path d="M213.223226 366.492903a228.665806 228.665806 0 1 1 387.303226-239.483871h423.886451l49.135484 61.605162v76.056774l-70.44129 43.107097-78.203871 20.48-80.020645-20.975484-80.020646 20.975484-80.020645-20.975484-79.938064 20.975484-2.064516-0.495484a237.006452 237.006452 0 0 1-23.04 38.730322L553.290323 346.83871a200.670968 200.670968 0 0 0 24.774193-44.75871l5.367742-13.708387 21.388387 5.615484 80.020645-20.975484 80.020645 20.975484 80.020646-20.975484 80.020645 21.140645 64.908387-17.094193 50.704516-30.885162v-45.997419l-31.793548-40.051613h-429.419355l-4.294194-9.909677A195.385806 195.385806 0 1 0 239.483871 346.83871zM660.067097 499.695484h-33.032258a61.687742 61.687742 0 0 0-1.321291-12.965161l32.289033-6.854194a93.316129 93.316129 0 0 1 2.064516 19.819355zM616.712258 465.589677a59.540645 59.540645 0 0 0-16.516129-16.516129L619.354839 421.987097a93.976774 93.976774 0 0 1 24.774193 24.774193z m-37.16129-25.517419a59.375484 59.375484 0 0 0-12.71742-1.32129h-13.047742v-33.032258h13.047742a88.856774 88.856774 0 0 1 19.819355 2.147096z m-55.163871-1.32129h-29.39871v-33.032258h29.39871zM449.073548 405.71871h16.516129v33.032258h-16.516129z" p-id="2835"></path><path d="M436.851613 405.71871h16.516129v33.032258h-16.516129zM404.645161 438.750968h-31.545806v-33.032258H404.645161z m-63.752258 0h-31.545806v-33.032258h31.876129z m-63.752258 0h-31.628387v-33.032258h31.95871z m-63.834839 0H181.677419v-33.032258h31.876129z m-63.752258 0h-31.545806v-33.032258h31.876129zM82.580645 436.43871a103.308387 103.308387 0 0 1-34.60129-14.451613L66.064516 394.322581a72.175484 72.175484 0 0 0 23.783226 9.827096zM20.562581 396.387097a106.28129 106.28129 0 0 1-16.516129-33.692903l31.545806-9.249033a71.762581 71.762581 0 0 0 11.47871 23.205162zM33.032258 327.68l-33.032258-2.394839A105.372903 105.372903 0 0 1 9.331613 289.032258l29.976774 13.790968A74.983226 74.983226 0 0 0 33.032258 327.68z m21.140645-46.245161l-23.452903-23.370323a106.116129 106.116129 0 0 1 30.967742-21.388387l13.625806 30.059355a70.936774 70.936774 0 0 0-21.223225 14.699355z m46.162581-20.810323l-1.981936-33.032258H131.220645v33.032258h-26.590968a39.473548 39.473548 0 0 0-4.376774 0zM163.261935 227.427097h16.51613v33.032258h-16.51613zM423.473548 660.645161h-33.032258A10.818065 10.818065 0 0 0 379.870968 649.909677h-54.503226v-33.032258H379.870968a43.932903 43.932903 0 0 1 43.60258 43.767742zM916.645161 660.645161h-33.032258a43.932903 43.932903 0 0 1 43.767742-44.015484h54.503226v33.032258h-54.503226A10.818065 10.818065 0 0 0 916.645161 660.645161z" p-id="2836"></path><path d="M904.91871 659.901935L858.83871 534.709677a9.579355 9.579355 0 0 0-6.771613-4.707096H455.101935a7.597419 7.597419 0 0 0-5.367741 3.963871L412.903226 658.828387l-31.628387-9.331613 36.665806-124.861935a39.969032 39.969032 0 0 1 37.07871-27.664516h397.047742a41.950968 41.950968 0 0 1 37.739355 26.343225l45.997419 125.192258zM390.523871 1024h-30.141936a68.376774 68.376774 0 0 1-68.129032-68.541935v-57.806452h33.032258v57.806452a35.344516 35.344516 0 0 0 35.096774 35.509677h30.141936a35.344516 35.344516 0 0 0 35.096774-35.509677v-57.806452h33.032258v57.806452a68.459355 68.459355 0 0 1-68.129032 68.541935zM946.869677 1024H916.645161a68.376774 68.376774 0 0 1-68.129032-68.541935v-42.11613h33.032258v42.11613A35.344516 35.344516 0 0 0 916.645161 990.967742h30.141936a35.344516 35.344516 0 0 0 35.096774-35.509677v-84.232259h33.032258v83.901936a68.376774 68.376774 0 0 1-68.046452 68.872258z" p-id="2837"></path><path d="M977.837419 926.967742H329.496774a37.409032 37.409032 0 0 1-37.243871-37.491613v-139.56129a69.285161 69.285161 0 0 1 21.058065-47.070968l54.916129-48.970323A79.607742 79.607742 0 0 1 415.463226 635.870968H891.870968a79.194839 79.194839 0 0 1 47.153548 18.085161l54.99871 48.970323a69.285161 69.285161 0 0 1 21.058064 47.070967v139.561291a37.409032 37.409032 0 0 1-37.243871 37.409032zM415.463226 668.903226a47.649032 47.649032 0 0 0-25.187097 9.661935l-54.99871 48.887742a37.409032 37.409032 0 0 0-9.992258 22.461936v139.56129a4.376774 4.376774 0 0 0 4.211613 4.459355h648.340645a4.376774 4.376774 0 0 0 4.129033-4.459355v-139.56129a37.409032 37.409032 0 0 0-9.992258-22.461936l-55.329033-48.970322a47.649032 47.649032 0 0 0-24.774193-9.579355z" p-id="2838"></path><path d="M977.837419 926.967742H329.496774a37.409032 37.409032 0 0 1-37.243871-37.491613v-139.56129a69.285161 69.285161 0 0 1 21.058065-47.070968l54.916129-48.970323A79.607742 79.607742 0 0 1 415.463226 635.870968H891.870968a79.194839 79.194839 0 0 1 47.153548 18.085161l54.99871 48.970323a69.285161 69.285161 0 0 1 21.058064 47.070967v139.561291a37.409032 37.409032 0 0 1-37.243871 37.409032zM415.463226 668.903226a47.649032 47.649032 0 0 0-25.187097 9.661935l-54.99871 48.887742a37.409032 37.409032 0 0 0-9.992258 22.461936v139.56129a4.376774 4.376774 0 0 0 4.211613 4.459355h648.340645a4.376774 4.376774 0 0 0 4.129033-4.459355v-139.56129a37.409032 37.409032 0 0 0-9.992258-22.461936l-55.329033-48.970322a47.649032 47.649032 0 0 0-24.774193-9.579355z" p-id="2839"></path><path d="M856.526452 926.967742H461.212903v-57.310968a46.575484 46.575484 0 0 1 45.171613-47.814193h305.052903a46.575484 46.575484 0 0 1 45.089033 47.814193z m-362.281291-33.032258h329.249033v-24.27871a13.625806 13.625806 0 0 0-12.056775-14.781935H506.384516a13.625806 13.625806 0 0 0-12.139355 14.781935zM505.393548 752.227097h307.034839v33.032258H505.393548zM358.482581 832.247742h55.246451v33.032258h-55.246451zM900.624516 832.247742h55.246452v33.032258h-55.246452zM358.482581 752.227097h96.701935v33.032258H358.482581zM859.169032 752.227097h96.701936v33.032258h-96.701936z" p-id="2840"></path></svg>