<?xml version="1.0" standalone="no"?><!DOCTYPE svg PUBLIC "-//W3C//DTD SVG 1.1//EN" "http://www.w3.org/Graphics/SVG/1.1/DTD/svg11.dtd"><svg t="1591003670289" class="icon" viewBox="0 0 1024 1024" version="1.1" xmlns="http://www.w3.org/2000/svg" p-id="4006" xmlns:xlink="http://www.w3.org/1999/xlink" width="200" height="200"><defs><style type="text/css"></style></defs><path d="M873.7984 1024H151.025067A67.413333 67.413333 0 0 1 85.3184 955.448889V204.515556a67.413333 67.413333 0 0 1 65.706667-68.551112h32.711111v102.684445a67.413333 67.413333 0 0 0 65.422222 68.551111h525.653333a67.413333 67.413333 0 0 0 65.706667-68.551111V135.964444h32.711111A67.413333 67.413333 0 0 1 938.651733 204.515556v750.933333A66.275556 66.275556 0 0 1 874.367289 1024z m-146.773333-464.497778a49.777778 49.777778 0 0 0-70.257778 0l-175.502222 174.364445L398.207289 652.515556a49.208889 49.208889 0 0 0-69.688889 0 48.071111 48.071111 0 0 0 0 67.982222l117.191111 115.768889a49.208889 49.208889 0 0 0 69.688889 0l210.773333-208.497778a48.355556 48.355556 0 0 0 0-68.266667zM676.393956 238.648889H348.429511A67.413333 67.413333 0 0 1 282.722844 170.666667V135.964444C414.136178 35.84 415.5584 34.133333 449.976178 0h130.275555c32.142222 31.857778 31.288889 35.84 161.564445 135.964444V170.666667a66.56 66.56 0 0 1-64.284445 68.551111zM511.985067 68.266667a68.551111 68.551111 0 1 0 65.422222 71.68v-3.128889A67.413333 67.413333 0 0 0 511.985067 68.266667z" p-id="4007"></path></svg>