<?xml version="1.0" standalone="no"?><!DOCTYPE svg PUBLIC "-//W3C//DTD SVG 1.1//EN" "http://www.w3.org/Graphics/SVG/1.1/DTD/svg11.dtd"><svg t="1591077233446" class="icon" viewBox="0 0 1024 1024" version="1.1" xmlns="http://www.w3.org/2000/svg" p-id="855" xmlns:xlink="http://www.w3.org/1999/xlink" width="200" height="200"><defs><style type="text/css"></style></defs><path d="M810.666667 469.333333a213.333333 213.333333 0 0 1 42.709333 422.4L853.333333 938.666667h128a42.666667 42.666667 0 0 1 0 85.333333h-341.333333a42.666667 42.666667 0 0 1 0-85.333333h128v-46.933334a213.418667 213.418667 0 0 1-170.453333-199.808L597.333333 682.666667a213.333333 213.333333 0 0 1 213.333334-213.333334z m0-469.333333a128 128 0 0 1 127.786666 120.490667L938.666667 128v256a42.666667 42.666667 0 0 1-85.034667 4.992L853.333333 384V128a42.666667 42.666667 0 0 0-37.674666-42.368L810.666667 85.333333H128a42.666667 42.666667 0 0 0-42.368 37.674667L85.333333 128v725.333333a42.666667 42.666667 0 0 0 37.674667 42.368L128 896h298.666667a42.666667 42.666667 0 0 1 4.992 85.034667L426.666667 981.333333H128a128 128 0 0 1-127.786667-120.490666L0 853.333333V128A128 128 0 0 1 120.490667 0.213333L128 0h682.666667z m0 554.666667a128 128 0 1 0 0 256 128 128 0 0 0 0-256z m-341.333334-42.666667a42.666667 42.666667 0 0 1 0 85.333333H256a42.666667 42.666667 0 0 1 0-85.333333h213.333333z m213.333334-213.333333a42.666667 42.666667 0 0 1 0 85.333333H256a42.666667 42.666667 0 1 1 0-85.333333h426.666667z" fill="#008df0" p-id="856"></path></svg>