<?xml version="1.0" standalone="no"?><!DOCTYPE svg PUBLIC "-//W3C//DTD SVG 1.1//EN" "http://www.w3.org/Graphics/SVG/1.1/DTD/svg11.dtd"><svg t="1591077367507" class="icon" viewBox="0 0 1111 1024" version="1.1" xmlns="http://www.w3.org/2000/svg" p-id="1167" xmlns:xlink="http://www.w3.org/1999/xlink" width="216.9921875" height="200"><defs><style type="text/css"></style></defs><path d="M1055.665062 587.913018a44.454671 44.454671 0 0 1 3.689737 58.680165l-3.689737 4.178739-148.211872 148.078508 140.654578 140.699032a44.454671 44.454671 0 0 1-58.680165 66.548642l-4.178739-3.689737-140.654578-140.743487-149.456602 149.412147a44.454671 44.454671 0 0 1-66.548642-58.680165l3.689737-4.178739 149.456603-149.412148-140.565668-140.610123a44.454671 44.454671 0 0 1 58.680165-66.548641l4.178739 3.689737L844.638741 735.991526l148.211871-148.078508a44.454671 44.454671 0 0 1 62.858905 0zM844.638741 0a133.364012 133.364012 0 0 1 133.141738 125.53999L978.002752 133.364012v266.728023a44.454671 44.454671 0 0 1-88.598158 5.201197L889.093411 400.092035V133.364012a44.454671 44.454671 0 0 0-39.253474-44.143488L844.638741 88.909341H133.364012a44.454671 44.454671 0 0 0-44.143488 39.253474L88.909341 133.364012v755.729399a44.454671 44.454671 0 0 0 39.253474 44.143488L133.364012 933.548082h311.182694a44.454671 44.454671 0 0 1 5.201196 88.598158L444.546706 1022.457423H133.364012a133.364012 133.364012 0 0 1-133.141739-125.53999L0 889.093411V133.364012A133.364012 133.364012 0 0 1 125.53999 0.222273L133.364012 0h711.274729z m-355.637365 533.456047a44.454671 44.454671 0 0 1 0 88.909341H266.728023a44.454671 44.454671 0 0 1 0-88.909341h222.273353z m222.273353-222.273353a44.454671 44.454671 0 0 1 0 88.909341H266.728023a44.454671 44.454671 0 1 1 0-88.909341h444.546706z" fill="#d81e06" p-id="1168"></path></svg>