<?xml version="1.0" standalone="no"?><!DOCTYPE svg PUBLIC "-//W3C//DTD SVG 1.1//EN" "http://www.w3.org/Graphics/SVG/1.1/DTD/svg11.dtd"><svg t="1638775158176" class="icon" viewBox="0 0 1024 1024" version="1.1" xmlns="http://www.w3.org/2000/svg" p-id="6383" xmlns:xlink="http://www.w3.org/1999/xlink" width="200" height="200"><defs><style type="text/css"></style></defs><path d="M780.003382 851.539136c-15.179724 0-27.486004-12.300141-27.486004-27.479865s12.30628-27.484981 27.486004-27.484981c76.246545 0 143.150304-130.453121 143.150304-209.30398 0-58.515718-35.741016-68.408019-143.150304-68.408019-15.179724 0-27.486004-12.307304-27.486004-27.486004s12.30628-27.486004 27.486004-27.486004c83.613326 0 198.123336 0 198.123336 123.380028C978.127741 691.232081 893.050064 851.539136 780.003382 851.539136z" p-id="6384" fill="#13227a"></path><path d="M656.314315 958.372304 216.530057 958.372304c-112.589264 0-131.822304-53.389978-131.822304-150.927431L84.707752 418.512792c0-15.178701 10.93812-23.620977 26.116821-23.620977L770.501984 394.891815c15.178701 0 28.854165 8.442276 28.854165 23.620977l0 388.93208C799.356149 916.015613 760.905418 958.372304 656.314315 958.372304zM139.680784 449.864848l0 357.580025c0 82.613556 6.670933 95.955422 76.849272 95.955422l439.784258 0c73.735351 0 88.068801-17.635659 88.068801-95.955422L744.383116 449.864848 139.680784 449.864848z" p-id="6385" fill="#13227a"></path><path d="M189.016423 652.41603c-3.570315 0-7.139607-1.503237-9.757225-3.985778-2.470261-2.604314-3.986801-6.173606-3.986801-9.757225 0-3.703345 1.51654-7.272637 3.986801-9.757225 5.086855-5.086855 14.427594-5.086855 19.514449 0 2.469238 2.618641 3.985778 6.053879 3.985778 9.757225 0 3.583618-1.51654 7.15291-3.985778 9.757225C196.170356 650.912793 192.586738 652.41603 189.016423 652.41603z" p-id="6386" fill="#13227a"></path><path d="M281.850761 856.04987c-77.882811 0-100.939947-23.815405-100.939947-101.926414l0-47.0025c0-7.597025 6.147-13.743002 13.743002-13.743002 7.582699 0 13.743002 6.145977 13.743002 13.743002l0 47.0025c0 63.321164 10.401908 74.445526 73.453942 74.445526 7.583722 0 13.743002 6.148024 13.743002 13.745049C295.593763 849.907986 289.434483 856.04987 281.850761 856.04987z" p-id="6387" fill="#13227a"></path><path d="M342.810135 349.917508c-7.918343 0-15.783475-3.409656-21.219277-9.985422-9.66308-11.703553-7.999185-29.030174 3.704368-38.693254 21.379936-17.662265 34.317597-35.888372 34.600029-48.77282 0.080841-4.321422-0.980327-11.153014-11.30037-20.440541-28.735461-25.848715-88.526219-79.654154-32.104185-157.457148 8.925277-12.294001 26.104541-15.018042 38.384216-6.120394 12.294001 8.911974 15.031345 26.104541 6.120394 38.384216-22.011316 30.358425-17.232476 46.907333 24.372084 84.33885 24.990161 22.493294 29.822213 46.3834 29.486568 62.461587-0.644683 29.942963-19.514449 61.053518-54.556547 89.988524C355.17065 347.850429 348.970438 349.917508 342.810135 349.917508z" p-id="6388" fill="#13227a"></path><path d="M507.729232 349.917508c-7.918343 0-15.783475-3.409656-21.219277-9.985422-9.66308-11.703553-7.998161-29.030174 3.704368-38.693254 21.38096-17.662265 34.317597-35.888372 34.600029-48.77282 0.080841-4.321422-0.979304-11.153014-11.30037-20.440541-28.734438-25.848715-88.526219-79.654154-32.103162-157.457148 8.91095-12.294001 26.104541-15.018042 38.385239-6.120394 12.292977 8.911974 15.030321 26.104541 6.119371 38.384216-22.011316 30.358425-17.2335 46.907333 24.372084 84.33885 24.990161 22.493294 29.822213 46.3834 29.485545 62.461587-0.64366 29.942963-19.514449 61.053518-54.555523 89.988524C520.089747 347.850429 513.889535 349.917508 507.729232 349.917508z" p-id="6389" fill="#13227a"></path></svg>