<svg xmlns="http://www.w3.org/2000/svg" viewBox="0 0 45.29 45.32"><defs><style>.cls-1{fill:#fff;}</style></defs><g id="图层_2" data-name="图层 2"><g id="图层_1-2" data-name="图层 1"><path class="cls-1" d="M45.29,26,41.94,1.4A1.62,1.62,0,0,0,40.34,0H5a1.62,1.62,0,0,0-1.6,1.39L0,26H0l0,0V43.47a1.85,1.85,0,0,0,1.85,1.85H43.44a1.85,1.85,0,0,0,1.85-1.85V26l0,0ZM42.05,42.09H3.23V26H42.05Z"/><path class="cls-1" d="M7.56,32.53h4.29a1.09,1.09,0,0,0,1.09-1.09v-1a1.09,1.09,0,0,0-1.09-1.09H7.56a1.09,1.09,0,0,0-1.09,1.09v1A1.09,1.09,0,0,0,7.56,32.53Zm0,6.45h4.29a1.09,1.09,0,0,0,1.09-1.1v-1a1.09,1.09,0,0,0-1.09-1.09H7.56a1.09,1.09,0,0,0-1.09,1.09v1A1.09,1.09,0,0,0,7.56,39Zm10.17-6.45h0a1.6,1.6,0,0,0,1.6-1.6h0a1.6,1.6,0,0,0-1.6-1.6h0a1.61,1.61,0,0,0-1.61,1.6h0A1.61,1.61,0,0,0,17.73,32.53Zm0,6.45h0a1.6,1.6,0,0,0,1.6-1.61h0a1.59,1.59,0,0,0-1.6-1.6h0a1.6,1.6,0,0,0-1.61,1.6h0A1.61,1.61,0,0,0,17.73,39Zm6.47-6.45h0a1.6,1.6,0,0,0,1.6-1.6h0a1.6,1.6,0,0,0-1.6-1.6h0a1.61,1.61,0,0,0-1.61,1.6h0A1.61,1.61,0,0,0,24.2,32.53Zm0,6.45h0a1.6,1.6,0,0,0,1.6-1.61h0a1.59,1.59,0,0,0-1.6-1.6h0a1.6,1.6,0,0,0-1.61,1.6h0A1.61,1.61,0,0,0,24.2,39Zm6.42-6.45h0a1.6,1.6,0,0,0,1.6-1.6h0a1.6,1.6,0,0,0-1.6-1.6h0A1.61,1.61,0,0,0,29,30.92h0A1.61,1.61,0,0,0,30.62,32.53Zm0,6.45h0a1.6,1.6,0,0,0,1.6-1.61h0a1.59,1.59,0,0,0-1.6-1.6h0A1.6,1.6,0,0,0,29,37.37h0A1.61,1.61,0,0,0,30.62,39Zm6.47-6.45h0a1.6,1.6,0,0,0,1.6-1.6h0a1.6,1.6,0,0,0-1.6-1.6h0a1.61,1.61,0,0,0-1.61,1.6h0A1.61,1.61,0,0,0,37.09,32.53Zm0,6.45h0a1.61,1.61,0,0,0,1.6-1.61h0a1.6,1.6,0,0,0-1.6-1.6h0a1.6,1.6,0,0,0-1.61,1.6h0A1.61,1.61,0,0,0,37.09,39Z"/></g></g></svg>