<svg width="20" height="20" viewBox="0 0 20 20" fill="none" xmlns="http://www.w3.org/2000/svg">
<path fill-rule="evenodd" clip-rule="evenodd" d="M11.25 16.8581C11.2564 17.0852 11.1388 17.2979 10.9428 17.4134C10.7469 17.5289 10.5036 17.5289 10.3077 17.4134C10.1117 17.2979 9.99408 17.0852 10.0005 16.8581V8.11838C10.0005 7.98354 10.0445 7.85169 10.1255 7.74382L13.1255 3.74853H4.3761L7.37605 7.74382C7.45705 7.85169 7.50105 7.98354 7.50105 8.11838V13.4781L8.56753 14.5438C8.80446 14.7887 8.80118 15.178 8.56017 15.4189C8.31916 15.6598 7.92935 15.6633 7.68405 15.4268L6.43407 14.1782C6.31686 14.0611 6.25104 13.9023 6.25107 13.7368V8.32663L2.62612 3.49882C2.31713 3.08731 2.61112 2.5 3.12611 2.5H14.3749C14.8899 2.5 15.1839 3.08731 14.8749 3.49882L11.25 8.32663V16.8581ZM13.125 9.99117H16.8749C17.0982 9.99114 17.3046 10.1101 17.4163 10.3033C17.5279 10.4964 17.5279 10.7344 17.4163 10.9276C17.3046 11.1208 17.0982 11.2397 16.8749 11.2397H13.125C12.9017 11.2397 12.6953 11.1208 12.5836 10.9276C12.472 10.7344 12.472 10.4964 12.5836 10.3033C12.6953 10.1101 12.9017 9.99114 13.125 9.99117ZM13.125 12.4882H16.8749C17.0982 12.4882 17.3046 12.6072 17.4163 12.8003C17.5279 12.9935 17.5279 13.2315 17.4163 13.4247C17.3046 13.6178 17.0982 13.7368 16.8749 13.7368H13.125C12.9017 13.7368 12.6953 13.6178 12.5836 13.4247C12.472 13.2315 12.472 12.9935 12.5836 12.8003C12.6953 12.6072 12.9017 12.4882 13.125 12.4882ZM13.125 14.9853H16.8749C17.2201 14.9853 17.4999 15.2648 17.4999 15.6096C17.4999 15.9543 17.2201 16.2338 16.8749 16.2338H13.125C12.7798 16.2338 12.5 15.9543 12.5 15.6096C12.5 15.2648 12.7798 14.9853 13.125 14.9853Z" fill="#5A5E72"/>
</svg>
