<svg width="20" height="20" viewBox="0 0 20 20" fill="none" xmlns="http://www.w3.org/2000/svg">
<mask id="mask0_220_20999" style="mask-type:alpha" maskUnits="userSpaceOnUse" x="0" y="0" width="20" height="20">
<rect width="20" height="20" fill="#D9D9D9"/>
</mask>
<g mask="url(#mask0_220_20999)">
<path d="M9.99992 4.16634C9.76381 4.16634 9.56589 4.08648 9.40617 3.92676C9.24645 3.76704 9.16659 3.56912 9.16659 3.33301V1.66634C9.16659 1.43023 9.24645 1.23231 9.40617 1.07259C9.56589 0.912869 9.76381 0.833008 9.99992 0.833008C10.236 0.833008 10.4339 0.912869 10.5937 1.07259C10.7534 1.23231 10.8333 1.43023 10.8333 1.66634V3.33301C10.8333 3.56912 10.7534 3.76704 10.5937 3.92676C10.4339 4.08648 10.236 4.16634 9.99992 4.16634ZM14.1249 5.87467C13.9721 5.7219 13.8958 5.53092 13.8958 5.30176C13.8958 5.07259 13.9721 4.87467 14.1249 4.70801L15.2916 3.52051C15.4583 3.35384 15.6562 3.27051 15.8853 3.27051C16.1145 3.27051 16.3124 3.35384 16.4791 3.52051C16.6319 3.67329 16.7083 3.86773 16.7083 4.10384C16.7083 4.33995 16.6319 4.5344 16.4791 4.68717L15.2916 5.87467C15.1388 6.02745 14.9444 6.10384 14.7083 6.10384C14.4721 6.10384 14.2777 6.02745 14.1249 5.87467ZM16.6666 10.833C16.4305 10.833 16.2326 10.7531 16.0728 10.5934C15.9131 10.4337 15.8333 10.2358 15.8333 9.99967C15.8333 9.76356 15.9131 9.56565 16.0728 9.40592C16.2326 9.2462 16.4305 9.16634 16.6666 9.16634H18.3333C18.5694 9.16634 18.7673 9.2462 18.927 9.40592C19.0867 9.56565 19.1666 9.76356 19.1666 9.99967C19.1666 10.2358 19.0867 10.4337 18.927 10.5934C18.7673 10.7531 18.5694 10.833 18.3333 10.833H16.6666ZM9.99992 19.1663C9.76381 19.1663 9.56589 19.0865 9.40617 18.9268C9.24645 18.767 9.16659 18.5691 9.16659 18.333V16.6663C9.16659 16.4302 9.24645 16.2323 9.40617 16.0726C9.56589 15.9129 9.76381 15.833 9.99992 15.833C10.236 15.833 10.4339 15.9129 10.5937 16.0726C10.7534 16.2323 10.8333 16.4302 10.8333 16.6663V18.333C10.8333 18.5691 10.7534 18.767 10.5937 18.9268C10.4339 19.0865 10.236 19.1663 9.99992 19.1663ZM4.70825 5.87467L3.52075 4.70801C3.35409 4.54134 3.27075 4.33995 3.27075 4.10384C3.27075 3.86773 3.35409 3.67329 3.52075 3.52051C3.67353 3.36773 3.86797 3.29134 4.10409 3.29134C4.3402 3.29134 4.53464 3.36773 4.68742 3.52051L5.87492 4.70801C6.0277 4.86079 6.10409 5.05523 6.10409 5.29134C6.10409 5.52745 6.0277 5.7219 5.87492 5.87467C5.70825 6.02745 5.51381 6.10384 5.29159 6.10384C5.06936 6.10384 4.87492 6.02745 4.70825 5.87467ZM15.2916 16.4788L14.1249 15.2913C13.9721 15.1247 13.8958 14.9268 13.8958 14.6976C13.8958 14.4684 13.9721 14.2775 14.1249 14.1247C14.2777 13.9719 14.4687 13.8955 14.6978 13.8955C14.927 13.8955 15.1249 13.9719 15.2916 14.1247L16.4791 15.2913C16.6458 15.4441 16.7256 15.6386 16.7187 15.8747C16.7117 16.1108 16.6319 16.3122 16.4791 16.4788C16.3124 16.6455 16.111 16.7288 15.8749 16.7288C15.6388 16.7288 15.4444 16.6455 15.2916 16.4788ZM1.66659 10.833C1.43047 10.833 1.23256 10.7531 1.07284 10.5934C0.913113 10.4337 0.833252 10.2358 0.833252 9.99967C0.833252 9.76356 0.913113 9.56565 1.07284 9.40592C1.23256 9.2462 1.43047 9.16634 1.66659 9.16634H3.33325C3.56936 9.16634 3.76728 9.2462 3.927 9.40592C4.08672 9.56565 4.16659 9.76356 4.16659 9.99967C4.16659 10.2358 4.08672 10.4337 3.927 10.5934C3.76728 10.7531 3.56936 10.833 3.33325 10.833H1.66659ZM3.52075 16.4788C3.36797 16.3261 3.29159 16.1316 3.29159 15.8955C3.29159 15.6594 3.36797 15.465 3.52075 15.3122L4.70825 14.1247C4.86103 13.9719 5.052 13.8955 5.28117 13.8955C5.51034 13.8955 5.70825 13.9719 5.87492 14.1247C6.04159 14.2913 6.12492 14.4893 6.12492 14.7184C6.12492 14.9476 6.04159 15.1455 5.87492 15.3122L4.70825 16.4788C4.54159 16.6455 4.3402 16.7288 4.10409 16.7288C3.86797 16.7288 3.67353 16.6455 3.52075 16.4788ZM9.99992 14.9997C8.61103 14.9997 7.43047 14.5136 6.45825 13.5413C5.48603 12.5691 4.99992 11.3886 4.99992 9.99967C4.99992 8.61079 5.48603 7.43023 6.45825 6.45801C7.43047 5.48579 8.61103 4.99967 9.99992 4.99967C11.3888 4.99967 12.5694 5.48579 13.5416 6.45801C14.5138 7.43023 14.9999 8.61079 14.9999 9.99967C14.9999 11.3886 14.5138 12.5691 13.5416 13.5413C12.5694 14.5136 11.3888 14.9997 9.99992 14.9997ZM9.99992 13.333C10.9166 13.333 11.7013 13.0066 12.3541 12.3538C13.0069 11.7011 13.3333 10.9163 13.3333 9.99967C13.3333 9.08301 13.0069 8.29829 12.3541 7.64551C11.7013 6.99273 10.9166 6.66634 9.99992 6.66634C9.08325 6.66634 8.29853 6.99273 7.64575 7.64551C6.99297 8.29829 6.66659 9.08301 6.66659 9.99967C6.66659 10.9163 6.99297 11.7011 7.64575 12.3538C8.29853 13.0066 9.08325 13.333 9.99992 13.333Z" fill="white"/>
</g>
</svg>
