<svg width="40" height="40" viewBox="0 0 40 40" fill="none" xmlns="http://www.w3.org/2000/svg">
<g clip-path="url(#clip0_996_25250)">
<path d="M6.30306 2.66667C10.5231 2.66667 18.2664 6.15333 26.0564 13.9433C30.7064 18.5933 34.2764 23.7067 36.1131 28.34C37.5964 32.0867 37.7297 35.1967 36.4664 36.4633C35.8897 37.04 34.9597 37.3333 33.6997 37.3333C29.4797 37.3333 21.7364 33.8467 13.9464 26.0567C9.2964 21.4067 5.7264 16.2933 3.88973 11.66C2.4064 7.91333 2.27306 4.80333 3.5364 3.53667C4.11306 2.96 5.04306 2.66667 6.30306 2.66667ZM6.30306 0C4.36973 0 2.76973 0.53 1.64973 1.65C-2.73694 6.03667 1.92306 17.8067 12.0597 27.9433C19.6064 35.49 28.0631 40.0033 33.6997 40.0033C35.6331 40.0033 37.2331 39.4733 38.3531 38.3533C42.7397 33.9667 38.0797 22.1967 27.9431 12.06C20.3931 4.51 11.9397 0 6.30306 0Z" fill="white"/>
<path d="M33.6964 2.66667C34.9564 2.66667 35.8864 2.96 36.4631 3.53667C37.7297 4.80333 37.5931 7.91333 36.1097 11.66C34.2764 16.2933 30.7031 21.4067 26.0531 26.0567C18.2631 33.8467 10.5197 37.3333 6.29973 37.3333C5.03973 37.3333 4.10973 37.04 3.53306 36.4633C2.2664 35.1967 2.40306 32.0867 3.8864 28.34C5.71973 23.7067 9.29306 18.5933 13.9431 13.9433C21.7331 6.15333 29.4797 2.66667 33.6964 2.66667ZM33.6964 0C28.0597 0 19.6064 4.51 12.0597 12.06C1.92306 22.1933 -2.73694 33.9633 1.64973 38.35C2.76973 39.47 4.36973 40 6.30306 40C11.9397 40 20.3931 35.49 27.9431 27.94C38.0764 17.8067 42.7364 6.03333 38.3531 1.64667C37.2297 0.53 35.6297 0 33.6964 0Z" fill="white"/>
<path d="M17.3102 20.9268L14.4636 19.9701L17.3102 18.9901V16.2734L10.9136 18.8768V21.0501L17.3102 23.6534V20.9268Z" fill="white"/>
<path d="M17.0737 25.0676H19.3204L22.7571 14.1543H20.5037L17.0737 25.0676Z" fill="white"/>
<path d="M22.7603 16.2773V18.9973L25.5936 19.9607L22.7603 20.944V23.6607L29.1236 21.054V18.884L22.7603 16.2773Z" fill="white"/>
</g>
<defs>
<clipPath id="clip0_996_25250">
<rect width="40" height="40" fill="white"/>
</clipPath>
</defs>
</svg>
