<svg width="48" height="48" viewBox="0 0 48 48" fill="none" xmlns="http://www.w3.org/2000/svg">
<path d="M42.5162 2.13681H4.09217C2.98417 2.13681 2.07617 3.04481 2.07617 4.15281V11.9608C2.07617 13.0688 2.98417 13.9768 4.09217 13.9768H42.5162C43.6242 13.9768 44.5322 13.0688 44.5322 11.9608V4.14881C44.5322 3.04081 43.6242 2.13281 42.5162 2.13281V2.13681ZM18.0962 9.03681C18.0962 9.49681 17.7242 9.86881 17.2642 9.86881H6.38417C5.92417 9.86881 5.55217 9.49681 5.55217 9.03681V7.07681C5.55217 6.61681 5.92417 6.24481 6.38417 6.24481H17.2602C17.7202 6.24481 18.0922 6.61681 18.0922 7.07681V9.03681H18.0962ZM32.8002 7.87281C32.4762 7.87281 32.2162 7.61281 32.2162 7.28881C32.2162 6.96481 32.4762 6.70481 32.8002 6.70481C33.1242 6.70481 33.3842 6.96481 33.3842 7.28881C33.3842 7.61281 33.1242 7.87281 32.8002 7.87281ZM33.9682 9.40881C33.6442 9.40881 33.3842 9.14881 33.3842 8.82481C33.3842 8.50081 33.6442 8.24081 33.9682 8.24081C34.2922 8.24081 34.5522 8.50081 34.5522 8.82481C34.5522 9.14881 34.2922 9.40881 33.9682 9.40881ZM35.0042 7.87281C34.6802 7.87281 34.4202 7.61281 34.4202 7.28881C34.4202 6.96481 34.6802 6.70481 35.0042 6.70481C35.3282 6.70481 35.5882 6.96481 35.5882 7.28881C35.5882 7.61281 35.3282 7.87281 35.0042 7.87281ZM36.1722 9.40881C35.8482 9.40881 35.5882 9.14881 35.5882 8.82481C35.5882 8.50081 35.8482 8.24081 36.1722 8.24081C36.4962 8.24081 36.7562 8.50081 36.7562 8.82481C36.7562 9.14881 36.4962 9.40881 36.1722 9.40881ZM37.2082 7.87281C36.8842 7.87281 36.6242 7.61281 36.6242 7.28881C36.6242 6.96481 36.8842 6.70481 37.2082 6.70481C37.5322 6.70481 37.7922 6.96481 37.7922 7.28881C37.7922 7.61281 37.5322 7.87281 37.2082 7.87281ZM38.3762 9.40881C38.0522 9.40881 37.7922 9.14881 37.7922 8.82481C37.7922 8.50081 38.0522 8.24081 38.3762 8.24081C38.7002 8.24081 38.9602 8.50081 38.9602 8.82481C38.9602 9.14881 38.7002 9.40881 38.3762 9.40881ZM39.4122 7.87281C39.0882 7.87281 38.8282 7.61281 38.8282 7.28881C38.8282 6.96481 39.0882 6.70481 39.4122 6.70481C39.7362 6.70481 39.9962 6.96481 39.9962 7.28881C39.9962 7.61281 39.7362 7.87281 39.4122 7.87281ZM40.5802 9.40881C40.2562 9.40881 39.9962 9.14881 39.9962 8.82481C39.9962 8.50081 40.2562 8.24081 40.5802 8.24081C40.9042 8.24081 41.1642 8.50081 41.1642 8.82481C41.1642 9.14881 40.9042 9.40881 40.5802 9.40881Z" fill="white"/>
<path d="M24.0322 37.0844C24.0322 33.6724 25.3362 30.5644 27.4722 28.2324H4.09217C2.98417 28.2324 2.07617 29.1404 2.07617 30.2484V38.0564C2.07617 39.1644 2.98417 40.0724 4.09217 40.0724H24.3802C24.1562 39.1124 24.0362 38.1124 24.0362 37.0884L24.0322 37.0844ZM18.0922 35.1324C18.0922 35.5924 17.7202 35.9644 17.2602 35.9644H6.38417C5.92417 35.9644 5.55217 35.5924 5.55217 35.1324V33.1724C5.55217 32.7124 5.92417 32.3404 6.38417 32.3404H17.2602C17.7202 32.3404 18.0922 32.7124 18.0922 33.1724V35.1324Z" fill="white"/>
<path d="M37.1481 47.8871C43.1121 47.8871 47.9481 43.0511 47.9481 37.0871C47.9481 31.1231 43.1121 26.2871 37.1481 26.2871C31.1841 26.2871 26.3481 31.1231 26.3481 37.0871C26.3481 43.0511 31.1841 47.8871 37.1481 47.8871ZM37.1481 28.3631C41.9601 28.3631 45.8721 32.2751 45.8721 37.0871C45.8721 41.8991 41.9601 45.8111 37.1481 45.8111C32.3361 45.8111 28.4241 41.8991 28.4241 37.0871C28.4241 32.2751 32.3361 28.3631 37.1481 28.3631Z" fill="white"/>
<path d="M33.3403 40.9662L40.7683 35.2902L41.5523 37.4742C41.7483 38.0142 42.3443 38.2942 42.8803 38.0982C43.4203 37.9022 43.7003 37.3102 43.5043 36.7702L42.2363 33.2542C42.2283 33.2342 42.2163 33.2142 42.2083 33.1942C42.2003 33.1742 42.1923 33.1542 42.1843 33.1382C42.1203 33.0142 42.0363 32.9102 41.9323 32.8222C41.9203 32.8102 41.9043 32.7982 41.8923 32.7902C41.8363 32.7462 41.7803 32.7102 41.7163 32.6782C41.7083 32.6782 41.7003 32.6742 41.6923 32.6702C41.6363 32.6422 41.5763 32.6222 41.5163 32.6102C41.5003 32.6062 41.4843 32.6022 41.4643 32.5982C41.3963 32.5862 41.3283 32.5742 41.2563 32.5742H36.1043C35.5323 32.5742 35.0643 33.0382 35.0643 33.6142C35.0643 34.1902 35.5283 34.6542 36.1043 34.6542H38.1883L32.0763 39.3262C31.6203 39.6742 31.5323 40.3262 31.8803 40.7822C32.2283 41.2382 32.8803 41.3262 33.3363 40.9782L33.3403 40.9662Z" fill="white"/>
<path d="M37.1482 23.9716C39.7562 23.9716 42.1882 24.7356 44.2282 26.0516C44.4162 25.7476 44.5282 25.3916 44.5282 25.0076V17.1996C44.5282 16.0916 43.6202 15.1836 42.5122 15.1836H4.09217C2.98417 15.1836 2.07617 16.0916 2.07617 17.1996V25.0076C2.07617 26.1156 2.98417 27.0236 4.09217 27.0236H28.7402C31.0162 25.1196 33.9482 23.9716 37.1482 23.9716ZM40.5762 21.2876C40.9002 21.2876 41.1602 21.5476 41.1602 21.8716C41.1602 22.1956 40.9002 22.4556 40.5762 22.4556C40.2522 22.4556 39.9922 22.1956 39.9922 21.8716C39.9922 21.5476 40.2522 21.2876 40.5762 21.2876ZM39.4082 19.7516C39.7322 19.7516 39.9922 20.0116 39.9922 20.3356C39.9922 20.6596 39.7322 20.9196 39.4082 20.9196C39.0842 20.9196 38.8242 20.6596 38.8242 20.3356C38.8242 20.0116 39.0842 19.7516 39.4082 19.7516ZM38.3722 21.2876C38.6962 21.2876 38.9562 21.5476 38.9562 21.8716C38.9562 22.1956 38.6962 22.4556 38.3722 22.4556C38.0482 22.4556 37.7882 22.1956 37.7882 21.8716C37.7882 21.5476 38.0482 21.2876 38.3722 21.2876ZM37.2042 19.7516C37.5282 19.7516 37.7882 20.0116 37.7882 20.3356C37.7882 20.6596 37.5282 20.9196 37.2042 20.9196C36.8802 20.9196 36.6202 20.6596 36.6202 20.3356C36.6202 20.0116 36.8802 19.7516 37.2042 19.7516ZM36.1682 21.2876C36.4922 21.2876 36.7522 21.5476 36.7522 21.8716C36.7522 22.1956 36.4922 22.4556 36.1682 22.4556C35.8442 22.4556 35.5842 22.1956 35.5842 21.8716C35.5842 21.5476 35.8442 21.2876 36.1682 21.2876ZM35.0002 19.7516C35.3242 19.7516 35.5842 20.0116 35.5842 20.3356C35.5842 20.6596 35.3242 20.9196 35.0002 20.9196C34.6762 20.9196 34.4162 20.6596 34.4162 20.3356C34.4162 20.0116 34.6762 19.7516 35.0002 19.7516ZM33.9642 21.2876C34.2882 21.2876 34.5482 21.5476 34.5482 21.8716C34.5482 22.1956 34.2882 22.4556 33.9642 22.4556C33.6402 22.4556 33.3802 22.1956 33.3802 21.8716C33.3802 21.5476 33.6402 21.2876 33.9642 21.2876ZM32.7962 19.7516C33.1202 19.7516 33.3802 20.0116 33.3802 20.3356C33.3802 20.6596 33.1202 20.9196 32.7962 20.9196C32.4722 20.9196 32.2122 20.6596 32.2122 20.3356C32.2122 20.0116 32.4722 19.7516 32.7962 19.7516ZM17.2642 22.9156H6.38417C5.92417 22.9156 5.55217 22.5436 5.55217 22.0836V20.1236C5.55217 19.6636 5.92417 19.2916 6.38417 19.2916H17.2602C17.7202 19.2916 18.0922 19.6636 18.0922 20.1236V22.0836C18.0922 22.5436 17.7202 22.9156 17.2602 22.9156H17.2642Z" fill="white"/>
</svg>
