<svg xmlns="http://www.w3.org/2000/svg" viewBox="0 0 44.98 38.98"><defs><style>.cls-1{fill:#fff;}</style></defs><g id="图层_2" data-name="图层 2"><g id="图层_1-2" data-name="图层 1"><path class="cls-1" d="M21,19.49a.9.9,0,0,1-.28.66l-7.12,6.56a.92.92,0,0,1-1.32,0,.88.88,0,0,1-.28-.66V21H7.5a1.5,1.5,0,0,1,0-3H12V12.93a.9.9,0,0,1,.28-.66.92.92,0,0,1,1.32,0l7.12,6.56A.9.9,0,0,1,21,19.49Zm3,0a.9.9,0,0,0,.28.66l7.12,6.56a.88.88,0,0,0,.66.28.9.9,0,0,0,.66-.28.91.91,0,0,0,.27-.66V21h4.5a1.5,1.5,0,0,0,0-3H33V12.93a.93.93,0,0,0-.27-.66.92.92,0,0,0-1.32,0l-7.12,6.56A.9.9,0,0,0,24,19.49ZM18,3V9h3V3a3,3,0,0,0-3-3H3A3,3,0,0,0,0,3V36a3,3,0,0,0,3,3H18a3,3,0,0,0,3-3V30H18v6H3V3H18m9,0H42V36H27V30H24v6a3,3,0,0,0,3,3H42a3,3,0,0,0,3-3V3a3,3,0,0,0-3-3H27a3,3,0,0,0-3,3V9h3V3"/></g></g></svg>