<svg width="24" height="24" viewBox="0 0 24 24" fill="none" xmlns="http://www.w3.org/2000/svg">
<path d="M3.77143 18.9429C3.54857 18.9429 3.36446 18.8702 3.21909 18.7248C3.07303 18.5787 3 18.3943 3 18.1714C3 17.9486 3.07303 17.7641 3.21909 17.6181C3.36446 17.4727 3.54857 17.4 3.77143 17.4H7.88571C8.10857 17.4 8.29303 17.4727 8.43909 17.6181C8.58446 17.7641 8.65714 17.9486 8.65714 18.1714C8.65714 18.3943 8.58446 18.5787 8.43909 18.7248C8.29303 18.8702 8.10857 18.9429 7.88571 18.9429H3.77143ZM3.77143 6.6C3.54857 6.6 3.36446 6.52697 3.21909 6.38091C3.07303 6.23554 3 6.05143 3 5.82857C3 5.60571 3.07303 5.4216 3.21909 5.27623C3.36446 5.13017 3.54857 5.05714 3.77143 5.05714H12C12.2229 5.05714 12.4073 5.13017 12.5534 5.27623C12.6987 5.4216 12.7714 5.60571 12.7714 5.82857C12.7714 6.05143 12.6987 6.23554 12.5534 6.38091C12.4073 6.52697 12.2229 6.6 12 6.6H3.77143ZM12 21C11.7771 21 11.593 20.9273 11.4477 20.7819C11.3016 20.6359 11.2286 20.4514 11.2286 20.2286V16.1143C11.2286 15.8914 11.3016 15.707 11.4477 15.5609C11.593 15.4155 11.7771 15.3429 12 15.3429C12.2229 15.3429 12.4073 15.4155 12.5534 15.5609C12.6987 15.707 12.7714 15.8914 12.7714 16.1143V17.4H20.2286C20.4514 17.4 20.6359 17.4727 20.7819 17.6181C20.9273 17.7641 21 17.9486 21 18.1714C21 18.3943 20.9273 18.5787 20.7819 18.7248C20.6359 18.8702 20.4514 18.9429 20.2286 18.9429H12.7714V20.2286C12.7714 20.4514 12.6987 20.6359 12.5534 20.7819C12.4073 20.9273 12.2229 21 12 21ZM7.88571 14.8286C7.66286 14.8286 7.47874 14.7555 7.33337 14.6095C7.18731 14.4641 7.11429 14.28 7.11429 14.0571V12.7714H3.77143C3.54857 12.7714 3.36446 12.6984 3.21909 12.5523C3.07303 12.407 3 12.2229 3 12C3 11.7771 3.07303 11.5927 3.21909 11.4466C3.36446 11.3013 3.54857 11.2286 3.77143 11.2286H7.11429V9.94286C7.11429 9.72 7.18731 9.53554 7.33337 9.38949C7.47874 9.24411 7.66286 9.17143 7.88571 9.17143C8.10857 9.17143 8.29303 9.24411 8.43909 9.38949C8.58446 9.53554 8.65714 9.72 8.65714 9.94286V14.0571C8.65714 14.28 8.58446 14.4641 8.43909 14.6095C8.29303 14.7555 8.10857 14.8286 7.88571 14.8286ZM12 12.7714C11.7771 12.7714 11.593 12.6984 11.4477 12.5523C11.3016 12.407 11.2286 12.2229 11.2286 12C11.2286 11.7771 11.3016 11.5927 11.4477 11.4466C11.593 11.3013 11.7771 11.2286 12 11.2286H20.2286C20.4514 11.2286 20.6359 11.3013 20.7819 11.4466C20.9273 11.5927 21 11.7771 21 12C21 12.2229 20.9273 12.407 20.7819 12.5523C20.6359 12.6984 20.4514 12.7714 20.2286 12.7714H12ZM16.1143 8.65714C15.8914 8.65714 15.7073 8.58411 15.5619 8.43806C15.4159 8.29269 15.3429 8.10857 15.3429 7.88571V3.77143C15.3429 3.54857 15.4159 3.36411 15.5619 3.21806C15.7073 3.07269 15.8914 3 16.1143 3C16.3371 3 16.5216 3.07269 16.6677 3.21806C16.813 3.36411 16.8857 3.54857 16.8857 3.77143V5.05714H20.2286C20.4514 5.05714 20.6359 5.13017 20.7819 5.27623C20.9273 5.4216 21 5.60571 21 5.82857C21 6.05143 20.9273 6.23554 20.7819 6.38091C20.6359 6.52697 20.4514 6.6 20.2286 6.6H16.8857V7.88571C16.8857 8.10857 16.813 8.29269 16.6677 8.43806C16.5216 8.58411 16.3371 8.65714 16.1143 8.65714Z" fill="#5A5E72"/>
</svg>
