<svg width="48" height="48" viewBox="0 0 48 48" fill="none" xmlns="http://www.w3.org/2000/svg">
<path d="M24.0001 47.3337C23.0556 47.3337 22.264 47.0142 21.6251 46.3753C20.9862 45.7364 20.6667 44.9448 20.6667 44.0003V27.3337H4.00008C3.05564 27.3337 2.26397 27.0142 1.62508 26.3753C0.986192 25.7364 0.666748 24.9448 0.666748 24.0003C0.666748 23.0559 0.986192 22.2642 1.62508 21.6253C2.26397 20.9864 3.05564 20.667 4.00008 20.667H20.6667V4.00033C20.6667 3.05588 20.9862 2.26421 21.6251 1.62533C22.264 0.986437 23.0556 0.666992 24.0001 0.666992C24.9445 0.666992 25.7362 0.986437 26.3751 1.62533C27.014 2.26421 27.3334 3.05588 27.3334 4.00033V20.667H44.0001C44.9445 20.667 45.7362 20.9864 46.3751 21.6253C47.014 22.2642 47.3334 23.0559 47.3334 24.0003C47.3334 24.9448 47.014 25.7364 46.3751 26.3753C45.7362 27.0142 44.9445 27.3337 44.0001 27.3337H27.3334V44.0003C27.3334 44.9448 27.014 45.7364 26.3751 46.3753C25.7362 47.0142 24.9445 47.3337 24.0001 47.3337Z" fill="#C2C5D6"/>
</svg>
