<svg width="24" height="24" viewBox="0 0 24 24" fill="none" xmlns="http://www.w3.org/2000/svg">
<path fill-rule="evenodd" clip-rule="evenodd" d="M5.67991 10.4496C5.81457 10.5365 5.93012 10.6485 6.01989 10.7789L6.79399 11.9038C7.16953 12.4495 7.01731 13.1868 6.454 13.5506C6.25264 13.6806 6.01604 13.75 5.77403 13.75H4.22584C3.54883 13.75 3 13.2183 3 12.5625C3 12.328 3.07164 12.0988 3.20588 11.9038L3.97998 10.7789C4.35551 10.2332 5.1166 10.0858 5.67991 10.4496ZM19.6799 10.4496C19.8146 10.5365 19.9301 10.6485 20.0199 10.7789L20.794 11.9038C21.1695 12.4495 21.0173 13.1868 20.454 13.5506C20.2526 13.6806 20.016 13.75 19.774 13.75H18.2258C17.5488 13.75 17 13.2183 17 12.5625C17 12.328 17.0716 12.0988 17.2059 11.9038L17.98 10.7789C18.3555 10.2332 19.1166 10.0858 19.6799 10.4496ZM12.7742 10.25C13.4512 10.25 14 10.7817 14 11.4375C14 11.672 13.9284 11.9012 13.7941 12.0962L13.02 13.2211C12.6445 13.7668 11.8834 13.9142 11.3201 13.5504C11.1854 13.4635 11.0699 13.3515 10.9801 13.2211L10.206 12.0962C9.83047 11.5505 9.98269 10.8132 10.546 10.4494C10.7474 10.3194 10.984 10.25 11.226 10.25H12.7742Z" fill="white"/>
</svg>
