<svg width="64" height="64" viewBox="0 0 64 64" fill="none" xmlns="http://www.w3.org/2000/svg">
<circle cx="32" cy="32" r="32" fill="#616161"/>
<path d="M32 52.3629C20.7523 52.3629 11.6371 43.2477 11.6371 32C11.6371 20.7523 20.7523 11.6371 32 11.6371C37.6213 11.6371 42.7114 13.9165 46.3987 17.6013L54.6269 9.37309C48.8355 3.58163 40.8342 0 32 0C14.3265 0 0 14.3265 0 32C0 49.6735 14.3265 64 32 64C40.8367 64 48.8355 60.4184 54.6295 54.6295L46.4013 46.4013C42.7114 50.0835 37.6213 52.3629 32 52.3629Z" fill="#9E9E9E"/>
<path d="M52.3629 32.0001H42.1802C42.1802 26.3789 37.6213 21.8174 31.9974 21.8174C26.3736 21.8174 21.8172 26.3763 21.8172 32.0001C21.8172 34.7386 22.9002 37.2217 24.6614 39.0551L24.6537 39.0628L37.2603 51.6694L37.2629 51.672C45.9578 49.3513 52.3629 41.4248 52.3629 32.0001Z" fill="#424242"/>
<path d="M63.9974 32H52.3604C52.3604 41.4247 45.9526 49.3512 37.2628 51.6719L46.2491 60.6582C56.7697 55.416 63.9974 44.5525 63.9974 32Z" fill="#616161"/>
<path d="M32 63.6343C14.3884 63.6343 0.103143 49.4058 0.00257857 31.8174C0.00257857 31.8793 0 31.9386 0 32.0005C0 49.674 14.3265 64.0005 32 64.0005C49.6735 64.0005 64 49.674 64 32.0005C64 31.9386 63.9974 31.8793 63.9974 31.8174C63.8969 49.4058 49.609 63.6343 32 63.6343Z" fill="#212121" fill-opacity="0.1"/>
<path d="M37.2654 51.6719L37.5491 51.9555C46.0944 49.542 52.3629 41.6877 52.3629 32.3636V32C52.3629 41.4247 45.9552 49.3512 37.2654 51.6719Z" fill="white" fill-opacity="0.05"/>
<path d="M58.1816 29.0898H31.9988C30.3924 29.0898 29.0902 30.392 29.0902 31.9985C29.0902 33.6049 30.3924 34.9071 31.9988 34.9071H58.179C59.7855 34.9071 61.0876 33.6049 61.0876 31.9985C61.0902 30.392 59.788 29.0898 58.1816 29.0898Z" fill="#9E9E9E"/>
<path opacity="0.5" d="M58.1816 29.0898H31.9988C30.3924 29.0898 29.0902 30.392 29.0902 31.9985C29.0902 33.6049 30.3924 34.9071 31.9988 34.9071H58.179C59.7855 34.9071 61.0876 33.6049 61.0876 31.9985C61.0902 30.392 59.788 29.0898 58.1816 29.0898Z" fill="#BDBDBD"/>
<ellipse cx="5.81724" cy="31.9998" rx="2.18147" ry="2.18147" fill="#BDBDBD"/>
<ellipse cx="32" cy="5.81721" rx="2.18147" ry="2.18147" fill="#BDBDBD"/>
<circle cx="32" cy="58.1805" r="2.18147" fill="#BDBDBD"/>
<ellipse cx="13.455" cy="13.4862" rx="2.18147" ry="2.18147" fill="#BDBDBD"/>
<ellipse cx="13.455" cy="50.5447" rx="2.18147" ry="2.18147" fill="#BDBDBD"/>
<circle cx="50.545" cy="50.5447" r="2.18147" fill="#757575"/>
<path d="M32 29.4554H58.1802C59.7247 29.4554 60.9882 30.6621 61.0785 32.1835C61.0811 32.1216 61.0888 32.0623 61.0888 32.0004C61.0888 30.394 59.7866 29.0918 58.1802 29.0918H32C30.3935 29.0918 29.0914 30.394 29.0914 32.0004C29.0914 32.0623 29.0939 32.1216 29.1017 32.1835C29.1919 30.6621 30.4529 29.4554 32 29.4554Z" fill="white" fill-opacity="0.2"/>
<path d="M61.0785 32.1807C60.9831 33.6994 59.7221 34.9088 58.1802 34.9088H32C30.4554 34.9088 29.1919 33.702 29.1017 32.1807C29.0939 32.2425 29.0914 32.3019 29.0914 32.3612C29.0914 33.9676 30.3935 35.2698 32 35.2698H58.1802C59.7866 35.2698 61.0888 33.9676 61.0888 32.3612C61.0888 32.3019 61.0862 32.2425 61.0785 32.1807Z" fill="#212121" fill-opacity="0.2"/>
<path d="M32 12.0003C37.6213 12.0003 42.7114 14.2797 46.3987 17.9645L54.8048 9.5532C54.743 9.49131 54.6836 9.42942 54.6243 9.37012L46.3987 17.5983C42.7114 13.9135 37.6213 11.6341 32 11.6341C20.7523 11.6341 11.6371 20.7493 11.6371 31.997C11.6371 32.0589 11.6396 32.1182 11.6396 32.1801C11.7376 21.0175 20.8142 12.0003 32 12.0003Z" fill="#212121" fill-opacity="0.1"/>
<circle cx="32" cy="32" r="32" fill="url(#paint0_radial_169_18388)"/>
<defs>
<radialGradient id="paint0_radial_169_18388" cx="0" cy="0" r="1" gradientUnits="userSpaceOnUse" gradientTransform="translate(9.3842 9.31133) scale(63.8895)">
<stop stop-color="white" stop-opacity="0.1"/>
<stop offset="1" stop-color="white" stop-opacity="0.01"/>
</radialGradient>
</defs>
</svg>
