<svg width="20" height="20" viewBox="0 0 20 20" fill="none" xmlns="http://www.w3.org/2000/svg">
<path fill-rule="evenodd" clip-rule="evenodd" d="M9.99999 1.66699C14.6024 1.66699 18.3333 5.39795 18.3333 10.0003C18.3333 14.6027 14.6024 18.3337 9.99999 18.3337C5.39762 18.3337 1.66666 14.6027 1.66666 10.0003C1.66666 5.39795 5.39762 1.66699 9.99999 1.66699ZM9.99999 12.917C8.04016 12.917 6.26624 13.7129 4.98382 14.9992C6.26548 16.2874 8.03975 17.0837 9.99999 17.0837C11.9598 17.0837 13.7337 16.2877 15.0161 15.0015C13.7345 13.7133 11.9602 12.917 9.99999 12.917ZM9.99999 2.91699C6.08797 2.91699 2.91666 6.08831 2.91666 10.0003C2.91666 11.4999 3.38264 12.8906 4.17772 14.0356C5.68154 12.5704 7.73526 11.667 9.99999 11.667C12.2647 11.667 14.3184 12.5704 15.8204 14.0365L15.7008 14.2028L15.8094 14.0541C16.6123 12.9056 17.0833 11.508 17.0833 10.0003C17.0833 6.08831 13.912 2.91699 9.99999 2.91699ZM9.99999 4.16699C11.8409 4.16699 13.3333 5.65938 13.3333 7.50033C13.3333 9.34127 11.8409 10.8337 9.99999 10.8337C8.15904 10.8337 6.66666 9.34127 6.66666 7.50033C6.66666 5.65938 8.15904 4.16699 9.99999 4.16699ZM9.99999 5.41699C8.8494 5.41699 7.91666 6.34973 7.91666 7.50033C7.91666 8.65092 8.8494 9.58366 9.99999 9.58366C11.1506 9.58366 12.0833 8.65092 12.0833 7.50033C12.0833 6.34973 11.1506 5.41699 9.99999 5.41699Z" fill="white"/>
</svg>
