<svg width="40" height="40" viewBox="0 0 40 40" fill="none" xmlns="http://www.w3.org/2000/svg">
<rect width="40" height="40" rx="20" fill="#F3F4F7"/>
<mask id="mask0_169_18389" style="mask-type:alpha" maskUnits="userSpaceOnUse" x="8" y="8" width="24" height="24">
<rect x="8" y="8" width="24" height="24" fill="#8D91A5"/>
</mask>
<g mask="url(#mask0_169_18389)">
<path d="M15.15 29.1C14.9 28.85 14.775 28.5542 14.775 28.2125C14.775 27.8708 14.9 27.575 15.15 27.325L22.475 20L15.125 12.65C14.8917 12.4167 14.775 12.125 14.775 11.775C14.775 11.425 14.9 11.125 15.15 10.875C15.4 10.625 15.6958 10.5 16.0375 10.5C16.3792 10.5 16.675 10.625 16.925 10.875L25.325 19.3C25.425 19.4 25.4958 19.5083 25.5375 19.625C25.5792 19.7417 25.6 19.8667 25.6 20C25.6 20.1333 25.5792 20.2583 25.5375 20.375C25.4958 20.4917 25.425 20.6 25.325 20.7L16.9 29.125C16.6667 29.3583 16.3792 29.475 16.0375 29.475C15.6958 29.475 15.4 29.35 15.15 29.1Z" fill="#8D91A5"/>
</g>
</svg>
