<svg width="32" height="32" viewBox="0 0 32 32" fill="none" xmlns="http://www.w3.org/2000/svg">
<mask id="mask0_169_18167" style="mask-type:alpha" maskUnits="userSpaceOnUse" x="0" y="0" width="32" height="32">
<rect width="32" height="32" fill="#D9D9D9"/>
</mask>
<g mask="url(#mask0_169_18167)">
<path d="M7.79996 22.8003C8.93329 21.9337 10.2 21.2503 11.6 20.7503C13 20.2503 14.4666 20.0003 16 20.0003C17.5333 20.0003 19 20.2503 20.4 20.7503C21.8 21.2503 23.0666 21.9337 24.2 22.8003C24.9777 21.8892 25.5833 20.8559 26.0166 19.7003C26.45 18.5448 26.6666 17.3114 26.6666 16.0003C26.6666 13.0448 25.6277 10.5281 23.55 8.45033C21.4722 6.37255 18.9555 5.33366 16 5.33366C13.0444 5.33366 10.5277 6.37255 8.44996 8.45033C6.37218 10.5281 5.33329 13.0448 5.33329 16.0003C5.33329 17.3114 5.54996 18.5448 5.98329 19.7003C6.41663 20.8559 7.02218 21.8892 7.79996 22.8003ZM16 17.3337C14.6888 17.3337 13.5833 16.8837 12.6833 15.9837C11.7833 15.0837 11.3333 13.9781 11.3333 12.667C11.3333 11.3559 11.7833 10.2503 12.6833 9.35033C13.5833 8.45033 14.6888 8.00033 16 8.00033C17.3111 8.00033 18.4166 8.45033 19.3166 9.35033C20.2166 10.2503 20.6666 11.3559 20.6666 12.667C20.6666 13.9781 20.2166 15.0837 19.3166 15.9837C18.4166 16.8837 17.3111 17.3337 16 17.3337ZM16 29.3337C14.1555 29.3337 12.4222 28.9837 10.8 28.2837C9.17774 27.5837 7.76663 26.6337 6.56663 25.4337C5.36663 24.2337 4.41663 22.8225 3.71663 21.2003C3.01663 19.5781 2.66663 17.8448 2.66663 16.0003C2.66663 14.1559 3.01663 12.4225 3.71663 10.8003C4.41663 9.1781 5.36663 7.76699 6.56663 6.56699C7.76663 5.36699 9.17774 4.41699 10.8 3.71699C12.4222 3.01699 14.1555 2.66699 16 2.66699C17.8444 2.66699 19.5777 3.01699 21.2 3.71699C22.8222 4.41699 24.2333 5.36699 25.4333 6.56699C26.6333 7.76699 27.5833 9.1781 28.2833 10.8003C28.9833 12.4225 29.3333 14.1559 29.3333 16.0003C29.3333 17.8448 28.9833 19.5781 28.2833 21.2003C27.5833 22.8225 26.6333 24.2337 25.4333 25.4337C24.2333 26.6337 22.8222 27.5837 21.2 28.2837C19.5777 28.9837 17.8444 29.3337 16 29.3337Z" fill="#FF7900"/>
</g>
</svg>
