<svg width="24" height="24" viewBox="0 0 24 24" fill="none" xmlns="http://www.w3.org/2000/svg">
<g clip-path="url(#clip0_28_21960)">
<path d="M9.19766 3.96191H4.54651C3.69293 3.96319 3.00129 4.65485 3 5.50846V10.1598C3.00129 11.0134 3.69293 11.705 4.54651 11.7063H9.19764C10.0512 11.705 10.7428 11.0134 10.7441 10.1598V5.50846C10.7428 4.65486 10.0512 3.9632 9.19766 3.96191ZM9.19766 13.2552H4.54651C3.69293 13.2565 3.00128 13.9481 3 14.8018V19.4531C3.00129 20.3067 3.69293 20.9983 4.54651 20.9996H9.19764C10.0512 20.9983 10.7428 20.3067 10.7441 19.4531V14.8018C10.7429 13.9481 10.0512 13.2565 9.19766 13.2552ZM18.4906 13.2552H13.8395C12.9859 13.2565 12.2943 13.9481 12.293 14.8018V19.4531C12.2943 20.3067 12.9859 20.9983 13.8395 20.9996H18.4906C19.3442 20.9983 20.0358 20.3067 20.0371 19.4531V14.8018C20.0359 13.9481 19.3442 13.2565 18.4906 13.2552Z" fill="#5A5E72"/>
<path d="M20.5474 6.74022L17.2585 3.45195C16.6541 2.84935 15.676 2.84935 15.0716 3.45195L14.6162 3.90733L11.7827 6.74022C11.4929 7.02904 11.3304 7.42153 11.3311 7.83064C11.3288 8.24188 11.4914 8.63691 11.7826 8.92725L12.238 9.38261L14.6162 11.7625L15.0716 12.2178C15.6757 12.8215 16.6548 12.8212 17.2585 12.2171L20.0921 9.38261L20.5475 8.92801C21.1509 8.32388 21.1508 7.34435 20.5474 6.74022Z" fill="#FF7900"/>
</g>
<defs>
<clipPath id="clip0_28_21960">
<rect width="24" height="24" fill="white"/>
</clipPath>
</defs>
</svg>
