<?xml version="1.0" encoding="UTF-8"?>
<svg width="64px" height="64px" viewBox="0 0 64 64" version="1.1" xmlns="http://www.w3.org/2000/svg" xmlns:xlink="http://www.w3.org/1999/xlink">
    <title>主车转弯</title>
    <g id="主车转弯" stroke="none" stroke-width="1" fill="none" fill-rule="evenodd">
        <g id="编组" transform="translate(18.088011, 13.000000)" fill="#FFFFFF" fill-rule="nonzero">
            <path d="M16.6012968,0.170779917 L16.6012968,5.92050723 C16.6012968,6.29944574 16.2912562,6.60948634 15.9123177,6.60948634 L4.13387469,6.60948634 C1.68918959,6.60948634 0,8.53001562 0,10.743361 L0,38.8277552 C0,38.9224898 0.0775101503,39 0.172244779,39 L3.96162991,39 C4.05636454,39 4.13387469,38.9224898 4.13387469,38.8277552 L4.13387469,11.4323401 C4.13387469,11.0534016 4.44391529,10.743361 4.8228538,10.743361 L15.9123177,10.743361 C16.2912562,10.743361 16.6012968,11.0534016 16.6012968,11.4323401 L16.6012968,17.1820675 C16.6012968,17.3155572 16.7433988,17.3973734 16.859664,17.3327816 L29.7367789,8.82713786 C29.8530441,8.76254607 29.8530441,8.59460741 29.7367789,8.53001562 L16.859664,0.024371855 C16.7433988,-0.0445260567 16.6012968,0.0415963328 16.6012968,0.170779917 Z" id="路径"></path>
        </g>
    </g>
</svg>