<?xml version="1.0" encoding="UTF-8"?>
<svg width="64px" height="64px" viewBox="0 0 64 64" version="1.1" xmlns="http://www.w3.org/2000/svg" xmlns:xlink="http://www.w3.org/1999/xlink">
    <title>主车减速</title>
    <g id="主车减速" stroke="none" stroke-width="1" fill="none" fill-rule="evenodd">
        <g id="编组" transform="translate(9.000001, 9.000000)" fill="#FFFFFF" fill-rule="nonzero">
            <path d="M23.0039759,-1.38000044 C9.53842079,-1.38262005 -1.37737932,9.52949151 -1.38000044,22.9960231 C-1.38261957,36.4620261 9.52993918,47.3773788 22.996023,47.3800004 C36.4607471,47.3826198 47.3773781,36.4688675 47.3800004,23.0039769 C47.3825925,9.67425868 36.686405,-1.15878439 23.4071597,-1.3766554 L23.0039759,-1.38000044 Z M23.0034388,1.37999997 C34.9444223,1.38232424 44.6223223,11.0634204 44.6200004,23.0034398 C44.6176749,34.9441019 34.9369008,44.6223233 22.9965601,44.6200004 C11.0546999,44.6176755 1.37767692,34.938175 1.37999955,22.9965601 C1.38230075,11.1737254 10.8695911,1.57143558 22.6458882,1.38282654 L23.0034388,1.37999997 Z" id="路径"></path>
            <path d="M18.0415841,16.6967693 C17.9804424,15.9956152 18.4112888,15.345035 19.0807045,15.1276923 C19.7501203,14.9103495 20.4809629,15.1837579 20.8433595,15.7871019 L25.5190496,23.5715801 C25.660048,23.8058195 25.7737565,24.0537038 25.8579007,24.3152332 C26.4742003,26.2096154 26.0642224,29.9740304 24.1698402,30.5880559 C23.910585,30.6722001 23.6422332,30.7267802 23.369333,30.751796 C21.383984,30.9246328 19.0058315,27.7287598 18.8329947,25.7434109 L18.0415841,16.6967693 L18.0415841,16.6967693 Z" id="路径" transform="translate(22.080000, 22.906089) rotate(-10.000000) translate(-22.080000, -22.906089) "></path>
            <path d="M23.0034103,4.86464348 C29.3528883,4.86691881 34.9405199,8.13035036 38.1812098,13.0721181 L35.6500604,14.7277127 C32.9506226,10.6091938 28.2954,7.88928851 23.0034103,7.88701435 C17.6386473,7.88701435 12.9265705,10.6796931 10.2430519,14.893727 L7.691435,13.2722449 C10.9093832,8.21449458 16.5652398,4.86237047 23.0034103,4.86464348 Z" id="路径"></path>
        </g>
    </g>
</svg>