<?xml version="1.0" encoding="UTF-8"?>
<svg width="64px" height="64px" viewBox="0 0 64 64" version="1.1" xmlns="http://www.w3.org/2000/svg" xmlns:xlink="http://www.w3.org/1999/xlink">
    <title>主车匀速行驶</title>
    <g id="主车匀速行驶" stroke="none" stroke-width="1" fill="none" fill-rule="evenodd">
        <g id="编组" transform="translate(9.000001, 9.000000)" fill="#FFFFFF" fill-rule="nonzero">
            <path d="M23.0039759,-1.38000044 C9.53842079,-1.38262005 -1.37737932,9.52949151 -1.38000044,22.9960231 C-1.38261957,36.4620261 9.52993918,47.3773788 22.996023,47.3800004 C36.4607471,47.3826198 47.3773781,36.4688675 47.3800004,23.0039769 C47.3825925,9.67425868 36.686405,-1.15878439 23.4071597,-1.3766554 L23.0039759,-1.38000044 Z M23.0034388,1.37999997 C34.9444223,1.38232424 44.6223223,11.0634204 44.6200004,23.0034398 C44.6176749,34.9441019 34.9369008,44.6223233 22.9965601,44.6200004 C11.0546999,44.6176755 1.37767692,34.938175 1.37999955,22.9965601 C1.38230075,11.1737254 10.8695911,1.57143558 22.6458882,1.38282654 L23.0034388,1.37999997 Z" id="路径"></path>
            <path d="M18.7087757,16.6967693 C18.647634,15.9956152 19.0784803,15.345035 19.7478961,15.1276923 C20.4173118,14.9103495 21.1481545,15.1837579 21.5105511,15.7871019 L26.1862412,23.5715801 C26.3272396,23.8058195 26.440948,24.0537038 26.5250922,24.3152332 C27.1413919,26.2096154 26.731414,29.9740304 24.8370318,30.5880559 C24.5777766,30.6722001 24.3094247,30.7267802 24.0365245,30.751796 C22.0511756,30.9246328 19.6730231,27.7287598 19.5001863,25.7434109 L18.7087757,16.6967693 L18.7087757,16.6967693 Z" id="路径" transform="translate(22.747191, 22.906089) rotate(20.000000) translate(-22.747191, -22.906089) "></path>
            <path d="M23.0034103,4.86464348 C29.3528883,4.86691881 34.9405199,8.13035036 38.1812098,13.0721181 L35.6500604,14.7277127 C32.9506226,10.6091938 28.2954,7.88928851 23.0034103,7.88701435 C17.6386473,7.88701435 12.9265705,10.6796931 10.2430519,14.893727 L7.691435,13.2722449 C10.9093832,8.21449458 16.5652398,4.86237047 23.0034103,4.86464348 Z" id="路径"></path>
        </g>
    </g>
</svg>