<?xml version="1.0" encoding="UTF-8" standalone="no"?>
<svg
   width="64px"
   height="64px"
   viewBox="0 0 64 64"
   version="1.1"
   id="svg7"
   sodipodi:docname="主车左转弯.svg"
   inkscape:version="1.2.1 (9c6d41e410, 2022-07-14)"
   xmlns:inkscape="http://www.inkscape.org/namespaces/inkscape"
   xmlns:sodipodi="http://sodipodi.sourceforge.net/DTD/sodipodi-0.dtd"
   xmlns="http://www.w3.org/2000/svg"
   xmlns:svg="http://www.w3.org/2000/svg">
  <defs
     id="defs11" />
  <sodipodi:namedview
     id="namedview9"
     pagecolor="#ffffff"
     bordercolor="#000000"
     borderopacity="0.25"
     inkscape:showpageshadow="2"
     inkscape:pageopacity="0.0"
     inkscape:pagecheckerboard="0"
     inkscape:deskcolor="#d1d1d1"
     showgrid="false"
     inkscape:zoom="12.953125"
     inkscape:cx="30.687575"
     inkscape:cy="32.038601"
     inkscape:window-width="1920"
     inkscape:window-height="1009"
     inkscape:window-x="-8"
     inkscape:window-y="-8"
     inkscape:window-maximized="1"
     inkscape:current-layer="svg7" />
  <title
     id="title2">主车转弯</title>
  <g
     id="主车转弯"
     stroke="none"
     stroke-width="1"
     fill="none"
     fill-rule="evenodd">
    <g
       id="编组"
       transform="translate(18.088011, 13.000000)"
       fill="#FFFFFF"
       fill-rule="nonzero">
      <path
         d="M 13.222681,0.17077992 V 5.9205072 c 0,0.3789385 0.310041,0.6889791 0.688979,0.6889791 h 11.778443 c 2.444685,0 4.133875,1.9205293 4.133875,4.1338747 V 38.827755 C 29.823978,38.92249 29.746468,39 29.651733,39 h -3.789385 c -0.09474,0 -0.172245,-0.07751 -0.172245,-0.172245 V 11.43234 c 0,-0.378938 -0.31004,-0.688979 -0.688979,-0.688979 H 13.91166 c -0.378938,0 -0.688979,0.310041 -0.688979,0.688979 v 5.749727 c 0,0.13349 -0.142102,0.215306 -0.258367,0.150715 L 0.0871989,8.8271379 c -0.1162652,-0.064592 -0.1162652,-0.2325305 0,-0.2971223 L 12.964314,0.02437186 c 0.116265,-0.06889792 0.258367,0.01722447 0.258367,0.14640806 z"
         id="路径" />
    </g>
  </g>
</svg>
