<?xml version="1.0" encoding="UTF-8"?>
<svg width="64px" height="64px" viewBox="0 0 64 64" version="1.1" xmlns="http://www.w3.org/2000/svg" xmlns:xlink="http://www.w3.org/1999/xlink">
    <title>急刹车</title>
    <g id="主车急刹车" stroke="none" stroke-width="1" fill="none" fill-rule="evenodd">
        <g id="编组" transform="translate(26.225475, 48.068894)" fill="#FFFFFF" fill-rule="nonzero">
            <path d="M1.76385223,0 L28.1597258,0 C29.6230365,0 30.2201542,0 30.2201542,2 C30.2201542,4 29.6230365,4 28.1597258,4 L1.76385223,4 C0.300541539,4 0,4 0,2 C0,0 0.300541534,0 1.76385223,0 Z" id="路径"></path>
        </g>
        <g id="编组" transform="translate(34.438877, 27.630583) rotate(-345.000000) translate(-34.438877, -27.630583) translate(9.820708, 13.880583)" fill="#FFFFFF" fill-rule="nonzero">
            <path d="M43.9820142,10.4365415 L38.0844271,9.98397573 C37.8529926,9.98397573 37.6323225,9.89247838 37.4708566,9.72563027 L28.1919487,0.258345464 C28.0304828,0.0914973517 27.8098127,-4.47641924e-13 27.5783782,-4.47641924e-13 L9.83865641,-4.47641924e-13 C9.60183973,-4.47641924e-13 9.37578745,0.0968795489 9.21432154,0.269109858 L0.236816675,9.73101246 C0.0861151546,9.89247838 -2.30926389e-13,10.1023841 -2.30926389e-13,10.3230542 L-2.30926389e-13,20.9552483 C-2.30926389e-13,21.4288816 0.382135998,21.8163998 0.861151546,21.8163998 L4.06894105,21.8163998 C4.06894105,24.9488385 6.62010251,27.5 9.75254125,27.5 C12.88498,27.5 15.4361415,24.9488385 15.4361415,21.8163998 L33.3158004,21.8163998 C33.3158004,24.9488385 35.8669619,27.5 38.9994006,27.5 C42.1318394,27.5 44.6830008,24.9488385 44.6830008,21.8163998 L48.3751881,21.8163998 C48.8488214,21.8163998 49.2363396,21.4342638 49.2363396,20.9552483 L49.2363396,16.1095182 C49.2363396,13.136063 46.946753,10.664048 43.9820142,10.4365415 Z M9.75254125,24.7443151 C8.13788211,24.7443151 6.824626,23.4310589 6.824626,21.8163998 C6.824626,20.2017407 8.13788211,18.8884845 9.75254125,18.8884845 C11.3672004,18.8884845 12.6804565,20.2017407 12.6804565,21.8163998 C12.6804565,23.4310589 11.3672004,24.7443151 9.75254125,24.7443151 Z M16.9485389,9.98397573 L6.45863659,9.98397573 C5.70512899,9.98397573 5.31761079,9.07976661 5.83430172,8.5361647 L11.437169,2.63189441 C11.5986349,2.4596641 11.8246872,2.36278455 12.0615038,2.36278455 L16.9539211,2.36278455 L16.9539211,9.98397573 L16.9485389,9.98397573 Z M31.2221257,9.98397573 L19.7042238,9.98397573 L19.7042238,2.35740236 L25.4308816,2.35740236 C25.6623161,2.35740236 25.8829861,2.44889971 26.0444521,2.61574782 L31.830314,8.5200181 C32.3631515,9.06362002 31.9810155,9.98397573 31.2221257,9.98397573 L31.2221257,9.98397573 Z M38.9994006,24.7443151 C37.3847415,24.7443151 36.0714854,23.4310589 36.0714854,21.8163998 C36.0714854,20.2017407 37.3847415,18.8884845 38.9994006,18.8884845 C40.6140598,18.8884845 41.9273159,20.2017407 41.9273159,21.8163998 C41.9273159,23.4310589 40.6140598,24.7443151 38.9994006,24.7443151 Z" id="形状" transform="translate(24.618170, 13.750000) rotate(-360.000000) translate(-24.618170, -13.750000) "></path>
        </g>
    </g>
</svg>