<?xml version="1.0" encoding="UTF-8"?>
<svg width="64px" height="64px" viewBox="0 0 64 64" version="1.1" xmlns="http://www.w3.org/2000/svg" xmlns:xlink="http://www.w3.org/1999/xlink">
    <title>主车跟随前车</title>
    <g id="主车跟随前车" stroke="none" stroke-width="1" fill="none" fill-rule="evenodd">
        <g id="编组" transform="translate(-6.000000, 6.304146)" fill="#FFFFFF" fill-rule="nonzero">
            <polygon id="路径" points="12.5889665 50.878164 12.7004936 0.492414279 14.6706728 0.513533062 14.5572435 50.9005669"></polygon>
            <polygon id="路径" points="61.0880815 0.512248877 63.0582607 0.491130093 63.158238 50.8872281 61.1890783 50.9005669"></polygon>
            <path d="M36.933897,2.426403 L34.9645975,2.426403 L34.9645975,10.480798 L36.933897,10.480798 L36.933897,2.426403 Z M36.933897,15.6321504 L34.9645975,15.6321504 L34.9645975,23.6865454 L36.933897,23.6865454 L36.933897,15.6321504 Z M36.933897,42.0436453 L34.9645975,42.0436453 L34.9645975,50.0980403 L36.933897,50.0980403 L36.933897,42.0436453 Z M36.933897,29.0436453 L34.9645975,29.0436453 L34.9645975,37.0980403 L36.933897,37.0980403 L36.933897,29.0436453 Z" id="形状"></path>
        </g>
        <path d="M41.1657426,33.2535778 C42.5876612,33.0410417 44.0332742,33.0410417 45.4551928,33.2535778 C46.4550646,33.4535522 47.4549364,33.6135317 48.3948159,33.8734983 C49.0941501,34.0516834 49.6529737,34.5765245 49.8746262,35.2633202 C50.2812408,36.4098399 50.7078528,37.5463609 51.1544622,38.6728831 C51.2344519,38.8628588 51.4744212,39.1428229 51.6144032,39.1228254 C52.4074848,38.98881 53.1623898,39.5128029 53.3141853,40.3026742 C53.3645814,40.5062417 53.3645814,40.7190272 53.3141853,40.9225947 L52.1743314,41.232555 C52.2449397,41.6293452 52.2916843,42.0300134 52.3143135,42.4324012 L52.3143135,47.9716911 C52.3014461,48.3066177 52.1823889,48.6287725 51.9743571,48.8915732 C50.9191814,49.0951195 49.8368316,49.1154136 48.7747672,48.9515655 C48.0348621,48.4816257 48.4948031,47.691727 48.2548339,47.051809 L38.5360797,47.051809 C38.3461041,47.7317218 38.2361182,48.8715757 38.0161464,48.9515655 C36.9312216,49.1417125 35.8214916,49.1417125 34.7365668,48.9515655 C34.5063538,48.6458477 34.3801975,48.2743873 34.376613,47.8917013 C34.3166206,47.0918039 34.3166206,46.3319013 34.3166206,45.5520013 C34.3166206,44.1021871 34.3166206,42.652373 34.376613,41.1925601 L33.3167488,40.912596 C33.2815522,40.75118 33.2815522,40.5840748 33.3167488,40.4226588 C33.6167104,39.6227613 34.0166591,39.0028408 35.0465271,39.0928293 C35.1665117,39.0928293 35.3964822,38.85286 35.4664732,38.6728831 C35.8486906,37.781675 36.1824678,36.8704631 36.4663451,35.943233 C36.8509052,34.5734214 38.0478009,33.5879772 39.4659605,33.4735496 C40.01589,33.3735624 40.585817,33.3035714 41.1357465,33.2135829 L41.1657426,33.2535778 Z M37.2756543,39.2739172 C41.2383228,40.1124657 45.3326191,40.1124657 49.2952876,39.2739172 C48.9552827,38.2539024 48.6152777,37.3441595 48.3763554,36.4252273 C48.2299637,35.7027797 47.5879119,35.1883648 46.8509279,35.2030475 C44.9487382,35.1203436 43.0373592,35.0560183 41.1351695,35.0376397 C40.5136703,35.0620037 39.8970176,35.1575849 39.2973051,35.3225087 C39.0209578,35.3791017 38.7791115,35.5447499 38.6264846,35.7819748 C38.1118826,36.8938827 37.725931,38.042548 37.2756543,39.2739172 Z M37.5962002,44.1521807 C37.9539422,44.1715208 38.312726,44.1514021 38.6660631,44.0921884 C38.9423759,44.0284266 39.1786183,43.8503362 39.3159798,43.6022512 C39.3659734,43.4522704 39.1360028,43.0823179 38.9360285,42.9923294 C38.1227105,42.6112756 37.288099,42.2774311 36.4363489,41.9924576 C36.0164027,41.8524755 35.5364643,41.8824717 35.4364771,42.472396 C35.2365027,43.3422845 35.4364771,43.822223 36.0863938,43.9622051 C36.5963284,44.0621922 37.0862656,44.0821897 37.6461938,44.1321833 L37.5962002,44.1521807 Z M49.1247224,44.1521807 C49.6512851,44.114614 50.1753572,44.0478532 50.6945211,43.9522063 C51.444425,43.7822281 51.2844455,43.1723063 51.2644481,42.6423743 C51.2444506,42.1124422 50.9644865,41.8624742 50.5545391,41.9824588 C49.5278796,42.287781 48.5252615,42.6687759 47.5549236,43.1223127 C47.11498,43.3322858 47.2749595,43.9122115 47.7748954,44.0221974 C48.2220204,44.0892594 48.672779,44.1293269 49.1247224,44.142182 L49.1247224,44.1521807 Z" id="形状" fill="#FF7C61" fill-rule="nonzero"></path>
        <path d="M41.1657426,12.2535778 C42.5876612,12.0410417 44.0332742,12.0410417 45.4551928,12.2535778 C46.4550646,12.4535522 47.4549364,12.6135317 48.3948159,12.8734983 C49.0941501,13.0516834 49.6529737,13.5765245 49.8746262,14.2633202 C50.2812408,15.4098399 50.7078528,16.5463609 51.1544622,17.6728831 C51.2344519,17.8628588 51.4744212,18.1428229 51.6144032,18.1228254 C52.4074848,17.98881 53.1623898,18.5128029 53.3141853,19.3026742 C53.3645814,19.5062417 53.3645814,19.7190272 53.3141853,19.9225947 L52.1743314,20.232555 C52.2449397,20.6293452 52.2916843,21.0300134 52.3143135,21.4324012 L52.3143135,26.9716911 C52.3014461,27.3066177 52.1823889,27.6287725 51.9743571,27.8915732 C50.9191814,28.0951195 49.8368316,28.1154136 48.7747672,27.9515655 C48.0348621,27.4816257 48.4948031,26.691727 48.2548339,26.051809 L38.5360797,26.051809 C38.3461041,26.7317218 38.2361182,27.8715757 38.0161464,27.9515655 C36.9312216,28.1417125 35.8214916,28.1417125 34.7365668,27.9515655 C34.5063538,27.6458477 34.3801975,27.2743873 34.376613,26.8917013 C34.3166206,26.0918039 34.3166206,25.3319013 34.3166206,24.5520013 C34.3166206,23.1021871 34.3166206,21.652373 34.376613,20.1925601 L33.3167488,19.912596 C33.2815522,19.75118 33.2815522,19.5840748 33.3167488,19.4226588 C33.6167104,18.6227613 34.0166591,18.0028408 35.0465271,18.0928293 C35.1665117,18.0928293 35.3964822,17.85286 35.4664732,17.6728831 C35.8486906,16.781675 36.1824678,15.8704631 36.4663451,14.943233 C36.8509052,13.5734214 38.0478009,12.5879772 39.4659605,12.4735496 C40.01589,12.3735624 40.585817,12.3035714 41.1357465,12.2135829 L41.1657426,12.2535778 Z M37.2756543,18.2739172 C41.2383228,19.1124657 45.3326191,19.1124657 49.2952876,18.2739172 C48.9552827,17.2539024 48.6152777,16.3441595 48.3763554,15.4252273 C48.2299637,14.7027797 47.5879119,14.1883648 46.8509279,14.2030475 C44.9487382,14.1203436 43.0373592,14.0560183 41.1351695,14.0376397 C40.5136703,14.0620037 39.8970176,14.1575849 39.2973051,14.3225087 C39.0209578,14.3791017 38.7791115,14.5447499 38.6264846,14.7819748 C38.1118826,15.8938827 37.725931,17.042548 37.2756543,18.2739172 Z M37.5962002,23.1521807 C37.9539422,23.1715208 38.312726,23.1514021 38.6660631,23.0921884 C38.9423759,23.0284266 39.1786183,22.8503362 39.3159798,22.6022512 C39.3659734,22.4522704 39.1360028,22.0823179 38.9360285,21.9923294 C38.1227105,21.6112756 37.288099,21.2774311 36.4363489,20.9924576 C36.0164027,20.8524755 35.5364643,20.8824717 35.4364771,21.472396 C35.2365027,22.3422845 35.4364771,22.822223 36.0863938,22.9622051 C36.5963284,23.0621922 37.0862656,23.0821897 37.6461938,23.1321833 L37.5962002,23.1521807 Z M49.1247224,23.1521807 C49.6512851,23.114614 50.1753572,23.0478532 50.6945211,22.9522063 C51.444425,22.7822281 51.2844455,22.1723063 51.2644481,21.6423743 C51.2444506,21.1124422 50.9644865,20.8624742 50.5545391,20.9824588 C49.5278796,21.287781 48.5252615,21.6687759 47.5549236,22.1223127 C47.11498,22.3322858 47.2749595,22.9122115 47.7748954,23.0221974 C48.2220204,23.0892594 48.672779,23.1293269 49.1247224,23.142182 L49.1247224,23.1521807 Z" id="形状" fill="#FFFFFF" fill-rule="nonzero"></path>
    </g>
</svg>