<svg xmlns="http://www.w3.org/2000/svg" viewBox="0 0 64 64"><defs><style>.cls-1{fill:none;}.cls-2{fill:#fff;}.cls-3{fill:#ff7c61;}</style></defs><title>主车换道</title><g id="图层_2" data-name="图层 2"><g id="图层_1-2" data-name="图层 1"><g id="主车换道"><path id="矩形" class="cls-1" d="M12,0H52A12,12,0,0,1,64,12V52A12,12,0,0,1,52,64H12A12,12,0,0,1,0,52V12A12,12,0,0,1,12,0Z"/><g id="编组"><polygon id="路径" class="cls-2" points="6.59 57.18 6.7 6.8 8.67 6.82 8.56 57.2 6.59 57.18"/><polygon class="cls-2" points="55.09 6.82 57.06 6.79 57.16 57.19 55.19 57.2 55.09 6.82"/><path id="形状" class="cls-2" d="M32.93,8.73H31v8.05h2Zm0,13.21H31v8h2Zm0,26.41H31v8h2Zm0-13H31v8h2Z"/></g><polygon id="路径-7" class="cls-2" points="17.08 29.59 34.79 29.59 34.79 32.6 17.08 32.6 17.08 29.59"/><path id="路径-" class="cls-2" d="M15.23,32.16a1.52,1.52,0,0,1-.1-2l.1-.11,5.66-5.66L23,26.5l-4.59,4.59L23,35.68l-2.13,2.14Z"/><path class="cls-3" d="M41.76,24.07a13.23,13.23,0,0,1,4.07,0c1,.19,1.9.34,2.79.58A2,2,0,0,1,50,26c.39,1.09.79,2.17,1.22,3.24.07.18.3.44.43.42a1.42,1.42,0,0,1,1.62,1.12,1.18,1.18,0,0,1,0,.59l-1.08.3a10.56,10.56,0,0,1,.13,1.13V38a1.52,1.52,0,0,1-.32.87A8.87,8.87,0,0,1,49,39c-.7-.45-.26-1.2-.49-1.8H39.27c-.18.64-.29,1.72-.5,1.8a9,9,0,0,1-3.11,0,1.66,1.66,0,0,1-.34-1c-.06-.76-.06-1.48-.06-2.22,0-1.37,0-2.75.06-4.13l-1-.27a.9.9,0,0,1,0-.46c.28-.76.66-1.35,1.64-1.26.11,0,.33-.23.39-.4a24.36,24.36,0,0,0,.95-2.59,3.24,3.24,0,0,1,2.85-2.35c.52-.09,1.06-.16,1.58-.24Zm-3.69,5.71a27.71,27.71,0,0,0,11.4,0c-.32-1-.64-1.83-.87-2.71a1.44,1.44,0,0,0-1.44-1.15c-1.81-.08-3.62-.14-5.43-.16A7.33,7.33,0,0,0,40,26a1,1,0,0,0-.64.43C38.86,27.52,38.5,28.61,38.07,29.78Zm.31,4.63a5.71,5.71,0,0,0,1-.06,1,1,0,0,0,.62-.47.71.71,0,0,0-.36-.57,21.69,21.69,0,0,0-2.37-1c-.4-.14-.86-.11-1,.45-.19.83,0,1.28.61,1.42s1,.11,1.48.16Zm10.93,0a14.8,14.8,0,0,0,1.49-.19c.71-.17.56-.74.54-1.25s-.28-.74-.67-.62a20.86,20.86,0,0,0-2.85,1.08c-.41.2-.26.75.21.85a11.08,11.08,0,0,0,1.28.12Z"/></g></g></g></svg>