<?xml version="1.0" encoding="UTF-8"?>
<svg width="64px" height="64px" viewBox="0 0 64 64" version="1.1" xmlns="http://www.w3.org/2000/svg" xmlns:xlink="http://www.w3.org/1999/xlink">
    <title>前方无车</title>
    <g id="前方无车" stroke="none" stroke-width="1" fill="none" fill-rule="evenodd">
        <path d="M29.5510564,21.8524578 C31.5061944,21.5602207 33.4939123,21.5602207 35.4490503,21.8524578 C36.8238741,22.1274225 38.1986979,22.3473943 39.4910322,22.7048485 C40.4526167,22.9498529 41.2209992,23.6715094 41.5257713,24.6158535 C42.0848663,26.1923181 42.6714578,27.7550344 43.2855458,29.3040025 C43.3955317,29.565219 43.7254894,29.9501697 43.9179647,29.9226732 C45.0084519,29.738402 46.0464462,30.4588922 46.2551651,31.5449653 C46.3244597,31.8248705 46.3244597,32.1174507 46.2551651,32.397356 L44.687866,32.8235514 C44.7849523,33.3691379 44.8492261,33.9200567 44.8803413,34.4733399 L44.8803413,42.0898635 C44.8626487,42.5503876 44.698945,42.9933505 44.4129012,43.3547014 C42.9620347,43.6345776 41.4738037,43.6624819 40.0134652,43.4371908 C38.9960956,42.7910236 39.6285146,41.7049128 39.2985569,40.8250256 L25.9352699,40.8250256 C25.6740534,41.7599058 25.5228228,43.3272049 25.2203616,43.4371908 C23.72859,43.698643 22.2027112,43.698643 20.7109396,43.4371908 C20.3943968,43.0168288 20.2209318,42.5060708 20.2160031,41.9798776 C20.1335136,40.8800186 20.1335136,39.8351525 20.1335136,38.76279 C20.1335136,36.7692955 20.1335136,34.7758011 20.2160031,32.7685584 L18.7586899,32.3836078 C18.7102945,32.1616607 18.7102945,31.9318911 18.7586899,31.7099441 C19.171137,30.6100851 19.7210665,29.7576944 21.137135,29.8814285 C21.3021138,29.8814285 21.6183233,29.5514708 21.714561,29.3040025 C22.2401098,28.0785914 22.6990535,26.825675 23.0893847,25.5507337 C23.6181549,23.6672426 25.2638865,22.3122569 27.213856,22.154919 C27.9700091,22.0174366 28.7536586,21.9211989 29.5098117,21.7974648 L29.5510564,21.8524578 Z M23.4743354,30.3488686 C29.4029237,31.6034296 35.5284418,31.6034296 41.4570302,30.3488686 C40.9483454,28.8228142 40.4396606,27.4617387 40.0822064,26.0869149 C39.8631883,25.0060538 38.9026082,24.2364324 37.799999,24.2583993 C34.9541138,24.1346652 32.0944804,24.0384275 29.2485952,24.0109311 C28.3187639,24.0473824 27.3961835,24.1903823 26.4989477,24.4371264 C26.0855017,24.5217958 25.7236729,24.7696238 25.4953263,25.1245383 C24.725425,26.7880751 24.147999,28.5066048 23.4743354,30.3488686 Z M24.6429356,36.8380367 C25.1348308,36.8646294 25.6281586,36.8369662 26.113997,36.7555473 C26.4939271,36.6678749 26.8187604,36.4230005 27.0076324,36.0818837 C27.0763736,35.8756601 26.7601642,35.3669753 26.4851994,35.2432412 C25.3668871,34.7192923 24.2192964,34.260256 23.04814,33.8684174 C22.470714,33.6759421 21.8107986,33.7171868 21.6733163,34.5283328 C21.3983515,35.7244295 21.6733163,36.3843449 22.5669517,36.5768202 C23.2681118,36.7143026 23.9417755,36.7417991 24.7116768,36.8105403 L24.6429356,36.8380367 Z M40.4946535,36.8380367 C41.2186773,36.7863825 41.9392764,36.6945865 42.6531268,36.563072 C43.6842447,36.3293519 43.4642729,35.4907094 43.4367764,34.7620529 C43.4092799,34.0333963 43.0243292,33.6896903 42.4606515,33.8546692 C41.0489947,34.2744871 39.6703948,34.7983551 38.3361802,35.4219683 C37.7312578,35.7106813 37.9512296,36.508079 38.6386415,36.6593096 C39.2534383,36.75152 39.8732314,36.8066127 40.4946535,36.8242885 L40.4946535,36.8380367 Z" id="形状" fill="#FFFFFF" fill-rule="nonzero" opacity="0.5"></path>
        <path d="M57.5,16.4077988 L54.5,16.4077988 L54.5,14 C54.5,13.1715729 53.8284271,12.5 53,12.5 L53,9.5 C55.4852814,9.5 57.5,11.5147186 57.5,14 L57.5,16.4077988 Z M57.5,30.4077988 L54.5,30.4077988 L54.5,23.4077988 L57.5,23.4077988 L57.5,30.4077988 Z M57.5,44.4077988 L54.5,44.4077988 L54.5,37.4077988 L57.5,37.4077988 L57.5,44.4077988 Z M48.1844024,53.5 L48.1844024,50.5 L53,50.5 C53.3834623,50.5 53.7407266,50.3575253 54.0166436,50.1029423 L56.051011,52.3077891 C55.2262864,53.0687457 54.1448888,53.5 53,53.5 L48.1844024,53.5 Z M34.1844024,53.5 L34.1844024,50.5 L41.1844024,50.5 L41.1844024,53.5 L34.1844024,53.5 Z M20.1844024,53.5 L20.1844024,50.5 L27.1844024,50.5 L27.1844024,53.5 L20.1844024,53.5 Z M5.67010104,50.2283727 L8.55648711,49.4105857 C8.73749399,50.0494511 9.32477941,50.5 10,50.5 L13.1844024,50.5 L13.1844024,53.5 L10,53.5 C7.97416269,53.5 6.21457335,52.1500924 5.67010104,50.2283727 Z M5.5,35.7766036 L8.5,35.7766036 L8.5,42.7766036 L5.5,42.7766036 L5.5,35.7766036 Z M5.5,21.7766036 L8.5,21.7766036 L8.5,28.7766036 L5.5,28.7766036 L5.5,21.7766036 Z M11.6311952,9.5 L11.6311952,12.5 L10,12.5 C9.17157288,12.5 8.5,13.1715729 8.5,14 L8.5,14.7766036 L5.5,14.7766036 L5.5,14 C5.5,11.5147186 7.51471863,9.5 10,9.5 L11.6311952,9.5 Z M25.6311952,9.5 L25.6311952,12.5 L18.6311952,12.5 L18.6311952,9.5 L25.6311952,9.5 Z M39.6311952,9.5 L39.6311952,12.5 L32.6311952,12.5 L32.6311952,9.5 L39.6311952,9.5 Z M53,9.5 L53,12.5 L46.6311952,12.5 L46.6311952,9.5 L53,9.5 Z" id="矩形" fill="#FFFFFF" fill-rule="nonzero"></path>
    </g>
</svg>