<svg xmlns="http://www.w3.org/2000/svg" viewBox="0 0 48.09 48.09"><defs><style>.cls-1{fill:#fff;}</style></defs><g id="图层_2" data-name="图层 2"><g id="图层_1-2" data-name="图层 1"><path class="cls-1" d="M24,0A24,24,0,1,0,48.09,24,24,24,0,0,0,24,0ZM22.21,14a10,10,0,0,0-6.05,3.51l-.17.21c-.15.19-.29.39-.42.59s-.11.18-.17.27-.25.4-.36.61l-.1.2c-.12.24-.23.48-.33.73l0,.08A10,10,0,0,0,13.93,25v0a10.29,10.29,0,0,0,3,6.21l1.66-1.66a.18.18,0,0,1,.25,0l0,.08,1.44,7a.17.17,0,0,1-.14.2h-.06l-7-1.44a.18.18,0,0,1-.13-.21.2.2,0,0,1,0-.08l1.66-1.66a13.55,13.55,0,0,1-3.73-7l0-.12c0-.32-.1-.63-.13-.95v-.11A13.21,13.21,0,0,1,11.57,19l.06-.16c.13-.31.27-.61.42-.91a3.18,3.18,0,0,1,.16-.32c.14-.26.28-.5.43-.75l.26-.41.12-.2.4-.5c.08-.12.17-.23.26-.35s.46-.53.71-.78l.13-.15,0,0a13.08,13.08,0,0,1,7.09-3.65,1.63,1.63,0,0,1,1.87,1.32A1.58,1.58,0,0,1,22.26,14h-.05ZM36.92,27.87c-.11.37-.24.75-.38,1.11l-.09.25q-.18.43-.39.84c-.06.13-.12.26-.19.39a7.84,7.84,0,0,1-.41.69c-.09.15-.18.31-.28.46a1.18,1.18,0,0,0-.11.19l-.46.59-.16.21c-.29.35-.58.68-.89,1a13.12,13.12,0,0,1-7.11,3.66,1.64,1.64,0,0,1-1.87-1.32,1.59,1.59,0,0,1,1.25-1.85h0a10,10,0,0,0,6.05-3.5l.21-.26c.13-.18.26-.35.38-.53s.14-.22.2-.33.23-.36.33-.54l.13-.28q.16-.33.3-.66l.06-.16a7.58,7.58,0,0,0,.28-.8v0a10.36,10.36,0,0,0,.4-2.87v-.05c0-.3,0-.6,0-.9l0-.19a10.34,10.34,0,0,0-2.94-6.08l-1.66,1.66a.18.18,0,0,1-.17,0,.18.18,0,0,1-.12-.13l-1.45-7a.19.19,0,0,1,.14-.2H28l7,1.44a.18.18,0,0,1,.13.21.14.14,0,0,1,0,.08l-1.66,1.66a13.58,13.58,0,0,1,3.74,7.07l0,.1c.05.26.07.53.1.79a1.54,1.54,0,0,1,0,.3A11.07,11.07,0,0,1,37.42,24v.1a13,13,0,0,1-.51,3.72Z"/></g></g></svg>