<?xml version="1.0" encoding="UTF-8"?>
<svg width="64px" height="64px" viewBox="0 0 64 64" version="1.1" xmlns="http://www.w3.org/2000/svg" xmlns:xlink="http://www.w3.org/1999/xlink">
    <title>周围物体密度</title>
    <g id="周围物体密度" stroke="none" stroke-width="1" fill="none" fill-rule="evenodd">
        <g id="编组" transform="translate(12.000000, 15.120670)" fill="#FFFFFF" fill-rule="nonzero">
            <path d="M1.71977744,0 C2.54931715,0 3.27769347,0.606980273 3.41932221,1.43651998 L3.43955488,1.71977744 L3.43955488,30.3393372 L38.2802226,30.3393372 C39.1097623,30.3393372 39.8381386,30.9463174 39.9797673,31.7758571 L40,32.0591146 C40,32.8886543 39.3930197,33.6170306 38.56348,33.7586594 L0,33.7586594 L0,1.69954476 C0,0.768841679 0.768841679,0 1.71977744,0 Z" id="路径"></path>
            <path d="M27.5366717,25.919817 C26.9094588,25.919817 26.3834092,25.6972576 25.958523,25.2319061 C25.5336368,24.7867872 25.3110774,24.2000396 25.3313101,23.5930593 C25.3313101,22.9658464 25.5336368,22.4397968 25.958523,22.0149106 C26.3834092,21.5900244 26.9094588,21.3876977 27.5366717,21.3876977 C28.1638847,21.3876977 28.7101669,21.5900244 29.1755185,22.0149106 C29.64087,22.4397968 29.8634294,22.9658464 29.8634294,23.5930593 C29.8634294,24.2202723 29.64087,24.7665545 29.1755185,25.2319061 C28.7506323,25.6770249 28.1638847,25.9400497 27.5366717,25.919817 Z M27.5366717,16.8555783 C26.9094588,16.8555783 26.3834092,16.6532515 25.958523,16.2283653 C25.5336368,15.8034791 25.3313101,15.2774296 25.3313101,14.6502166 C25.3313101,14.0230037 25.5336368,13.4969541 25.958523,13.0720679 C26.3834092,12.6471817 26.9094588,12.444855 27.5366717,12.444855 C28.1638847,12.444855 28.7101669,12.6471817 29.1755185,13.0720679 C29.64087,13.4969541 29.8634294,14.0230037 29.8634294,14.6502166 C29.8634294,15.2774296 29.64087,15.8034791 29.1755185,16.2283653 C28.7303996,16.6532515 28.143652,16.875811 27.5366717,16.8555783 Z M27.5366717,7.91273559 C26.9094588,7.91273559 26.3834092,7.71040883 25.958523,7.28552264 C25.5336368,6.86063645 25.3313101,6.33458688 25.3313101,5.70737393 C25.3313101,5.08016098 25.5336368,4.53387874 25.958523,4.06852719 C26.3631765,3.62340833 26.9296915,3.36038354 27.5366717,3.38061622 C28.1638847,3.38061622 28.7101669,3.60317565 29.1755185,4.06852719 C29.64087,4.53387874 29.8634294,5.08016098 29.8634294,5.70737393 C29.8634294,6.33458688 29.64087,6.86063645 29.1755185,7.28552264 C28.7303996,7.69017616 28.143652,7.91273559 27.5366717,7.91273559 Z M36.6009105,15.8034791 C35.8320688,15.8034791 35.447648,15.4190583 35.447648,14.6502166 C35.447648,13.8813749 35.8320688,13.4969541 36.6009105,13.4969541 C37.3090541,13.4969541 37.6530096,13.8813749 37.6530096,14.6502166 C37.6530096,15.4190583 37.3090541,15.8034791 36.6009105,15.8034791 Z M36.6009105,6.73924039 C35.8320688,6.73924039 35.447648,6.39528491 35.447648,5.68714125 C35.447648,4.91829958 35.8320688,4.53387874 36.6009105,4.53387874 C37.3090541,4.53387874 37.6530096,4.91829958 37.6530096,5.68714125 C37.6530096,6.39528491 37.3090541,6.73924039 36.6009105,6.73924039 Z M36.6009105,24.7665545 C35.8320688,24.7665545 35.447648,24.3821337 35.447648,23.613292 C35.447648,22.9051483 35.8320688,22.5611928 36.6009105,22.5611928 C37.3090541,22.5611928 37.6530096,22.9051483 37.6530096,23.613292 C37.6530096,24.3821337 37.3090541,24.7665545 36.6009105,24.7665545 Z M18.593829,25.919817 C17.9666161,25.919817 17.4405665,25.6972576 17.0156803,25.2319061 C16.5907941,24.7867872 16.3682347,24.2000396 16.3884674,23.5930593 C16.3884674,22.9658464 16.5907941,22.4397968 17.0156803,22.0149106 C17.4405665,21.5900244 17.9666161,21.3876977 18.593829,21.3876977 C19.221042,21.3876977 19.7470916,21.5900244 20.1719777,22.0149106 C20.5968639,22.4397968 20.7991907,22.9658464 20.7991907,23.5930593 C20.7991907,24.2202723 20.5968639,24.7665545 20.1719777,25.2319061 C19.7673242,25.6972576 19.1805766,25.9400497 18.593829,25.919817 Z M9.63075367,18.0290735 C8.74051593,18.0493062 7.89074355,17.7053507 7.2635306,17.0781377 C6.5958523,16.4509248 6.25189681,15.6416177 6.25189681,14.6502166 C6.25189681,13.6588155 6.5958523,12.8495085 7.2635306,12.2222955 C7.89074355,11.5950826 8.74051593,11.2713598 9.63075367,11.2713598 C10.5209914,11.2713598 11.3707638,11.6153153 11.9979767,12.2222955 C12.665655,12.8495085 12.9893778,13.6588155 12.9893778,14.6502166 C12.9893778,15.6416177 12.665655,16.4509248 11.9979767,17.0781377 C11.3707638,17.685118 10.5209914,18.0290735 9.63075367,18.0290735 L9.63075367,18.0290735 Z M9.63075367,9.06599811 C8.72028326,9.06599811 7.9312089,8.72204262 7.2635306,8.05436432 C6.5958523,7.38668602 6.25189681,6.59761166 6.25189681,5.68714125 C6.25189681,4.77667085 6.5958523,3.98759649 7.2635306,3.31991819 C7.9312089,2.65223989 8.72028326,2.3082844 9.63075367,2.3082844 C10.5412241,2.3082844 11.3302984,2.65223989 11.9979767,3.31991819 C12.665655,3.98759649 12.9893778,4.77667085 12.9893778,5.68714125 C12.9893778,6.59761166 12.665655,7.38668602 11.9979767,8.05436432 C11.3302984,8.72204262 10.5412241,9.06599811 9.63075367,9.06599811 L9.63075367,9.06599811 Z M18.593829,7.91273559 C17.9666161,7.91273559 17.4405665,7.71040883 17.0156803,7.28552264 C16.5907941,6.86063645 16.3884674,6.33458688 16.3884674,5.70737393 C16.3884674,5.08016098 16.5907941,4.53387874 17.0156803,4.06852719 C17.4203338,3.62340833 17.9868488,3.36038354 18.593829,3.38061622 C19.221042,3.38061622 19.7470916,3.60317565 20.1719777,4.06852719 C20.5968639,4.53387874 20.7991907,5.08016098 20.7991907,5.70737393 C20.7991907,6.33458688 20.5968639,6.86063645 20.1719777,7.28552264 C19.7470916,7.69017616 19.221042,7.91273559 18.593829,7.91273559 Z M18.593829,16.8555783 C17.9666161,16.8555783 17.4405665,16.6532515 17.0156803,16.2283653 C16.5907941,15.8034791 16.3884674,15.2774296 16.3884674,14.6502166 C16.3884674,14.0230037 16.5907941,13.4969541 17.0156803,13.0720679 C17.4405665,12.6471817 17.9666161,12.444855 18.593829,12.444855 C19.221042,12.444855 19.7470916,12.6471817 20.1719777,13.0720679 C20.5968639,13.4969541 20.7991907,14.0230037 20.7991907,14.6502166 C20.7991907,15.2774296 20.5968639,15.8034791 20.1719777,16.2283653 C19.7470916,16.6532515 19.221042,16.8555783 18.593829,16.8555783 Z M9.63075367,26.9719162 C8.72028326,26.9719162 7.9312089,26.6481934 7.2635306,25.9805151 C6.5958523,25.3128368 6.25189681,24.5237624 6.25189681,23.613292 C6.25189681,22.7028216 6.5958523,21.9137472 7.2635306,21.2460689 C7.9312089,20.5783906 8.72028326,20.2546678 9.63075367,20.2546678 C10.5412241,20.2546678 11.3302984,20.5783906 11.9979767,21.2460689 C12.665655,21.9137472 12.9893778,22.7028216 12.9893778,23.613292 C12.9893778,24.5237624 12.665655,25.3128368 11.9979767,25.9805151 C11.3302984,26.6481934 10.5412241,26.9719162 9.63075367,26.9719162 L9.63075367,26.9719162 Z" id="形状"></path>
        </g>
    </g>
</svg>