<svg xmlns="http://www.w3.org/2000/svg" viewBox="0 0 47.65 48.9"><defs><style>.cls-1{fill:#fff;}</style></defs><g id="图层_2" data-name="图层 2"><g id="图层_1-2" data-name="图层 1"><path class="cls-1" d="M29.18,25.56c-1.76,0-2.77-1.29-3.15-2.89s1.32-3.47,3.15-3.47a3.38,3.38,0,0,1,3.29,3.18,3,3,0,0,1-2.84,3.23Zm15-13.69a3.42,3.42,0,0,0,3.51-3.35,3.51,3.51,0,0,0-7,0,3.16,3.16,0,0,0,.65,1.93c-4.6,3.4-13.4,8-16.6-3.84A3.34,3.34,0,0,0,27.4,2.75a3.5,3.5,0,0,0-4-2.71,3.35,3.35,0,0,0-2.93,3.72,3.47,3.47,0,0,0,3.84,2.9c-.12,8.58.2,16.41-9.35,11.44a3.34,3.34,0,0,0-3.28-4.55,3.35,3.35,0,1,0,0,6.7,3.59,3.59,0,0,0,2.67-1.16c5.85,6.6,3,7.92-7.41,8A2.43,2.43,0,0,0,7,26.52a3.43,3.43,0,0,0-3.51-3.35,3.35,3.35,0,1,0,0,6.69,3.47,3.47,0,0,0,3.42-2.57c7,2.33,8.73,4.36,5.7,8.91a3.63,3.63,0,0,0-2.1-.66,3.35,3.35,0,1,0,0,6.7A3.42,3.42,0,0,0,14,38.89a3.29,3.29,0,0,0-.74-2.08c7.2-5,10.61-4.93,11,5.47a3.32,3.32,0,0,0,.34,6.6,3.48,3.48,0,0,0,3.8-2.66A3.35,3.35,0,0,0,26,42.35c3.15-5.28,5.87-6.1,11.52-3.42a3.25,3.25,0,0,0,.7,3.68,3.54,3.54,0,0,0,3.82.75A3.28,3.28,0,0,0,42,37.14a3.64,3.64,0,0,0-3.89,1c-4.16-4.05-7.34-9.59.57-12a3.48,3.48,0,0,0,3.42,2.61,3.35,3.35,0,1,0,0-6.7,3.52,3.52,0,0,0-3.32,2.24c-5.13-3.46-.55-9.92,2.74-13.55a3.6,3.6,0,0,0,2.67,1.16Z"/></g></g></svg>