<svg xmlns="http://www.w3.org/2000/svg" viewBox="0 0 48 22.67"><defs><style>.cls-1{fill:#fff;}</style></defs><g id="图层_2" data-name="图层 2"><g id="图层_1-2" data-name="图层 1"><path class="cls-1" d="M14.75.47a1,1,0,0,1,.83-.39h5.15L11.42,10.4l6.7,12.24h-6L6.46,11.29,4.86,22.64H0v0q1-6.87,1.6-11.26C2,8.42,2.38,5.84,2.69,3.61S3.17.2,3.19.08H6.33a1.39,1.39,0,0,1,1.11.5,1.45,1.45,0,0,1,.35,1.17c-.14,1-.3,2.18-.5,3.49s-.42,3-.7,5.06Z"/><path class="cls-1" d="M30.46.05a9.78,9.78,0,0,1,4.82,1,5.65,5.65,0,0,1,2.33,2.26,6.4,6.4,0,0,1,.74,2.43,6.08,6.08,0,0,1,0,1.52A7.68,7.68,0,0,1,38,8.88a8.5,8.5,0,0,1-.66,1.42,8.49,8.49,0,0,1-2.15,2.59,9.33,9.33,0,0,1-3.11,1.59A13.75,13.75,0,0,1,28,15H26l-.57,4.34a3.79,3.79,0,0,1-1.26,2.37,3.55,3.55,0,0,1-2.45.93H20.29L23,2.77A3.1,3.1,0,0,1,24,.81,3.06,3.06,0,0,1,26.09.05Zm2.87,7.51a3.81,3.81,0,0,0-.15-2,2.35,2.35,0,0,0-.89-1.18A3.06,3.06,0,0,0,31,3.84a9.39,9.39,0,0,0-1.44-.1h-2l-1,7.61,2.22,0a5.41,5.41,0,0,0,2-.31,4.06,4.06,0,0,0,1.38-.87A4,4,0,0,0,33,8.81a3.34,3.34,0,0,0,.2-.55A5.79,5.79,0,0,0,33.33,7.56Z"/><path class="cls-1" d="M39.92,22.67l2.9-20.58a2.31,2.31,0,0,1,.83-1.5A2.4,2.4,0,0,1,45.25,0H48L45.15,20.21a2.85,2.85,0,0,1-2.82,2.46Z"/></g></g></svg>