<svg xmlns="http://www.w3.org/2000/svg" viewBox="0 0 41.43 46.04"><defs><style>.cls-1{fill:#fff;}</style></defs><g id="图层_2" data-name="图层 2"><g id="图层_1-2" data-name="图层 1"><rect class="cls-1" x="8.87" y="30.13" width="14.22" height="4.74"/><rect class="cls-1" x="8.87" y="20.65" width="14.22" height="4.74"/><path class="cls-1" d="M39.13,0H11.51a2.17,2.17,0,0,0-2.3,2.3V9.21H2.3A2.17,2.17,0,0,0,0,11.51V43.74A2.17,2.17,0,0,0,2.3,46H29.93a2.17,2.17,0,0,0,2.3-2.3V36.83h6.9a2.17,2.17,0,0,0,2.3-2.3V2.3A2.17,2.17,0,0,0,39.13,0ZM27.62,41.43H4.6V13.81h23Zm9.21-9.2h-4.6v-23H13.81V4.6h23Z"/></g></g></svg>