<svg xmlns="http://www.w3.org/2000/svg" viewBox="0 0 64 64"><defs><style>.cls-1,.cls-2{fill:#fff;}.cls-1{opacity:0;}</style></defs><title>新增加图标</title><g id="图层_2" data-name="图层 2"><g id="图层_1-2" data-name="图层 1"><g id="新增加图标"><path id="矩形" class="cls-1" d="M12,0H52A12,12,0,0,1,64,12V52A12,12,0,0,1,52,64H12A12,12,0,0,1,0,52V12A12,12,0,0,1,12,0Z"/><g id="编组-4"><path id="路径-8" class="cls-2" d="M9.2,3.69a2,2,0,0,1,2,1.85V52.69h47a2,2,0,0,1,2,1.85v.15a2,2,0,0,1-1.85,2H9.2a2,2,0,0,1-2-1.85V5.69A2,2,0,0,1,9.2,3.69Z"/><path id="路径-9" class="cls-2" d="M19.11,44.56a2,2,0,0,1,2,1.85v8.28a2,2,0,0,1-4,.15V46.56A2,2,0,0,1,19.11,44.56Z"/><path class="cls-2" d="M29.54,34.5a2,2,0,0,1,2,1.89v.15l-.39,18.19a2,2,0,0,1-4,.07v-.15l.39-18.19A2,2,0,0,1,29.54,34.5Z"/><path class="cls-2" d="M38.11,44.56a2,2,0,0,1,2,1.85v8.28a2,2,0,0,1-4,.15V46.56A2,2,0,0,1,38.11,44.56Z"/><path class="cls-2" d="M48.54,34.5a2,2,0,0,1,2,1.89v.15l-.39,18.19a2,2,0,0,1-4,.07v-.15l.39-18.19A2,2,0,0,1,48.54,34.5Z"/><path id="形状" class="cls-2" d="M50.51,17.62a1.7,1.7,0,0,1,1.06.46h0l8,11a1.91,1.91,0,0,1,.33,1.36,1.78,1.78,0,0,1-.66,1.2,1.62,1.62,0,0,1-1.17.36,1.66,1.66,0,0,1-1.1-.58h0L49.08,20.54a1.89,1.89,0,0,1-.34-1.35A1.86,1.86,0,0,1,49.4,18,1.62,1.62,0,0,1,50.51,17.62Zm-41.66.73a1.56,1.56,0,0,1,1.1.3h0l8.25,8.68a1.91,1.91,0,0,1,0,2.58,1.67,1.67,0,0,1-1.13.52A1.63,1.63,0,0,1,15.92,30h0L7.8,21.45a1.92,1.92,0,0,1-.5-1.29,1.88,1.88,0,0,1,.5-1.29A1.6,1.6,0,0,1,8.85,18.35Zm37.3.18a1.63,1.63,0,0,1,1.26.3,1.82,1.82,0,0,1,.68,1.1,1.9,1.9,0,0,1-.19,1.3h0l-5.14,7.29a1.67,1.67,0,0,1-1.1.73A1.58,1.58,0,0,1,40.4,29a1.79,1.79,0,0,1-.68-1.1,1.92,1.92,0,0,1,.19-1.3h0l5.14-7.28A1.68,1.68,0,0,1,46.15,18.53Zm-19.67.73a1.65,1.65,0,0,1,1.23.43A1.89,1.89,0,0,1,28,22.13h0l-5.07,6.3a1.68,1.68,0,0,1-1.16.62,1.62,1.62,0,0,1-1.23-.42,1.86,1.86,0,0,1-.59-1.17,1.89,1.89,0,0,1,.31-1.28h0l5.08-6.29A1.66,1.66,0,0,1,26.48,19.26Zm4.35-1.21H31a1.64,1.64,0,0,1,1.05.51h0L38,26a1.92,1.92,0,0,1,.29,1.35,1.86,1.86,0,0,1-.71,1.18,1.58,1.58,0,0,1-1.19.31,1.67,1.67,0,0,1-1.08-.63h0l-5.9-7.34a1.94,1.94,0,0,1-.28-1.36,1.8,1.8,0,0,1,.7-1.17A1.57,1.57,0,0,1,31,18.06Z"/><circle id="椭圆形" class="cls-2" cx="18.7" cy="29.19" r="4.5"/><circle class="cls-2" cx="29.7" cy="17.19" r="4.5"/><circle class="cls-2" cx="38.7" cy="29.19" r="4.5"/><circle class="cls-2" cx="48.7" cy="17.19" r="4.5"/></g></g></g></g></svg>