<?xml version="1.0" encoding="UTF-8"?>
<svg width="64px" height="64px" viewBox="0 0 64 64" version="1.1" xmlns="http://www.w3.org/2000/svg" xmlns:xlink="http://www.w3.org/1999/xlink">
    <title>数据初始化</title>
    <g id="数据初始化" stroke="none" stroke-width="1" fill="none" fill-rule="evenodd">
        <path d="M45.0437576,13.8852727 L19.0088484,13.8852727 C15.9939265,13.8852727 14.0770303,15.8021689 14.0770303,18.8170909 L14.0770303,44.852 C14.0770303,47.866922 15.9939265,49.7838182 19.0088484,49.7838182 L45.0437576,49.7838182 C48.0586795,49.7838182 49.9755758,47.866922 49.9755758,44.852 L49.9755758,18.8170909 C49.9755758,15.802169 48.0586795,13.8852727 45.0437576,13.8852727 Z M46.32493,17.5 L46.4362952,17.5021208 L46.4940476,17.5056022 L46.4994539,17.6173502 L46.5,46.32493 L46.4940476,46.4940476 L46.3826498,46.4994539 L17.67507,46.5 L17.5056022,46.4940476 L17.5021208,46.4362952 L17.5,46.32493 L17.5,17.67507 L17.5021208,17.5637047 L17.5056022,17.5056022 L17.67507,17.5 L46.32493,17.5 Z" id="路径" fill="#FFFFFF" fill-rule="nonzero"></path>
        <path d="M12.1803603,11 L18.0402323,11 C18.5778092,11 19.0933683,11.2135516 19.4734925,11.5936758 C19.8536168,11.9738001 20.0671683,12.4893592 20.0671683,13.026936 L20.0671683,18.8868081 C20.0671683,19.4243849 19.8536168,19.9399441 19.4734925,20.3200683 C19.0933683,20.7001925 18.5778092,20.9137441 18.0402323,20.9137441 L12.1803603,20.9137441 C11.6427834,20.9137441 11.1272243,20.7001925 10.7471,20.3200683 C10.3669758,19.9399441 10.1534242,19.4243849 10.1534242,18.8868081 L10.1534242,13.026936 C10.1534242,11.9074902 11.0609144,11 12.1803603,11 Z M12.1803603,43.0862559 L18.0402323,43.0862559 C18.5778092,43.0862559 19.0933683,43.2998075 19.4734925,43.6799317 C19.8536168,44.0600559 20.0671683,44.5756151 20.0671683,45.1131919 L20.0671683,50.973064 C20.0671683,51.5106408 19.8536168,52.0261999 19.4734925,52.4063242 C19.0933683,52.7864484 18.5778092,53 18.0402323,53 L12.1803603,53 C11.0609144,53 10.1534242,52.0925098 10.1534242,50.973064 L10.1534242,45.1131919 C10.1534242,43.9937461 11.0609144,43.0862559 12.1803603,43.0862559 L12.1803603,43.0862559 Z M45.9577407,11 L51.8196397,11 C52.9390856,11 53.8465758,11.9074902 53.8465758,13.026936 L53.8465758,18.8868081 C53.8465758,19.4243849 53.6330242,19.9399441 53.2529,20.3200683 C52.8727757,20.7001925 52.3572166,20.9137441 51.8196397,20.9137441 L45.9577407,20.9137441 C45.4201639,20.9137441 44.9046048,20.7001925 44.5244805,20.3200683 C44.1443563,19.9399441 43.9308047,19.4243849 43.9308047,18.8868081 L43.9308047,13.026936 C43.9308047,11.9074902 44.8382949,11 45.9577407,11 L45.9577407,11 Z M45.3730404,43.0862559 L51.2349394,43.0862559 C52.3543852,43.0862559 53.2618754,43.9937461 53.2618754,45.1131919 L53.2618754,50.973064 C53.2618754,52.0925098 52.3543852,53 51.2349394,53 L45.3730404,53 C44.2535945,53 43.3461043,52.0925098 43.3461043,50.973064 L43.3461043,45.1131919 C43.3461043,43.9937461 44.2535945,43.0862559 45.3730404,43.0862559 L45.3730404,43.0862559 Z M26.8582348,22.9216363 L37.7527802,22.9216363 C38.6124366,22.9216363 39.3093257,23.6185255 39.3093257,24.4781818 C39.3093257,25.3378381 38.6124366,26.0347273 37.7527802,26.0347273 L26.8582348,26.0347273 C25.9985785,26.0347273 25.3016893,25.3378381 25.3016893,24.4781818 C25.3016893,23.6185255 25.9985785,22.9216363 26.8582348,22.9216363 Z M26.8582348,29.7994546 L37.7527802,29.7994546 C38.6124366,29.7994546 39.3093257,30.4963437 39.3093257,31.356 C39.3093257,32.2156563 38.6124366,32.9125455 37.7527802,32.9125455 L26.8582348,32.9125455 C25.9985785,32.9125455 25.3016894,32.2156563 25.3016894,31.356 C25.3016894,30.4963437 25.9985785,29.7994546 26.8582348,29.7994546 Z M26.8582348,36.6772727 L37.7527802,36.6772727 C38.6117337,36.6772727 39.308053,37.373592 39.308053,38.2325455 C39.308053,39.0914989 38.6117337,39.7878182 37.7527802,39.7878182 L26.8582348,39.7878182 C25.9992814,39.7878182 25.3029621,39.0914989 25.3029621,38.2325455 C25.3029621,37.373592 25.9992814,36.6772727 26.8582348,36.6772727 L26.8582348,36.6772727 Z" id="形状" fill="#FFFFFF" fill-rule="nonzero"></path>
    </g>
</svg>