<svg xmlns="http://www.w3.org/2000/svg" viewBox="0 0 41.3 41.3"><defs><style>.cls-1{fill:#fff;}</style></defs><g id="图层_2" data-name="图层 2"><g id="图层_1-2" data-name="图层 1"><path class="cls-1" d="M36.71,6.89V25.24a2.35,2.35,0,0,1-2.27,2.3H29.83c-2.12,0-2.29,4.59-9.18,4.59s-6.88-4.59-9.18-4.59H6.88a2.31,2.31,0,0,1-2.29-2.3V6.89a2.38,2.38,0,0,1,2.29-2.3A2.3,2.3,0,1,0,6.88,0H4.57A4.57,4.57,0,0,0,0,4.56H0V36.74A4.56,4.56,0,0,0,4.57,41.3H36.74a4.56,4.56,0,0,0,4.56-4.56h0V4.57A4.56,4.56,0,0,0,36.74,0H34.42a2.3,2.3,0,0,0,0,4.59A2.39,2.39,0,0,1,36.71,6.89Z"/><path class="cls-1" d="M17.19,6.91a2.31,2.31,0,0,1,2.32-2.32h4.54a2.31,2.31,0,0,1,2.32,2.32v6.86h6.86c1.28,0,1.54.65.55,1.47l-8.49,7.08a5.72,5.72,0,0,1-7,0L9.78,15.24c-1-.81-.75-1.47.55-1.47h6.86Z"/></g></g></svg>