<svg xmlns="http://www.w3.org/2000/svg" viewBox="0 0 46.91 46.91"><defs><style>.cls-1{fill:#fff;}</style></defs><g id="图层_2" data-name="图层 2"><g id="图层_1-2" data-name="图层 1"><path class="cls-1" d="M8.19,11.86a19.15,19.15,0,0,1,33.34,5.2H46A23.41,23.41,0,0,0,4.65,9.5L0,6.4V21.32l12.79-6.39Z"/><path class="cls-1" d="M34.12,32l4.6,3.06a19.15,19.15,0,0,1-33.34-5.2H.91a23.41,23.41,0,0,0,41.35,7.57l4.65,3.09V25.59Z"/><polygon class="cls-1" points="22.19 18.41 22.19 24.72 22.32 24.72 25.98 28.38 27.75 26.61 24.72 23.58 24.72 18.41 22.19 18.41"/><path class="cls-1" d="M13.36,23.46a10.1,10.1,0,1,0,10.1-10.1A10.13,10.13,0,0,0,13.36,23.46Zm17.67,0a7.58,7.58,0,1,1-7.57-7.58A7.6,7.6,0,0,1,31,23.46Z"/></g></g></svg>