<?xml version="1.0" encoding="UTF-8"?>
<svg width="64px" height="64px" viewBox="0 0 64 64" version="1.1" xmlns="http://www.w3.org/2000/svg" xmlns:xlink="http://www.w3.org/1999/xlink">
    <title>入库</title>
    <g id="入库" stroke="none" stroke-width="1" fill="none" fill-rule="evenodd">
        <g id="编组" transform="translate(11.703314, 13.165543)" fill="#FFFFFF" fill-rule="nonzero">
            <path d="M9.81217868,7.9504254 C9.773621,8.09110228 9.77257955,8.38529616 9.78671619,8.74719406 L9.82372944,9.453195 L9.82372944,9.453195 L9.85232225,9.9501868 L9.85232225,9.9501868 L9.87404142,10.429794 C9.8894645,10.8897248 9.88171034,11.2741503 9.81217868,11.4347858 L4.48436043,11.4347858 L4.48436043,34.1845528 L36.1090109,34.1845528 L36.1090109,11.4347858 L33.1844013,11.4347858 C33.2842658,11.2471792 33.2732339,10.755083 33.2353758,10.1939257 L33.1598842,9.20821828 C33.1188191,8.64500851 33.0989681,8.14726809 33.1844013,7.9504254 L37.5933713,7.9504254 C39.2502255,7.9504254 40.5933713,9.29357115 40.5933713,10.9504254 L40.5933713,35.6689132 C40.5933713,37.3257675 39.2502255,38.6689132 37.5933713,38.6689132 L3,38.6689132 C1.34314575,38.6689132 0,37.3257675 0,35.6689132 L0,10.9504254 C0,9.29357115 1.34314575,7.9504254 3,7.9504254 L9.81217868,7.9504254 Z" id="路径"></path>
            <path d="M12.0113078,11.0265958 L17.8003135,11.0265958 C17.8003135,11.7301826 17.7795325,15.3625201 17.757267,15.9325146 C17.7023457,17.34711 17.608831,18.3802249 17.5093789,19.1461549 C16.6024346,26.271085 11.8198253,28.1354417 11.8198253,28.1354417 C20.4053661,28.1354417 23.3221343,20.1421607 24.2617345,15.9325146 C24.4398577,15.1339286 24.548216,11.4719039 24.6090748,11.0265958 L30.0195686,11.0265958 C30.8196389,11.0265958 31.0393242,10.5679284 30.5108919,10.0083245 L25.4180512,4.6245492 L21.9773038,0.986381779 C21.7286399,0.717266726 21.37888,0 21.0124695,0 C20.646059,0 20.2962991,0.717266726 20.0476352,0.986381779 L16.6098564,4.6245492 L11.5199845,10.0083245 C10.9915522,10.5723815 11.2112375,11.0265958 12.0113078,11.0265958 Z" id="路径" transform="translate(21.015438, 14.067721) scale(1, -1) translate(-21.015438, -14.067721) "></path>
        </g>
    </g>
</svg>