<svg xmlns="http://www.w3.org/2000/svg" viewBox="0 0 47.3 47.3"><defs><style>.cls-1{fill:#fff;}</style></defs><g id="图层_2" data-name="图层 2"><g id="图层_1-2" data-name="图层 1"><path class="cls-1" d="M23.65,0A23.65,23.65,0,1,0,47.3,23.65,23.66,23.66,0,0,0,23.65,0Zm-.84,43.88A20.25,20.25,0,0,1,3.42,24.5h6.76A13.52,13.52,0,0,0,22.81,37.13Zm0-10.13a10.2,10.2,0,0,1-9.25-9.25H20.4a3.3,3.3,0,0,0,2.41,2.4v6.85Zm0-13.35a3.38,3.38,0,0,0-2.41,2.41H13.56a10.19,10.19,0,0,1,9.25-9.25Zm0-10.22A13.51,13.51,0,0,0,10.18,22.81H3.42A20.26,20.26,0,0,1,22.81,3.42Zm1.69,3.38a10,10,0,0,1,2.62.59A5,5,0,0,1,29,11.23a14.29,14.29,0,0,0-4.47-1.09V3.38A20.23,20.23,0,0,1,37.17,8.53L34.76,11A4.91,4.91,0,0,1,36,12.12l2.36-2.36a20.24,20.24,0,0,1,5.54,13.05H37.17a13.48,13.48,0,0,0-1.06-4.48,5,5,0,0,1-2.91,1.86,11.23,11.23,0,0,1,.59,2.62H27a3.55,3.55,0,0,0-.55-1.1l2.49-2.49A7,7,0,0,1,27.75,18l-2.66,2.66a2.83,2.83,0,0,0-.64-.21V13.56ZM24.5,27A3.38,3.38,0,0,0,27,24.5h6.8a10.21,10.21,0,0,1-9.25,9.25Zm0,16.93V37.13A13.53,13.53,0,0,0,37.13,24.5h6.75A20.22,20.22,0,0,1,24.5,43.88Zm7.56-25.25a3.38,3.38,0,1,1,3.38-3.38A3.39,3.39,0,0,1,32.06,18.63Z"/></g></g></svg>