<svg xmlns="http://www.w3.org/2000/svg" viewBox="0 0 64 64"><defs><style>.cls-1{fill:none;}.cls-2{fill:#fff;}</style></defs><title>物体车向左换道</title><g id="图层_2" data-name="图层 2"><g id="图层_1-2" data-name="图层 1"><g id="物体车向左换道"><path id="矩形" class="cls-1" d="M12,0H52A12,12,0,0,1,64,12V52A12,12,0,0,1,52,64H12A12,12,0,0,1,0,52V12A12,12,0,0,1,12,0Z"/><g id="编组"><polygon id="路径" class="cls-2" points="7.59 57.18 7.7 6.8 9.67 6.82 9.56 57.2 7.59 57.18"/><polygon class="cls-2" points="56.09 6.82 58.06 6.79 58.16 57.19 56.19 57.2 56.09 6.82"/><path id="形状" class="cls-2" d="M31.93,8.73H30v8.05h2Zm0,13.21H30v8h2Zm0,26.41H30v8h2Zm0-13H30v8h2Z"/></g><path class="cls-2" d="M41.76,22.25a13.23,13.23,0,0,1,4.07,0c1,.19,1.9.34,2.79.58A2,2,0,0,1,50,24.15c.39,1.09.79,2.17,1.22,3.24.07.18.3.44.43.42a1.42,1.42,0,0,1,1.62,1.12,1.18,1.18,0,0,1,0,.59l-1.08.3A10.56,10.56,0,0,1,52.34,31v5.26a1.52,1.52,0,0,1-.32.87,9.12,9.12,0,0,1-3,.06c-.7-.45-.26-1.2-.49-1.8H39.27c-.18.64-.29,1.72-.5,1.8a9,9,0,0,1-3.11,0,1.66,1.66,0,0,1-.34-1c-.06-.76-.06-1.48-.06-2.22,0-1.37,0-2.75.06-4.13l-1-.27a.9.9,0,0,1,0-.46c.28-.76.66-1.35,1.64-1.26.11,0,.33-.23.39-.4a24.36,24.36,0,0,0,.95-2.59,3.24,3.24,0,0,1,2.85-2.35c.52-.09,1.06-.16,1.58-.24ZM38.07,28a27.71,27.71,0,0,0,11.4,0c-.32-1-.64-1.83-.87-2.71a1.46,1.46,0,0,0-1.44-1.16c-1.81-.07-3.62-.13-5.43-.15a7.33,7.33,0,0,0-1.74.27,1,1,0,0,0-.64.43C38.86,25.7,38.5,26.79,38.07,28Zm.31,4.63a5.71,5.71,0,0,0,1-.06,1,1,0,0,0,.62-.47.74.74,0,0,0-.36-.58,23.82,23.82,0,0,0-2.37-.94c-.4-.14-.86-.11-1,.45-.19.83,0,1.28.61,1.41a13.65,13.65,0,0,0,1.48.17Zm10.93,0a14.8,14.8,0,0,0,1.49-.19c.71-.17.56-.74.54-1.25s-.28-.74-.67-.62a20.86,20.86,0,0,0-2.85,1.08c-.41.2-.26.75.21.85a11.08,11.08,0,0,0,1.28.12Z"/><polygon id="路径-7" class="cls-2" points="15.08 26.59 32.79 26.59 32.79 29.6 15.08 29.6 15.08 26.59"/><path id="路径-" class="cls-2" d="M13.23,29.16a1.52,1.52,0,0,1-.1-2l.1-.11,5.66-5.66L21,23.5l-4.59,4.59L21,32.68l-2.13,2.14Z"/></g></g></g></svg>