<?xml version="1.0" encoding="UTF-8"?>
<svg width="64px" height="64px" viewBox="0 0 64 64" version="1.1" xmlns="http://www.w3.org/2000/svg" xmlns:xlink="http://www.w3.org/1999/xlink">
    <title>物体车切入</title>
    <g id="物体车切入" stroke="none" stroke-width="1" fill="none" fill-rule="evenodd">
        <g id="编组" transform="translate(-5.000000, 6.304146)" fill="#FFFFFF" fill-rule="nonzero">
            <polygon id="路径" points="12.5889665 50.878164 12.7004936 0.492414279 14.6706728 0.513533062 14.5572435 50.9005669"></polygon>
            <polygon id="路径" points="61.0880815 0.512248877 63.0582607 0.491130093 63.158238 50.8872281 61.1890783 50.9005669"></polygon>
            <path d="M38.433897,1.926403 L36.4645975,1.926403 L36.4645975,9.98079802 L38.433897,9.98079802 L38.433897,1.926403 Z M38.433897,15.1321504 L36.4645975,15.1321504 L36.4645975,23.1865454 L38.433897,23.1865454 L38.433897,15.1321504 Z M38.433897,41.5436453 L36.4645975,41.5436453 L36.4645975,49.5980403 L38.433897,49.5980403 L38.433897,41.5436453 Z M38.433897,28.5436453 L36.4645975,28.5436453 L36.4645975,36.5980403 L38.433897,36.5980403 L38.433897,28.5436453 Z" id="形状"></path>
        </g>
        <path d="M42.3928482,36.6396301 C43.6903489,36.445691 45.0094707,36.445691 46.3069714,36.6396301 C47.2193545,36.8221067 48.1317375,36.968088 48.9893776,37.2053076 C49.62752,37.3679014 50.1374466,37.846819 50.3397045,38.47352 C50.7107402,39.5197193 51.1000237,40.5567947 51.5075548,41.5847462 C51.5805454,41.758099 51.7995173,42.0135662 51.927251,41.9953186 C52.650938,41.8730295 53.3397887,42.351173 53.4783021,43.0719306 C53.5242886,43.2576859 53.5242886,43.4518527 53.4783021,43.6376081 L52.4381855,43.9204468 C52.5026155,44.2825179 52.5452699,44.6481276 52.5659191,45.0153064 L52.5659191,50.0699085 C52.5541776,50.375529 52.4455379,50.6694953 52.2557089,50.9093009 C51.292861,51.0950369 50.3052169,51.1135553 49.3360831,50.9640439 C48.6609197,50.5352238 49.0806159,49.8144412 48.861644,49.2305161 L39.9932808,49.2305161 C39.819928,49.8509366 39.7195659,50.8910532 39.5188416,50.9640439 C38.5288478,51.1375531 37.5162191,51.1375531 36.5262252,50.9640439 C36.3161559,50.6850764 36.2010382,50.3461188 36.1977674,49.9969178 C36.1430244,49.2670114 36.1430244,48.5736003 36.1430244,47.8619415 C36.1430244,46.5389861 36.1430244,45.2160307 36.1977674,43.8839515 L35.2306413,43.6284842 C35.1985244,43.4811921 35.1985244,43.3287087 35.2306413,43.1814165 C35.5043562,42.4515101 35.8693095,41.8858326 36.809064,41.9679471 C36.91855,41.9679471 37.1283981,41.7489752 37.1922649,41.5847462 C37.5410382,40.7715188 37.8456099,39.940038 38.1046479,39.0939405 C38.455559,37.8439874 39.5477263,36.9447696 40.841797,36.8403544 C41.3436077,36.7491161 41.863666,36.6852493 42.3654767,36.6031348 L42.3928482,36.6396301 Z M38.8431425,42.1331898 C42.4590775,42.8983654 46.1951229,42.8983654 49.8110579,42.1331898 C49.5008035,41.2024263 49.190549,40.3722859 48.9725323,39.5337603 C48.8389499,38.8745269 48.2530777,38.4051232 47.5805797,38.4185212 C45.8448317,38.3430539 44.1006983,38.2843571 42.3649502,38.2675866 C41.7978322,38.2898188 41.2351366,38.3770366 40.687899,38.5275295 C40.435732,38.5791707 40.2150472,38.7303247 40.0757752,38.9467924 C39.6062009,39.9614084 39.2540201,41.0095654 38.8431425,42.1331898 Z M39.1356407,46.5846053 C39.4620803,46.6022532 39.7894705,46.5838948 40.1118906,46.5298623 C40.364026,46.4716797 40.5795972,46.3091722 40.7049396,46.0827946 C40.7505587,45.9459371 40.5407106,45.6083554 40.358234,45.526241 C39.6160813,45.1785294 38.8544984,44.8738962 38.0772764,44.6138579 C37.6940755,44.4861243 37.2561317,44.5134958 37.1648934,45.0518018 C36.9824168,45.845575 37.1648934,46.2835189 37.7579423,46.4112525 C38.2232577,46.5024908 38.6703254,46.5207385 39.1812599,46.5663576 L39.1356407,46.5846053 Z M49.6554172,46.5846053 C50.1359057,46.5503257 50.6141215,46.4894065 51.0878586,46.4021287 C51.7721459,46.2470236 51.6261646,45.6904699 51.6079169,45.2069069 C51.5896692,44.7233439 51.334202,44.4952481 50.9601249,44.6047341 C50.0232982,44.8833405 49.1084091,45.2309984 48.2229758,45.6448507 C47.8215273,45.8364512 47.9675086,46.3656333 48.4237001,46.4659955 C48.8317016,46.5271896 49.2430189,46.5637512 49.6554172,46.5754814 L49.6554172,46.5846053 Z" id="形状" fill="#FF7C61" fill-rule="nonzero"></path>
        <path d="M18.2332435,12.2396301 C19.5307442,12.045691 20.849866,12.045691 22.1473667,12.2396301 C23.0597498,12.4221067 23.9721328,12.568088 24.8297729,12.8053076 C25.4679153,12.9679014 25.9778419,13.446819 26.1800998,14.07352 C26.5511355,15.1197193 26.940419,16.1567947 27.3479501,17.1847462 C27.4209407,17.358099 27.6399126,17.6135662 27.7676463,17.5953186 C28.4913332,17.4730295 29.180184,17.951173 29.3186974,18.6719306 C29.3646839,18.8576859 29.3646839,19.0518527 29.3186974,19.2376081 L28.2785808,19.5204468 C28.3430108,19.8825179 28.3856652,20.2481276 28.4063144,20.6153064 L28.4063144,25.6699085 C28.3945729,25.975529 28.2859332,26.2694953 28.0961042,26.5093009 C27.1332563,26.6950369 26.1456121,26.7135553 25.1764784,26.5640439 C24.501315,26.1352238 24.9210112,25.4144412 24.7020392,24.8305161 L15.8336761,24.8305161 C15.6603233,25.4509366 15.5599612,26.4910532 15.3592369,26.5640439 C14.369243,26.7375531 13.3566144,26.7375531 12.3666205,26.5640439 C12.1565512,26.2850764 12.0414335,25.9461188 12.0381626,25.5969178 C11.9834197,24.8670114 11.9834197,24.1736003 11.9834197,23.4619415 C11.9834197,22.1389861 11.9834197,20.8160307 12.0381626,19.4839515 L11.0710366,19.2284842 C11.0389197,19.0811921 11.0389197,18.9287087 11.0710366,18.7814165 C11.3447515,18.0515101 11.7097047,17.4858326 12.6494593,17.5679471 C12.7589452,17.5679471 12.9687933,17.3489752 13.0326602,17.1847462 C13.3814335,16.3715188 13.6860052,15.540038 13.9450432,14.6939405 C14.2959543,13.4439874 15.3881216,12.5447696 16.6821923,12.4403544 C17.184003,12.3491161 17.7040613,12.2852493 18.205872,12.2031348 L18.2332435,12.2396301 Z M14.6835378,17.7331898 C18.2994728,18.4983654 22.0355182,18.4983654 25.6514532,17.7331898 C25.3411987,16.8024263 25.0309443,15.9722859 24.8129276,15.1337603 C24.6793452,14.4745269 24.0934729,14.0051232 23.420975,14.0185212 C21.6852269,13.9430539 19.9410936,13.8843571 18.2053455,13.8675866 C17.6382275,13.8898188 17.0755319,13.9770366 16.5282942,14.1275295 C16.2761273,14.1791707 16.0554425,14.3303247 15.9161705,14.5467924 C15.4465962,15.5614084 15.0944154,16.6095654 14.6835378,17.7331898 Z M14.976036,22.1846053 C15.3024756,22.2022532 15.6298658,22.1838948 15.9522859,22.1298623 C16.2044213,22.0716797 16.4199925,21.9091722 16.5453349,21.6827946 C16.590954,21.5459371 16.3811059,21.2083554 16.1986293,21.126241 C15.4564766,20.7785294 14.6948937,20.4738962 13.9176717,20.2138579 C13.5344708,20.0861243 13.096527,20.1134958 13.0052887,20.6518018 C12.8228121,21.445575 13.0052887,21.8835189 13.5983376,22.0112525 C14.063653,22.1024908 14.5107207,22.1207385 15.0216552,22.1663576 L14.976036,22.1846053 Z M25.4958125,22.1846053 C25.976301,22.1503257 26.4545167,22.0894065 26.9282539,22.0021287 C27.6125411,21.8470236 27.4665599,21.2904699 27.4483122,20.8069069 C27.4300645,20.3233439 27.1745973,20.0952481 26.8005202,20.2047341 C25.8636935,20.4833405 24.9488044,20.8309984 24.0633711,21.2448507 C23.6619226,21.4364512 23.8079039,21.9656333 24.2640954,22.0659955 C24.6720969,22.1271896 25.0834142,22.1637512 25.4958125,22.1754814 L25.4958125,22.1846053 Z" id="形状" fill="#FFFFFF" fill-rule="nonzero"></path>
        <g id="编组" transform="translate(36.796194, 18.094176) rotate(-90.000000) translate(-36.796194, -18.094176) translate(30.070871, 9.120560)" fill="#FFFFFF" fill-rule="nonzero">
            <polygon id="路径-7" points="8.23464415 -5.77848259e-14 8.23464415 16.7125869 5.21600129 16.7125869 5.21600129 -5.77848259e-14"></polygon>
            <path d="M5.6580713,10.1546569 C6.21065882,9.60206937 7.08512183,9.56753266 7.67794378,10.0510467 L7.79257414,10.1546569 L13.4506454,15.8127282 L11.3161426,17.947231 L6.72537772,13.3562113 L2.13450284,17.947231 L0,15.8127282 L5.6580713,10.1546569 Z" id="路径" transform="translate(6.725323, 13.829909) rotate(-180.000000) translate(-6.725323, -13.829909) "></path>
        </g>
    </g>
</svg>