<?xml version="1.0" encoding="UTF-8"?>
<svg width="64px" height="64px" viewBox="0 0 64 64" version="1.1" xmlns="http://www.w3.org/2000/svg" xmlns:xlink="http://www.w3.org/1999/xlink">
    <title>物体横穿</title>
    <g id="物体横穿" stroke="none" stroke-width="1" fill="none" fill-rule="evenodd">
        <g id="编组" transform="translate(0.000000, 6.304146)" fill="#FFFFFF" fill-rule="nonzero">
            <polygon id="路径" transform="translate(13.629916, 25.696210) rotate(-15.000000) translate(-13.629916, -25.696210) " points="6.10686671 49.750692 19.2553853 1.11066046 21.1529662 1.64097952 8.00227792 50.2817592"></polygon>
            <polygon id="路径" transform="translate(56.124166, 25.695982) rotate(-345.000000) translate(-56.124166, -25.695982) " points="48.6053556 1.63852226 50.5029366 1.1082032 63.6429773 49.7612198 61.7443673 50.2837601"></polygon>
            <path d="M35.933897,2.426403 L33.9645975,2.426403 L33.9645975,10.480798 L35.933897,10.480798 L35.933897,2.426403 Z M35.933897,15.6321504 L33.9645975,15.6321504 L33.9645975,23.6865454 L35.933897,23.6865454 L35.933897,15.6321504 Z M35.933897,42.0436453 L33.9645975,42.0436453 L33.9645975,50.0980403 L35.933897,50.0980403 L35.933897,42.0436453 Z" id="形状"></path>
        </g>
        <path d="M34.2383627,28.2984096 C36.0601959,28.0260978 37.9123875,28.0260978 39.7342207,28.2984096 C41.0153065,28.5546268 42.2963922,28.7596005 43.5006129,29.0926828 C44.3966348,29.3209824 45.1126276,29.9934351 45.3966198,30.8733921 C45.9175947,32.3423704 46.4641913,33.7985379 47.0364096,35.2418945 C47.1388965,35.4853008 47.4463571,35.8440049 47.6257091,35.8183831 C48.6418449,35.6466759 49.6090669,36.3180417 49.8035549,37.3300644 C49.8681249,37.5908852 49.8681249,37.8635167 49.8035549,38.1243375 L48.3431171,38.5214741 C48.4335839,39.0298616 48.4934754,39.5432177 48.5224691,40.0587771 L48.5224691,47.1559923 C48.5059828,47.585117 48.3534407,47.9978779 48.0869,48.3345912 C46.7349561,48.5953849 45.3481954,48.6213867 43.9874255,48.4114563 C43.039422,47.809346 43.6287215,46.7972882 43.3212609,45.9773934 L30.8691071,45.9773934 C30.6257008,46.8485317 30.4847814,48.3089695 30.2029425,48.4114563 C28.8128826,48.6550822 27.391041,48.6550822 26.0009812,48.4114563 C25.7060208,48.0197554 25.544383,47.5438218 25.5397903,47.0535054 C25.4629251,46.0286368 25.4629251,45.0550116 25.4629251,44.0557647 C25.4629251,42.1981903 25.4629251,40.3406159 25.5397903,38.4702307 L24.1818394,38.1115267 C24.1367437,37.9047124 24.1367437,37.6906089 24.1818394,37.4837947 C24.5661651,36.458926 25.0785994,35.6646529 26.3981178,35.7799506 C26.5518481,35.7799506 26.8464978,35.47249 26.9361738,35.2418945 C27.4258897,34.1000342 27.8535418,32.9325439 28.2172596,31.7445304 C28.7099772,29.9894592 30.2434998,28.7268589 32.0605169,28.5802485 C32.7651141,28.4521399 33.495333,28.3624639 34.1999301,28.2471662 L34.2383627,28.2984096 Z M28.5759636,36.2155197 C34.10033,37.3845425 39.8081991,37.3845425 45.3325655,36.2155197 C44.8585638,34.7935145 44.3845621,33.5252396 44.0514798,32.2441538 C43.8473947,31.2369878 42.9523087,30.5198406 41.9248774,30.5403098 C39.2730298,30.425012 36.6083714,30.335336 33.9565238,30.3097143 C33.0900902,30.3436803 32.230413,30.4769303 31.3943523,30.7068509 C31.0090958,30.7857474 30.6719372,31.016678 30.4591597,31.3473938 C29.7417516,32.8975076 29.2036956,34.4988648 28.5759636,36.2155197 Z M29.6648865,42.2622446 C30.1232434,42.2870242 30.5829352,42.261247 31.0356483,42.1853795 C31.3896741,42.1036847 31.6923597,41.8755063 31.868354,41.5576474 C31.9324083,41.3654846 31.6377586,40.8914828 31.3815414,40.7761851 C30.3394777,40.28796 29.2701318,39.8602216 28.178827,39.4950993 C27.640771,39.3157473 27.0258498,39.3541799 26.8977412,40.1100205 C26.6415241,41.2245651 26.8977412,41.8394863 27.730447,42.0188383 C28.3838007,42.1469469 29.0115327,42.1725686 29.7289408,42.2366229 L29.6648865,42.2622446 Z M44.4358055,42.2622446 C45.110464,42.2141123 45.7819313,42.128575 46.4471102,42.0060274 C47.4079245,41.7882429 47.2029508,41.0067805 47.1773291,40.3278051 C47.1517073,39.6488296 46.7930033,39.3285582 46.2677582,39.4822885 C44.9523507,39.8734825 43.6677462,40.3616322 42.4245008,40.9427263 C41.8608231,41.2117543 42.0657968,41.954784 42.7063397,42.0957035 C43.2792185,42.1816267 43.8567531,42.2329631 44.4358055,42.2494337 L44.4358055,42.2622446 Z" id="形状" fill="#FFFFFF" fill-rule="nonzero"></path>
        <g id="编组" transform="translate(31.750000, 17.564269) rotate(-90.000000) translate(-31.750000, -17.564269) translate(21.662016, -8.685731)" fill="#FFFFFF" fill-rule="nonzero">
            <polygon id="路径-7" points="12.3519662 6.43111968 12.3519662 52.5 7.82400193 52.5 7.82400193 6.43111968"></polygon>
            <path d="M8.48710695,0.663105018 C9.31598823,-0.165776255 10.6276827,-0.217581334 11.5169157,0.50768978 L11.6888612,0.663105018 L20.1759682,9.15021197 L16.9742139,12.3519662 L10.0880666,5.46543667 L3.20175426,12.3519662 L0,9.15021197 L8.48710695,0.663105018 Z" id="路径-"></path>
        </g>
    </g>
</svg>