<?xml version="1.0" encoding="UTF-8"?>
<svg width="64px" height="64px" viewBox="0 0 64 64" version="1.1" xmlns="http://www.w3.org/2000/svg" xmlns:xlink="http://www.w3.org/1999/xlink">
    <title>物体车切出</title>
    <g id="物体车切出" stroke="none" stroke-width="1" fill="none" fill-rule="evenodd">
        <g id="编组-2" transform="translate(-6.000000, 6.304146)" fill-rule="nonzero">
            <g id="编组" transform="translate(0.000000, -0.000000)" fill="#FFFFFF">
                <polygon id="路径" points="12.5889665 50.878164 12.7004936 0.492414279 14.6706728 0.513533062 14.5572435 50.9005669"></polygon>
                <polygon id="路径" points="61.0880815 0.512248877 63.0582607 0.491130093 63.158238 50.8872281 61.1890783 50.9005669"></polygon>
                <path d="M35.933897,2.426403 L33.9645975,2.426403 L33.9645975,10.480798 L35.933897,10.480798 L35.933897,2.426403 Z M35.933897,15.6321504 L33.9645975,15.6321504 L33.9645975,23.6865454 L35.933897,23.6865454 L35.933897,15.6321504 Z M35.933897,42.0436453 L33.9645975,42.0436453 L33.9645975,50.0980403 L35.933897,50.0980403 L35.933897,42.0436453 Z M35.933897,29.0436453 L33.9645975,29.0436453 L33.9645975,37.0980403 L35.933897,37.0980403 L35.933897,29.0436453 Z" id="形状"></path>
            </g>
            <path d="M46.7618764,29.7617705 C48.1108761,29.5601337 49.4823551,29.5601337 50.8313548,29.7617705 C51.7799511,29.9514898 52.7285474,30.1032652 53.620228,30.3499003 C54.2836989,30.5189476 54.8138649,31.0168738 55.0241506,31.6684492 C55.4099131,32.756173 55.8146476,33.8344108 56.2383539,34.9031627 C56.3142416,35.083396 56.5419048,35.349003 56.6747083,35.3300311 C57.427119,35.2028882 58.1433109,35.7000097 58.287322,36.4493748 C58.3351337,36.6425029 58.3351337,36.8443764 58.287322,37.0375045 L57.2059222,37.3315694 C57.2729095,37.7080114 57.3172569,38.0881325 57.3387257,38.469885 L57.3387257,43.7251088 C57.3265182,44.0428596 57.2135665,44.3484937 57.0162029,44.5978174 C56.0151388,44.7909255 54.9882941,44.8101788 53.9806946,44.6547332 C53.2787333,44.2088929 53.7150876,43.4595018 53.4874245,42.8524001 L44.267068,42.8524001 C44.0868347,43.4974456 43.9824891,44.5788455 43.7737979,44.6547332 C42.7445103,44.8351291 41.6916895,44.8351291 40.6624019,44.6547332 C40.4439947,44.3646932 40.3243079,44.0122821 40.3209072,43.649221 C40.2639914,42.890344 40.2639914,42.1694107 40.2639914,41.4295056 C40.2639914,40.0540409 40.2639914,38.6785762 40.3209072,37.2936255 L39.3153951,37.0280185 C39.2820034,36.8748803 39.2820034,36.7163446 39.3153951,36.5632063 C39.599974,35.8043293 39.9794125,35.2161995 40.9564668,35.3015732 C41.0702983,35.3015732 41.2884755,35.0739101 41.3548772,34.9031627 C41.7174937,34.0576576 42.0341542,33.1931745 42.3034736,32.3134947 C42.6683127,31.0139298 43.8038291,30.0790212 45.1492626,29.9704617 C45.6709906,29.8756021 46.2116905,29.8092003 46.7334185,29.7238267 L46.7618764,29.7617705 Z M43.0712797,35.4733745 C46.8307345,36.2689206 50.7150669,36.2689206 54.4745216,35.4733745 C54.1519528,34.5056682 53.8293841,33.6425788 53.6027141,32.7707713 C53.4638297,32.0853723 52.8547037,31.5973376 52.1555137,31.6112674 C50.3508722,31.5328047 48.5375127,31.4717782 46.7328712,31.454342 C46.1432437,31.4774567 45.5582142,31.5681362 44.9892562,31.7246023 C44.7270806,31.7782932 44.4976366,31.9354466 44.3528367,32.1605061 C43.8646246,33.2153931 43.4984654,34.3051525 43.0712797,35.4733745 Z M43.3753875,40.1014707 C43.7147837,40.119819 44.0551684,40.100732 44.3903856,40.0445549 C44.6525285,39.984063 44.8766559,39.8151054 45.0069732,39.5797427 C45.054403,39.4374533 44.8362258,39.0864726 44.6465066,39.0010989 C43.8748972,38.6395864 43.0830863,38.3228621 42.2750157,38.0525026 C41.8766052,37.9196991 41.421279,37.948157 41.3264194,38.5078288 C41.1367001,39.3331077 41.3264194,39.7884339 41.943007,39.9212374 C42.4267911,40.016097 42.8916033,40.035069 43.4228173,40.0824988 L43.3753875,40.1014707 Z M54.3127033,40.1014707 C54.8122628,40.0658305 55.3094594,40.0024934 55.8019996,39.9117514 C56.5134469,39.7504901 56.3616715,39.1718463 56.3426995,38.6690902 C56.3237276,38.1663342 56.0581206,37.9291851 55.6691961,38.0430166 C54.6951859,38.3326812 53.743984,38.6941379 52.8234071,39.1244165 C52.4060247,39.3236217 52.5578001,39.8738076 53.0320983,39.9781532 C53.4562938,40.0417762 53.8839366,40.0797889 54.3127033,40.0919847 L54.3127033,40.1014707 Z" id="形状" fill="#FF7C61"></path>
            <path d="M46.7618764,5.9412577 C48.1108761,5.73962092 49.4823551,5.73962092 50.8313548,5.9412577 C51.7799511,6.13097697 52.7285474,6.28275239 53.620228,6.52938744 C54.2836989,6.69843476 54.8138649,7.19636095 55.0241506,7.84793636 C55.4099131,8.93566017 55.8146476,10.013898 56.2383539,11.0826499 C56.3142416,11.2628832 56.5419048,11.5284902 56.6747083,11.5095183 C57.427119,11.3823754 58.1433109,11.8794968 58.287322,12.6288619 C58.3351337,12.8219901 58.3351337,13.0238636 58.287322,13.2169917 L57.2059222,13.5110566 C57.2729095,13.8874986 57.3172569,14.2676197 57.3387257,14.6493722 L57.3387257,19.9045959 C57.3265182,20.2223468 57.2135665,20.5279809 57.0162029,20.7773046 C56.0151388,20.9704126 54.9882941,20.989666 53.9806946,20.8342203 C53.2787333,20.3883801 53.7150876,19.638989 53.4874245,19.0318873 L44.267068,19.0318873 C44.0868347,19.6769328 43.9824891,20.7583326 43.7737979,20.8342203 C42.7445103,21.0146163 41.6916895,21.0146163 40.6624019,20.8342203 C40.4439947,20.5441804 40.3243079,20.1917693 40.3209072,19.8287082 C40.2639914,19.0698311 40.2639914,18.3488979 40.2639914,17.6089928 C40.2639914,16.2335281 40.2639914,14.8580634 40.3209072,13.4731127 L39.3153951,13.2075057 C39.2820034,13.0543674 39.2820034,12.8958318 39.3153951,12.7426935 C39.599974,11.9838164 39.9794125,11.3956867 40.9564668,11.4810604 C41.0702983,11.4810604 41.2884755,11.2533972 41.3548772,11.0826499 C41.7174937,10.2371448 42.0341542,9.37266169 42.3034736,8.49298188 C42.6683127,7.19341697 43.8038291,6.25850842 45.1492626,6.1499489 C45.6709906,6.05508926 46.2116905,5.98868752 46.7334185,5.90331385 L46.7618764,5.9412577 Z M43.0712797,11.6528617 C46.8307345,12.4484078 50.7150669,12.4484078 54.4745216,11.6528617 C54.1519528,10.6851554 53.8293841,9.82206599 53.6027141,8.95025851 C53.4638297,8.26485952 52.8547037,7.77682482 52.1555137,7.79075456 C50.3508722,7.71229188 48.5375127,7.65126536 46.7328712,7.63382921 C46.1432437,7.65694383 45.5582142,7.74762341 44.9892562,7.90408953 C44.7270806,7.95778035 44.4976366,8.11493377 44.3528367,8.33999327 C43.8646246,9.39488032 43.4984654,10.4846397 43.0712797,11.6528617 Z M43.3753875,16.2809579 C43.7147837,16.2993062 44.0551684,16.2802192 44.3903856,16.2240421 C44.6525285,16.1635502 44.8766559,15.9945926 45.0069732,15.7592299 C45.054403,15.6169404 44.8362258,15.2659598 44.6465066,15.1805861 C43.8748972,14.8190736 43.0830863,14.5023493 42.2750157,14.2319898 C41.8766052,14.0991863 41.421279,14.1276442 41.3264194,14.687316 C41.1367001,15.5125948 41.3264194,15.9679211 41.943007,16.1007246 C42.4267911,16.1955842 42.8916033,16.2145561 43.4228173,16.261986 L43.3753875,16.2809579 Z M54.3127033,16.2809579 C54.8122628,16.2453177 55.3094594,16.1819805 55.8019996,16.0912386 C56.5134469,15.9299772 56.3616715,15.3513335 56.3426995,14.8485774 C56.3237276,14.3458213 56.0581206,14.1086722 55.6691961,14.2225038 C54.6951859,14.5121684 53.743984,14.8736251 52.8234071,15.3039036 C52.4060247,15.5031089 52.5578001,16.0532948 53.0320983,16.1576404 C53.4562938,16.2212633 53.8839366,16.259276 54.3127033,16.2714719 L54.3127033,16.2809579 Z" id="形状" fill="#FFFFFF"></path>
            <g id="编组" transform="translate(31.790351, 11.790030) rotate(-90.000000) translate(-31.790351, -11.790030) translate(25.065029, 1.790030)" fill="#FFFFFF">
                <polygon id="路径-7" points="8.23464415 2.28741312 8.23464415 20 5.21600129 20 5.21600129 2.28741312"></polygon>
                <path d="M5.6580713,0.442070012 C6.21065882,-0.110517503 7.08512183,-0.145054223 7.67794378,0.338459853 L7.79257414,0.442070012 L13.4506454,6.10014131 L11.3161426,8.23464415 L6.72537772,3.64362445 L2.13450284,8.23464415 L0,6.10014131 L5.6580713,0.442070012 Z" id="路径-"></path>
            </g>
        </g>
    </g>
</svg>