<svg xmlns="http://www.w3.org/2000/svg" viewBox="0 0 64 64"><defs><style>.cls-1{fill:none;}.cls-2{fill:#fff;}</style></defs><title>物体车向右换道</title><g id="图层_2" data-name="图层 2"><g id="图层_1-2" data-name="图层 1"><g id="物体车向右换道"><path id="矩形" class="cls-1" d="M12,0H52A12,12,0,0,1,64,12V52A12,12,0,0,1,52,64H12A12,12,0,0,1,0,52V12A12,12,0,0,1,12,0Z"/><g id="编组"><polygon id="路径" class="cls-2" points="6.59 57.18 6.7 6.8 8.67 6.82 8.56 57.2 6.59 57.18"/><polygon class="cls-2" points="55.09 6.82 57.06 6.79 57.16 57.19 55.19 57.2 55.09 6.82"/><path id="形状" class="cls-2" d="M32.93,8.73H31v8.05h2Zm0,13.21H31v8h2Zm0,26.41H31v8h2Zm0-13H31v8h2Z"/></g><path class="cls-2" d="M18.23,23.24a13.55,13.55,0,0,1,3.92,0c.91.18,1.82.33,2.68.57a1.91,1.91,0,0,1,1.35,1.26c.37,1.05.76,2.09,1.17,3.11.07.18.29.43.42.42a1.34,1.34,0,0,1,1.55,1.07,1.37,1.37,0,0,1,0,.57l-1,.28a10,10,0,0,1,.13,1.1v5.05a1.49,1.49,0,0,1-.31.84,8.43,8.43,0,0,1-2.92.05c-.68-.42-.26-1.15-.48-1.73H15.83c-.17.62-.27,1.66-.47,1.73a8.35,8.35,0,0,1-3,0,1.57,1.57,0,0,1-.33-1C12,35.87,12,35.17,12,34.46c0-1.32,0-2.64.06-4l-1-.25a1.14,1.14,0,0,1,0-.45c.27-.73.64-1.29,1.58-1.21.11,0,.32-.22.38-.39A23.92,23.92,0,0,0,14,25.69a3.09,3.09,0,0,1,2.73-2.25c.5-.09,1-.15,1.53-.24Zm-3.55,5.49a26.34,26.34,0,0,0,11,0c-.31-.93-.62-1.76-.84-2.6A1.39,1.39,0,0,0,23.42,25c-1.73-.08-3.48-.14-5.21-.15a7.35,7.35,0,0,0-1.68.26.94.94,0,0,0-.61.42C15.45,26.56,15.09,27.61,14.68,28.73Zm.3,4.45a4.51,4.51,0,0,0,1,0,.94.94,0,0,0,.6-.45c0-.13-.17-.47-.35-.55a21.3,21.3,0,0,0-2.28-.92c-.39-.12-.82-.1-.91.44-.19.8,0,1.23.59,1.36s.91.11,1.42.16Zm10.52,0A11.64,11.64,0,0,0,26.93,33c.68-.15.54-.71.52-1.19s-.28-.71-.65-.61a20.58,20.58,0,0,0-2.74,1c-.4.2-.25.73.2.83s.82.09,1.24.11Z"/><polygon id="路径-7" class="cls-2" points="30.82 27.59 47.53 27.59 47.53 30.6 30.82 30.6 30.82 27.59"/><path class="cls-2" d="M48.33,28a1.52,1.52,0,0,1,.1,2l-.1.11-5.66,5.66-2.13-2.14,4.59-4.59L40.54,24.5l2.13-2.13Z"/></g></g></g></svg>