<?xml version="1.0" encoding="UTF-8"?>
<svg width="64px" height="64px" viewBox="0 0 64 64" version="1.1" xmlns="http://www.w3.org/2000/svg" xmlns:xlink="http://www.w3.org/1999/xlink">
    <title>生成感知视频</title>
    <g id="生成感知视频" stroke="none" stroke-width="1" fill="none" fill-rule="evenodd">
        <g id="编组" transform="translate(8.994389, 16.306641)" fill="#FFFFFF" fill-rule="nonzero">
            <path d="M30.9514476,0 C34.2762877,0 36.0344279,1.58547913 36.122403,4.7168478 L36.1258766,4.96727207 L36.1258766,7.36432296 C42.0197231,4.52220104 45.0522712,3.1550009 45.2235209,3.26272253 C45.2830138,3.29994534 45.3390592,3.40866882 45.3916843,3.58098192 L45.4431702,3.77419857 C45.4515616,3.80983643 45.4598581,3.84716742 45.4680601,3.88615492 L45.5161371,4.13966493 L45.5840076,4.59062694 L45.6264334,4.93583585 L45.6666092,5.31464781 L45.7226675,5.94202581 L45.757245,6.39715411 L45.8197197,7.38800274 L45.8733278,8.47458739 L45.9181176,9.642844 L45.9541377,10.8787085 L45.9814364,12.1681168 L46.0000621,13.4970049 L46.0112217,15.1922078 L46.0112217,16.3959009 L45.9911014,18.767158 L45.9610239,20.4106214 L45.9076633,22.2839459 L45.8617001,23.4509559 L45.8074816,24.5360594 L45.7450563,25.5251924 L45.6744727,26.4042908 L45.6361367,26.798182 L45.5748443,27.3270019 L45.531466,27.6356401 L45.4860813,27.9071006 L45.4386964,28.1396255 C45.3741858,28.4229201 45.3043572,28.5976982 45.2292753,28.6452077 C45.0927051,28.7311395 42.060157,27.3639393 36.131631,24.5436073 L36.131631,27.0327279 C36.131631,30.2454318 34.4587431,31.9132879 31.2164325,31.9967068 L30.9572019,32 L5.17442906,32 C1.84958894,32 0.0914487234,30.4145209 0.00347364332,27.2831522 L0,27.0327279 L0,4.97302643 C0,1.76254744 1.67057169,0.0947772153 4.90846464,0.00391123915 L5.17442906,0 L30.9514476,0 Z M5.17948807,2.99999573 C3.44763374,3.00291623 3.02919388,3.34452183 3.00151432,4.80599261 L3,27.0327279 C3,28.5203468 3.32910686,28.9415152 4.81149252,28.9940922 L5.17442906,28.9999957 L30.9572019,28.9999957 L31.3201385,28.9940922 C32.7455093,28.9435374 33.1046091,28.5521991 33.1301236,27.1996832 L33.131631,18.844369 L42.1597223,23.8433358 L42.768,24.07 L42.8051207,23.4922017 L42.8992121,9.16951406 L42.8609074,9.26815788 L42.798114,8.10966085 L42.779,7.811 L42.1599017,8.04306855 L33.1258766,12.0902262 L33.1258766,4.96727207 C33.1258766,3.42243706 32.770967,3.0276648 31.1381746,3.00143723 L5.17948807,2.99999573 Z" id="路径"></path>
            <path d="M15.3172148,20.2356398 L15.3172148,11.7177254 C15.3172148,11.1654406 15.7649301,10.7177254 16.3172148,10.7177254 C16.5103795,10.7177254 16.6994102,10.7736706 16.861461,10.8787998 L23.4244442,15.1364823 C23.88777,15.4370611 24.0197025,16.0563282 23.7191236,16.519654 C23.6427318,16.6374077 23.5424064,16.7377606 23.4246735,16.8141846 L16.8616903,21.0744166 C16.3984467,21.3751221 15.7791436,21.2433589 15.4784381,20.7801153 C15.3732139,20.6180152 15.3172148,20.4288976 15.3172148,20.2356398 Z" id="路径"></path>
        </g>
    </g>
</svg>