<?xml version="1.0" encoding="UTF-8"?>
<svg width="64px" height="64px" viewBox="0 0 64 64" version="1.1" xmlns="http://www.w3.org/2000/svg" xmlns:xlink="http://www.w3.org/1999/xlink">
    <title>生成场景标签</title>
    <g id="生成场景标签" stroke="none" stroke-width="1" fill="none" fill-rule="evenodd">
        <g id="编组" transform="translate(23.510471, 37.052702) rotate(-315.000000) translate(-23.510471, -37.052702) translate(4.594576, 18.152490)" fill="#FFFFFF" fill-rule="nonzero">
            <path d="M14.2472934,0.0148210873 L4.90042993,0.0148210873 C3.58488299,0.0148210873 1.7092136,-0.170484915 0.769364322,0.76936436 C-0.170484946,1.70921363 0.0148210951,3.58488303 0.0148210951,4.90042997 L0.0148210951,14.2159281 C0.0148210951,15.3100495 0.274607687,16.4738934 0.77565083,17.6301467 C1.24481373,18.7492487 1.07806464,18.9353134 1.77333943,19.6577381 L18.7140762,36.5978539 C19.6493148,37.5330926 20.6294224,37.800424 21.9526381,37.800424 C23.2437027,37.800424 23.8919748,36.8333544 24.8536252,35.9476238 L35.9221124,24.881522 C36.8463492,23.8760572 37.8317893,23.2287846 37.8317893,21.9526381 C37.8317893,20.6615735 37.5718264,19.7036234 36.6860959,18.741973 L19.8616887,1.94654706 C19.1157748,1.20063186 18.842074,1.28722772 17.661512,0.775650822 C16.4507012,0.267739749 15.3277424,0.0148210873 14.2472934,0.0148210873 Z M4.90042993,4.01482109 L14.2472934,4.01482109 C14.7620842,4.01482109 15.3685383,4.15140985 16.0928437,4.45515082 C16.8222168,4.77136497 17.3869061,5.12861743 17.7417514,5.48346271 L33.0950683,20.805413 C33.2474395,20.9734541 33.323397,21.1649991 33.323397,21.4442457 C33.323397,21.6888752 33.2401667,21.8905033 33.0335905,22.1158592 L22.0844602,33.06232 C21.9150373,33.2160742 21.7234923,33.2920317 21.4442457,33.2920317 C21.1595277,33.2920317 21.0033724,33.2302959 20.8353965,33.06232 L5.48346272,17.7103862 C5.09865694,17.3448277 4.78250754,16.8420983 4.45515083,16.0614785 C4.15480898,15.36803 4.0148211,14.7408843 4.0148211,14.2159281 L4.0148211,4.90042997 C4.0148211,4.66593699 4.08851642,4.49464515 4.29158077,4.29158081 C4.49464515,4.08851642 4.665937,4.01482109 4.90042993,4.01482109 Z" id="路径"></path>
            <path d="M12.2812008,12.3125662 C11.7166252,12.8771418 11.042271,13.143747 10.2581381,13.143747 C9.47400525,13.143747 8.79965102,12.8771418 8.23507537,12.3125662 C7.67049973,11.7479905 7.40389455,11.0736363 7.40389455,10.2895034 C7.40389455,9.50537057 7.67049973,8.83101634 8.23507537,8.2664407 C8.79965102,7.70186505 9.47400525,7.43525987 10.2581381,7.43525987 C11.042271,7.43525987 11.7166252,7.70186505 12.2812008,8.2664407 C12.8457765,8.83101634 13.096699,9.50537057 13.096699,10.2895034 C13.1437469,11.0893189 12.8457765,11.7479905 12.2812008,12.3125662 L12.2812008,12.3125662 L12.2812008,12.3125662 Z" id="路径"></path>
        </g>
        <g id="编组" transform="translate(37.000000, 10.632488)" fill="#FFFFFF" fill-rule="nonzero">
            <path d="M0.779132765,10.4623604 L6.56813846,10.4623604 C6.56813846,11.1659472 6.54735741,11.7982847 6.52509201,12.3682791 C6.47017067,13.7828746 6.37665596,14.8159895 6.27720381,15.5819195 C5.37025959,22.7068496 0.587650269,24.5712063 0.587650269,24.5712063 C9.17319102,24.5712063 12.0899593,16.5779253 13.0295594,12.3682791 C13.2076827,11.5696932 13.316041,10.9076685 13.3768998,10.4623604 L18.7873936,10.4623604 C19.5874638,10.4623604 19.8071492,10.003693 19.2787169,9.44408909 L14.1858762,4.0603138 L10.7451287,0.422146374 C10.4964648,0.153031321 10.1467049,0 9.78029444,0 C9.41388394,0 9.06412406,0.153031321 8.81546016,0.422146374 L5.37768139,4.0603138 L0.287809462,9.44408909 C-0.240622853,10.0081461 -0.0209375087,10.4623604 0.779132765,10.4623604 Z" id="路径"></path>
        </g>
    </g>
</svg>