<svg xmlns="http://www.w3.org/2000/svg" viewBox="0 0 45.8 45.7"><defs><style>.cls-1{fill:#fff;}</style></defs><g id="图层_2" data-name="图层 2"><g id="图层_1-2" data-name="图层 1"><path class="cls-1" d="M13.7,9A6.44,6.44,0,0,0,7.3,2.6a6.4,6.4,0,1,0,0,12.8A6.38,6.38,0,0,0,13.7,9ZM7.3,11.8a2.8,2.8,0,0,1,0-5.6A2.68,2.68,0,0,1,10.1,9,2.8,2.8,0,0,1,7.3,11.8Z"/><path class="cls-1" d="M45.7,18.3a1.77,1.77,0,0,0-2.2-1.2L33.7,20V17.2a1.79,1.79,0,0,0-1.8-1.8H1.8A1.79,1.79,0,0,0,0,17.2V37.8a1.79,1.79,0,0,0,1.8,1.8H7.29L5.7,43.1a2.35,2.35,0,0,0-.2.8,1.79,1.79,0,0,0,1.8,1.8A1.91,1.91,0,0,0,9,44.6l2.27-5H22l2.32,5.1a1.78,1.78,0,0,0,1.6,1c.3,0,.6-.1.8-.1a1.83,1.83,0,0,0,.9-2.4L26,39.6H31.9a1.79,1.79,0,0,0,1.8-1.8V35l9.8,2.92.5.1a1.79,1.79,0,0,0,1.8-1.8V18.8C45.8,18.6,45.7,18.5,45.7,18.3ZM30.1,22.4V36H3.6V19H30.1ZM42.2,33.8l-8.5-2.5V23.7l8.5-2.5Z"/><path class="cls-1" d="M9.3,35.1h15a4.31,4.31,0,0,0,4.4-4.4,4.44,4.44,0,0,0-4.4-4.4H9.3a4.4,4.4,0,1,0,0,8.8Zm0-5.3h15a.8.8,0,1,1,0,1.6H9.3a.86.86,0,0,1-.8-.8A.79.79,0,0,1,9.3,29.8Z"/><path class="cls-1" d="M29.5,7.7a7.7,7.7,0,1,0-15.4,0,7.7,7.7,0,1,0,15.4,0Zm-7.7,4.2A4.2,4.2,0,1,1,26,7.7,4.23,4.23,0,0,1,21.8,11.9Z"/><path class="cls-1" d="M24.6,24h2.1a1.8,1.8,0,0,0,0-3.6H24.6a1.8,1.8,0,0,0,0,3.6Z"/></g></g></svg>