<svg xmlns="http://www.w3.org/2000/svg" viewBox="0 0 44.93 51.14"><defs><style>.cls-1{fill:#fff;}</style></defs><g id="图层_2" data-name="图层 2"><g id="图层_1-2" data-name="图层 1"><path class="cls-1" d="M43.49,34.65V16.82A2.55,2.55,0,0,0,42.38,12a2.59,2.59,0,0,0-1.11.26L24.93,2.8a1.9,1.9,0,0,0,0-.25h0a2.55,2.55,0,0,0-5.1,0,3,3,0,0,0,0,.31L3.6,12.21A2.6,2.6,0,0,0,2.55,12a2.54,2.54,0,0,0-1.22,4.78v18a2.54,2.54,0,0,0,1.22,4.78,2.51,2.51,0,0,0,1.25-.34l16.07,9.29c0,.05,0,.1,0,.15a2.55,2.55,0,0,0,5.1,0h0a1.9,1.9,0,0,0,0-.25l16-9.27a2.62,2.62,0,0,0,1.41.42,2.55,2.55,0,0,0,1.11-4.84ZM24.94,25.87c0-.08,0-.16,0-.24h0a3.16,3.16,0,0,0,0-.32l15.91-8.75a2.34,2.34,0,0,0,.43.26V34.65a2.34,2.34,0,0,0-.47.3Zm14.9-11.19-16,8.85a3.06,3.06,0,0,0-.57-.29V4.94a2.59,2.59,0,0,0,.59-.32l16,9.25a2.84,2.84,0,0,0-.1.66C39.82,14.58,39.84,14.63,39.84,14.68ZM21.3,4.84v18.5a1.63,1.63,0,0,0-.34.19L5.08,14.79a2.28,2.28,0,0,0,0-.26A2.46,2.46,0,0,0,5,13.81L20.93,4.62A1.72,1.72,0,0,0,21.3,4.84ZM4,16.63l15.88,8.76a1.45,1.45,0,0,0,0,.48L4.09,34.92a2.69,2.69,0,0,0-.54-.33V16.88A2.46,2.46,0,0,0,4,16.63Zm1.07,20,15.76-9a2.3,2.3,0,0,0,.58.35V46.24a2.31,2.31,0,0,0-.48.28L5.06,37.37a3,3,0,0,0,0-.43C5.1,36.84,5.08,36.74,5.07,36.64Zm18.34,9.6V28a1.86,1.86,0,0,0,.49-.29L39.84,36.8c0,.05,0,.09,0,.14a2.21,2.21,0,0,0,0,.37l-16,9.21A2.31,2.31,0,0,0,23.41,46.24Z"/></g></g></svg>