<svg xmlns="http://www.w3.org/2000/svg" viewBox="0 0 58.65 46.6"><defs><style>.cls-1{fill:#fff;}</style></defs><g id="图层_2" data-name="图层 2"><g id="图层_1-2" data-name="图层 1"><path class="cls-1" d="M27.47,15.75,15.49,20a1.91,1.91,0,0,0-1.33,1.79V36.09L1.11,43a1.9,1.9,0,0,0,1.52,3.48l13.24-7,12.7,6a1.61,1.61,0,0,0,1.51,0l12.7-6,13.24,7A1.9,1.9,0,0,0,57.54,43l-13-6.88V21.78A1.91,1.91,0,0,0,43.2,20L31.26,15.75V1.9a1.9,1.9,0,1,0-3.79,0Zm1.89,9.72L21,22l7.77-2.69a1.48,1.48,0,0,1,1.13,0L37.67,22Zm1.9,3.32,9.48-4V36.2l-9.48,4.44Zm-3.79,0-9.48-4V36.2l9.48,4.44Z"/></g></g></svg>