<svg xmlns="http://www.w3.org/2000/svg" viewBox="0 0 49.59 44.26"><defs><style>.cls-1{fill:#fff;}</style></defs><g id="图层_2" data-name="图层 2"><g id="图层_1-2" data-name="图层 1"><path class="cls-1" d="M41.57,14.79A54.22,54.22,0,0,0,24.8,12.41h-.4a39.65,39.65,0,0,1,5.05-5.49,14.71,14.71,0,0,1,4-2.64,2.31,2.31,0,0,1,1.79-.17A2.53,2.53,0,0,1,36,6a16.51,16.51,0,0,1-.48,5.3l3.88.88A19.77,19.77,0,0,0,40,5.46,6.18,6.18,0,0,0,37.22.65C35.38-.41,32.1-.7,26.82,3.92a48,48,0,0,0-7.52,8.71c-1.62.13-3.19.32-4.69.57-.27-.93-.49-1.83-.66-2.68a14.44,14.44,0,0,1-.29-4.78,2.27,2.27,0,0,1,.74-1.63C15,3.78,17,4,20.51,7.23l2.68-2.95A19,19,0,0,0,17.82.64a6.14,6.14,0,0,0-5.41,0C10.57,1.71,8.67,4.42,10,11.29c.17.88.39,1.78.66,2.71-.94.24-1.83.5-2.67.79C1.39,17.05,0,20,0,22.16a6.15,6.15,0,0,0,2.73,4.72,19.61,19.61,0,0,0,5.91,2.84l1.21-3.8C5.21,24.45,4,22.82,4,22.16c0-.4.38-.93,1-1.46a14.61,14.61,0,0,1,4.28-2.14C10.15,18.28,11,18,12,17.8c.54,1.42,1.16,2.88,1.86,4.35a59.47,59.47,0,0,0-2.47,6.06,29.33,29.33,0,0,0-1.76,9.07c0,2.15.51,5,2.83,6.33a4.94,4.94,0,0,0,2.5.65,7.9,7.9,0,0,0,3-.65,19.07,19.07,0,0,0,5.4-3.67L20.58,37c-3.57,3.26-5.6,3.5-6.17,3.17-.39-.23-.82-1.11-.83-2.91a25.12,25.12,0,0,1,1.55-7.77c.31-.92.66-1.86,1-2.81a3.72,3.72,0,0,1,.19.34,63.08,63.08,0,0,0,7,9.82,29.33,29.33,0,0,0,7,6.06,9.31,9.31,0,0,0,4.42,1.37,4.93,4.93,0,0,0,2.49-.65C39.53,42.27,40,39.42,40,37.26a29.44,29.44,0,0,0-1.76-9.07,55.23,55.23,0,0,0-2.18-5.45l-3.63,1.68a49,49,0,0,1,2,5.06,25.42,25.42,0,0,1,1.55,7.78c0,1.79-.44,2.68-.84,2.9s-1.38.17-2.93-.73a25,25,0,0,1-6-5.23A58,58,0,0,1,19.82,25c-.55-1-1.07-1.91-1.56-2.87.49-1,1-1.93,1.57-2.89s1.12-1.87,1.7-2.77c1.07-.06,2.16-.08,3.27-.08a50.21,50.21,0,0,1,15.48,2.16,14.38,14.38,0,0,1,4.28,2.13c.67.54,1,1.07,1,1.46s-.44,1-1.2,1.59A16.29,16.29,0,0,1,39.62,26l1.19,3.8a19.29,19.29,0,0,0,6-2.85,6.17,6.17,0,0,0,2.78-4.76C49.6,20,48.2,17.05,41.57,14.79ZM16.38,17.26l-.21.37-.24-.6.64-.09Z"/><path class="cls-1" d="M21.28,22.88a5,5,0,1,0,5-5A5,5,0,0,0,21.28,22.88Z"/></g></g></svg>