<?xml version="1.0" encoding="UTF-8"?>
<svg width="64px" height="64px" viewBox="0 0 64 64" version="1.1" xmlns="http://www.w3.org/2000/svg" xmlns:xlink="http://www.w3.org/1999/xlink">
    <title>语义打标</title>
    <g id="语义打标" stroke="none" stroke-width="1" fill="none" fill-rule="evenodd">
        <g id="编组" transform="translate(10.287269, 12.266667)" fill="#FFFFFF" fill-rule="nonzero">
            <path d="M12.2324723,0.999999954 L2.88560884,0.999999954 C1.5700619,0.999999954 0.388181823,1.50848327 -0.551667453,2.44833255 C-1.49151672,3.38818182 -2,4.57006189 -2,5.88560884 L-2,15.201107 C-2,16.2952283 -1.74021341,17.4590722 -1.23917027,18.6153256 C-0.770007365,19.7344275 -0.229649673,20.627599 0.465625111,21.3500238 L16.6992551,37.5830327 C17.6344938,38.5182714 18.8133157,38.9843173 20.1365314,38.9843173 C21.427596,38.9843173 22.5842604,38.52564 23.5459109,37.6399094 L34.6143981,26.5738076 C35.5386349,25.5683429 36.0156826,24.4126778 36.0156826,23.1365314 C36.0156826,21.8454668 35.5570053,20.6888023 34.6712748,19.7271518 L18.5539744,3.63883271 C17.8080605,2.8929175 16.8272529,2.27240659 15.6466909,1.76082969 C14.4358801,1.25291862 13.3129213,0.999999954 12.2324723,0.999999954 Z M2.88560884,4.99999995 L12.2324723,4.99999995 C12.7472631,4.99999995 13.3537172,5.13658872 14.0780226,5.44032969 C14.8073957,5.75654384 15.372085,6.11379629 15.7269303,6.46864158 L31.787354,22.4976986 C31.9397252,22.6657398 32.0156826,22.8572847 32.0156826,23.1365314 C32.0156826,23.3811608 31.9324524,23.582789 31.7258762,23.8081448 L20.7767459,34.7546056 C20.607323,34.9083598 20.415778,34.9843173 20.1365314,34.9843173 C19.8518134,34.9843173 19.6956581,34.9225815 19.5276822,34.7546056 L3.46864162,18.695565 C3.08383585,18.3300066 2.76768645,17.8272772 2.44032973,17.0466573 C2.13998788,16.3532089 2,15.7260632 2,15.201107 L2,5.88560884 C2,5.65111586 2.07369532,5.47982402 2.27675967,5.27675967 C2.47982406,5.07369529 2.6511159,4.99999995 2.88560884,4.99999995 Z" id="路径"></path>
            <path d="M9.20571957,12.2370849 C8.64114392,12.8016605 7.96678969,13.0682657 7.18265684,13.0682657 C6.39852398,13.0682657 5.72416975,12.8016605 5.15959411,12.2370849 C4.59501846,11.6725092 4.32841328,10.998155 4.32841328,10.2140221 C4.32841328,9.42988927 4.59501846,8.75553504 5.15959411,8.19095939 C5.72416975,7.62638375 6.39852398,7.35977857 7.18265684,7.35977857 C7.96678969,7.35977857 8.64114392,7.62638375 9.20571957,8.19095939 C9.77029521,8.75553504 10.0212177,9.42988927 10.0212177,10.2140221 C10.0682657,11.0138376 9.77029521,11.6725092 9.20571957,12.2370849 L9.20571957,12.2370849 L9.20571957,12.2370849 Z" id="路径"></path>
            <path d="M26.7509225,2.05442801 C26.1863468,1.48985237 25.402214,1.00369002 24.4612546,0.595940929 C23.4889299,0.188191882 22.6263838,0 21.8422509,0 L16.7924354,0 C17.5765683,0 18.4704797,0.188191882 19.4114391,0.595940974 C20.3837639,1.00369007 21.1365314,1.45848708 21.701107,2.05442806 L39.7601476,21.0664207 C40.3247233,21.6623616 40.5913284,22.3367159 40.5913284,23.1208487 C40.5913284,23.9049816 40.3247233,24.5793358 39.7601476,25.1439114 L29.2370849,35.6983395 C29.6918819,36.1531365 30.099631,36.4824723 30.4289668,36.7020295 C30.7583026,36.9215867 31.2130996,37 31.74631,37 C32.5304428,37 33.204797,36.7333948 33.800738,36.1688191 L44.8099631,25.1282287 C45.3745387,24.5636531 45.6254612,23.8892988 45.6254612,23.105166 C45.6254612,22.3210331 45.3588561,21.6780443 44.8099631,21.0664207 L26.7509225,2.05442801 Z" id="路径"></path>
        </g>
    </g>
</svg>