<?xml version="1.0" encoding="UTF-8"?>
<svg width="64px" height="64px" viewBox="0 0 64 64" version="1.1" xmlns="http://www.w3.org/2000/svg" xmlns:xlink="http://www.w3.org/1999/xlink">
    <title>语义标准化</title>
    <g id="语义标准化" stroke="none" stroke-width="1" fill="none" fill-rule="evenodd">
        <g id="编组" transform="translate(8.887333, 11.259766)" fill="#FFFFFF" fill-rule="nonzero">
            <path d="M35.5341906,33.9190001 L29.8759764,33.9190001 L27.6248047,28.0487922 L17.3279654,28.0487922 L15.2080279,33.9190001 L9.69114289,33.9190001 L19.7204663,8.07595241 L25.2171614,8.07595241 L35.5341906,33.9190001 Z M25.9591395,23.6928254 L22.4107679,14.1026319 L18.9330609,23.6928254 L25.9591395,23.6928254 Z" id="形状"></path>
            <path d="M5.40079317,5.04242279 C5.98125225,5.90049273 6.96550895,6.46076193 8.07595241,6.46076193 C9.85770941,6.46076193 11.3063334,5.01213796 11.3063334,3.23038096 C11.3063334,1.44862396 9.85770941,0 8.07595241,0 C6.82922726,0 5.74906862,0.706645836 5.2089893,1.74137724 C2.24107679,2.35212114 0,5.08280255 0,8.35861074 L0,33.6413893 C0,36.9171975 2.24107679,39.6478789 5.2089893,40.2586228 C5.74906862,41.2883067 6.82922726,41.9949525 8.07595241,41.9949525 C9.85770941,41.9949525 11.3063334,40.5463286 11.3063334,38.7645716 C11.3063334,36.9828146 9.85770941,35.5341906 8.07595241,35.5341906 C6.96046148,35.5341906 5.98125225,36.0995073 5.40079317,36.9525297 C4.13892561,36.4730201 3.23038096,35.1707727 3.23038096,33.6363418 L3.23038096,8.35861074 C3.23038096,6.82417979 4.13892561,5.51688499 5.40079317,5.04242279 Z M40.0163442,1.74137724 C39.4762649,0.706645836 38.3961062,0 37.1493811,0 C35.3676241,0 33.9190001,1.44862396 33.9190001,3.23038096 C33.9190001,5.01213796 35.3676241,6.46076193 37.1493811,6.46076193 C38.264872,6.46076193 39.2440812,5.89544526 39.8245403,5.04242279 C41.0864079,5.52193246 41.9949525,6.82417979 41.9949525,8.35861074 L41.9949525,33.6413893 C41.9949525,35.1758202 41.0864079,36.4780675 39.8245403,36.9575772 C39.2440812,36.0995073 38.2598245,35.5392381 37.1493811,35.5392381 C35.3676241,35.5392381 33.9190001,36.987862 33.9190001,38.769619 C33.9190001,40.551376 35.3676241,42 37.1493811,42 C38.3961062,42 39.4762649,41.2933542 40.0163442,40.2586228 C42.9842567,39.6428314 45.2253335,36.91215 45.2253335,33.6363418 L45.2253335,8.35861074 C45.2253335,5.08280255 42.9842567,2.35212114 40.0163442,1.74137724 Z" id="形状"></path>
        </g>
    </g>
</svg>