<svg xmlns="http://www.w3.org/2000/svg" viewBox="0 0 48.73 43.02"><defs><style>.cls-1,.cls-2{fill:#fff;}.cls-1{opacity:0.6;isolation:isolate;}</style></defs><g id="图层_2" data-name="图层 2"><g id="图层_1-2" data-name="图层 1"><path class="cls-1" d="M44.47,34.69a14.5,14.5,0,0,1-6,1.27A14.66,14.66,0,0,1,30.17,9.22L25.51.92a1.81,1.81,0,0,0-3.15,0L.23,40.33a1.79,1.79,0,0,0,.69,2.45,1.75,1.75,0,0,0,.89.24H46.06a1.81,1.81,0,0,0,1.58-2.69ZM20,35.12a.9.9,0,0,1-.91.9H17.7a.9.9,0,0,1-.9-.9V33.77a.9.9,0,0,1,.9-.91h1.35a.91.91,0,0,1,.91.91Zm0-6a.91.91,0,0,1-.91.91H17.7a.9.9,0,0,1-.9-.91V21a.9.9,0,0,1,.9-.9h1.35A.9.9,0,0,1,20,21Z"/><path class="cls-1" d="M38.52,10.78h0A10.72,10.72,0,1,0,48.21,26L38.5,21.5Z"/><path class="cls-1" d="M41.31,11.35l.08,9,7.2,2.9A10.72,10.72,0,0,0,41.31,11.35Z"/><path class="cls-2" d="M44.47,34.69a14.5,14.5,0,0,1-6,1.27A14.66,14.66,0,0,1,30.17,9.22L25.51.92a1.81,1.81,0,0,0-3.15,0L.23,40.33a1.79,1.79,0,0,0,.69,2.45,1.75,1.75,0,0,0,.89.24H46.06a1.81,1.81,0,0,0,1.58-2.69ZM20,35.12a.9.9,0,0,1-.91.9H17.7a.9.9,0,0,1-.9-.9V33.77a.9.9,0,0,1,.9-.91h1.35a.91.91,0,0,1,.91.91Zm0-6a.91.91,0,0,1-.91.91H17.7a.9.9,0,0,1-.9-.91V21a.9.9,0,0,1,.9-.9h1.35A.9.9,0,0,1,20,21Z"/><path class="cls-2" d="M38.52,10.78h0A10.72,10.72,0,1,0,48.21,26L38.5,21.5Z"/><path class="cls-2" d="M41.31,11.35l.08,9,7.2,2.9A10.72,10.72,0,0,0,41.31,11.35Z"/></g></g></svg>