<svg xmlns="http://www.w3.org/2000/svg" viewBox="0 0 50.04 47.8"><defs><style>.cls-1{fill:#fff;}</style></defs><g id="图层_2" data-name="图层 2"><g id="图层_1-2" data-name="图层 1"><path class="cls-1" d="M36,32.49A42.59,42.59,0,0,1,33.11,36c10.33.62,12.57,2.74,13.07,3.86-.5,1.25-7.47,4.23-21.29,4.23S4.11,41.08,3.73,40c.38-1,2-3,11.46-3.73-.88-1-1.87-2.24-2.87-3.48C4.61,33.61,0,35.47,0,39.83c0,6.35,15.68,8,25,8s25-1.75,25-8C50,35.23,44.31,33.23,36,32.49Z"/><path class="cls-1" d="M24.27,40.33s14.81-12.7,14.81-25.89a14.81,14.81,0,0,0-29.62,0C9.46,28.13,24.27,40.33,24.27,40.33ZM16.18,14.81a8.09,8.09,0,1,1,8.09,8.09A8.07,8.07,0,0,1,16.18,14.81Z"/></g></g></svg>