<svg width="166" height="32" viewBox="0 0 166 32" fill="none" xmlns="http://www.w3.org/2000/svg">
<g clip-path="url(#clip0_35_3962)">
<path d="M31.4706 24.1144C30.9364 24.6151 30.4111 25.1291 29.8937 25.66C29.3773 25.1291 28.8509 24.6139 28.3167 24.1144C27.3132 23.1747 26.2772 22.2888 25.1908 21.4678C24.1402 22.4333 23.0594 23.317 21.9473 24.1155C23.0572 24.9141 24.1357 25.7966 25.1841 26.761C26.8271 28.273 28.3973 29.9787 29.8937 31.885C31.39 29.9787 32.9602 28.2718 34.6033 26.761C35.6516 25.7966 36.7301 24.9141 37.8401 24.1155C36.7279 23.317 35.6471 22.4333 34.5965 21.4678C33.5101 22.2899 32.4741 23.1747 31.4706 24.1144Z" fill="#19237B"/>
<path d="M29.8932 0.115051C22.0017 10.1525 12.7124 14.8139 0.477539 12.9189C2.90906 14.6695 5.43354 16.0941 7.59962 17.1794C8.5057 17.1077 9.42186 16.9867 10.4814 16.8187C15.1977 16.0695 19.5231 14.3503 23.4969 11.7171C25.8209 10.1771 27.9142 8.36385 29.8932 6.33329C31.8723 8.36385 33.9655 10.1771 36.2895 11.7171C40.2633 14.3503 44.5887 16.0695 49.3051 16.8187C50.3646 16.9867 51.2819 17.1088 52.1868 17.1794C54.3529 16.0941 56.8774 14.6695 59.3089 12.9189C47.074 14.8151 37.7847 10.1525 29.8932 0.115051Z" fill="#19237B"/>
<path d="M29.8932 8.5184C26.7292 12.5515 23.2415 15.7178 19.4067 17.9454C17.8353 18.8582 16.2057 19.6109 14.5156 20.2022C16.2057 20.7936 17.8364 21.5462 19.4067 22.459C20.7742 21.8016 22.1059 21.0546 23.3983 20.2022C23.4207 20.1877 23.4431 20.1754 23.4644 20.1608C25.8007 18.613 27.9052 16.7885 29.8932 14.7445C31.8823 16.7885 33.9857 18.613 36.322 20.1608C36.3433 20.1754 36.3657 20.1877 36.3881 20.2022C37.6806 21.0546 39.0123 21.8016 40.3798 22.459C41.9511 21.5462 43.5807 20.7936 45.2708 20.2022C43.5807 19.6109 41.95 18.8582 40.3798 17.9454C36.5449 15.7178 33.0572 12.5515 29.8932 8.5184Z" fill="#19237B"/>
<path d="M78.5462 5.15167H73.98C73.0985 6.28959 71.8688 7.27183 70.3254 8.07263C68.7877 8.87007 67.0942 9.43455 65.291 9.75151V13.6659C65.7569 13.5674 66.271 13.4486 66.8209 13.3109C67.4145 13.1619 67.923 13.0118 68.3341 12.864L68.4315 12.8293V15.8174H84.0913V12.8304L84.1877 12.8651C84.7443 13.0622 85.2528 13.2213 85.703 13.3378C85.9427 13.4016 86.4568 13.5136 87.2329 13.6682V9.75375C85.4141 9.43679 83.7161 8.87231 82.1862 8.07487C80.6507 7.27407 79.4254 6.29183 78.544 5.15391L78.5462 5.15167ZM70.1765 12.1819L70.4733 12.0442C72.7805 10.9734 74.7091 9.52863 76.2065 7.75007L76.2614 7.68399L76.3163 7.75007C77.8137 9.52863 79.7435 10.9734 82.0507 12.0442L82.3475 12.1819H70.1742H70.1765Z" fill="#19237B"/>
<path d="M66.5283 27.349H85.9973V18.0709H66.5283V27.349ZM70.1728 21.0019H82.3528V24.4437H70.1728V21.0019Z" fill="#19237B"/>
<path d="M98.0503 5.15167H94.7295V27.0443H98.0503V5.15167Z" fill="#19237B"/>
<path d="M91.5241 14.8677C91.4446 16.3237 91.3091 17.4246 91.1221 18.1448H93.5737C93.7171 17.2309 93.8224 16.0885 93.8874 14.749C93.9534 13.3893 93.9859 11.5536 93.987 9.29007H91.6485C91.6485 11.4875 91.6059 13.3646 91.5241 14.8688V14.8677Z" fill="#19237B"/>
<path d="M164.925 5.28384H152.206V8.7032H164.925V5.28384Z" fill="#19237B"/>
<path d="M147.89 10.1625C149.074 8.76143 149.974 7.00191 150.567 4.93439H146.779C146.529 5.84607 146.161 6.64127 145.686 7.29759C145.141 8.05695 144.434 8.64495 143.58 9.04703V13.1384C144.505 12.8192 145.373 12.3633 146.162 11.7821L146.396 11.6096L146.27 11.8717C146.088 12.2513 145.897 12.5773 145.686 12.8685C145.141 13.6278 144.434 14.2158 143.58 14.6179V18.7093C144.525 18.3833 145.41 17.9152 146.211 17.3171L146.326 17.2309V26.8293H149.363V13.5293C149.848 12.6131 150.252 11.6051 150.567 10.5075H147.583L147.768 10.3025C147.809 10.2577 147.851 10.2129 147.89 10.1659V10.1625Z" fill="#19237B"/>
<path d="M151.682 11.5648V15.0592H159.385V22.2619C159.385 22.5139 159.311 22.7155 159.164 22.8611C159.019 23.0078 158.834 23.0817 158.614 23.0817H155.322V26.752H159.438C160.723 26.752 161.674 26.4283 162.263 25.791C162.855 25.1515 163.154 24.2331 163.154 23.0605V15.0603H165.523V11.5659H151.682V11.5648Z" fill="#19237B"/>
<path d="M111.26 23.5242C110.935 23.5242 110.764 23.3618 110.764 23.0527V19.1663H113.132V8.21713H111.609L112.632 5.15057H109.269L108.273 8.21713H106.669L105.672 5.15057H102.31L103.332 8.21713H101.362V15.8735L101.219 15.8835L100.256 9.28897H98.2822L99.26 16.4234H101.363V19.1651H103.144L103.132 19.248C102.965 20.4184 102.624 21.3514 102.122 22.0234C101.627 22.6831 100.977 23.1322 100.192 23.3562V27.0242C101.872 26.6232 103.237 25.7832 104.252 24.5266C105.351 23.1815 106.008 21.3995 106.205 19.2312L106.211 19.1651H107.496V24.1234C107.496 25.0115 107.756 25.6981 108.27 26.1629C108.721 26.5639 109.316 26.7677 110.042 26.7677H111.862C112.542 26.7677 113.113 26.5952 113.56 26.2559V22.9698C113.15 23.336 112.706 23.5219 112.236 23.5219H111.264L111.26 23.5242ZM109.712 16.1949H104.78V11.3139H109.712V16.1949Z" fill="#19237B"/>
<path d="M138.463 17.3418H119.983L119.97 17.1984C120.939 17.0338 121.801 16.7683 122.531 16.4066C123.26 16.047 123.869 15.6069 124.342 15.1006L124.378 15.0626L129.159 17.3205L129.163 14.5272L125.642 12.967L125.746 12.7598H128.419L128.431 12.8125V10.3406L128.365 10.2869H126.018V8.39743H128.811V5.84943H122.171L122.246 5.15167H119.257C119.247 5.74191 119.124 6.47439 118.889 7.33007C118.657 8.17343 118.354 8.93503 117.989 9.59471H121.139L121.61 8.39743H122.699V10.2869H118.286V12.7598H122.236L122.163 12.8718C121.792 13.4464 121.257 13.8955 120.574 14.2069C119.91 14.5104 119.022 14.6683 117.937 14.675V17.3944L118.535 17.3698V26.771H139.28V17.3429H138.463V17.3418ZM135.611 24.5467H122.205V23.1803H135.611V24.5467ZM135.611 20.9571H122.205V19.565H135.611V20.9571Z" fill="#19237B"/>
<path d="M137.989 5.91888H132.262C131.217 5.91888 130.37 6.7656 130.37 7.81056V14.5742C130.37 15.6192 131.217 16.4659 132.262 16.4659H137.989C139.034 16.4659 139.881 15.6192 139.881 14.5742V7.81056C139.881 6.7656 139.034 5.91888 137.989 5.91888ZM137.291 12.9592C137.291 13.3086 137.007 13.5931 136.657 13.5931H133.595C133.245 13.5931 132.961 13.3098 132.961 12.9592V9.4256C132.961 9.07504 133.244 8.79168 133.595 8.79168H136.657C137.007 8.79168 137.291 9.07504 137.291 9.4256V12.9592Z" fill="#19237B"/>
</g>
<defs>
<clipPath id="clip0_35_3962">
<rect width="166" height="32" fill="white"/>
</clipPath>
</defs>
</svg>
