<svg width="16" height="16" viewBox="0 0 16 16" fill="none" xmlns="http://www.w3.org/2000/svg">
<path d="M8 2C11.3 2 14 4.7 14 8C14 11.3 11.3 14 8 14C4.7 14 2 11.3 2 8C2 4.7 4.7 2 8 2ZM10.5354 5.46461C10.3779 5.30708 10.1323 5.29133 9.95707 5.41735L9.90153 5.46461L8 7.36613L6.09845 5.46461C5.92343 5.28957 5.63964 5.28957 5.46461 5.46461C5.30708 5.62214 5.29133 5.86775 5.41735 6.0429L5.46461 6.09845L7.36613 8L5.46461 9.90153C5.28957 10.0766 5.28957 10.3603 5.46461 10.5354C5.62214 10.6929 5.86775 10.7087 6.0429 10.5827L6.09845 10.5354L8 8.63387L9.90153 10.5354C10.0766 10.7104 10.3603 10.7104 10.5354 10.5354C10.6929 10.3779 10.7087 10.1323 10.5827 9.95707L10.5354 9.90153L8.63387 8L10.5354 6.09845C10.7104 5.92343 10.7104 5.63964 10.5354 5.46461Z" fill="white"/>
</svg>
