<svg width="97" height="96" viewBox="0 0 97 96" fill="none" xmlns="http://www.w3.org/2000/svg">
<g clip-path="url(#clip0_226_34207)">
<path d="M48.5844 59.1113H49.0044H49.4244H49.8204H50.2164L84.2724 64.7153C84.5724 64.7153 84.8364 64.8233 85.0884 64.8833C85.3171 64.9447 85.5416 65.0209 85.7604 65.1113C85.9349 65.1732 86.1003 65.2579 86.2524 65.3633C86.3618 65.4372 86.4523 65.5359 86.5164 65.6513L94.1964 80.2913C94.236 80.3507 94.2628 80.4176 94.2752 80.4878C94.2876 80.558 94.2853 80.63 94.2684 80.6993C94.235 80.8483 94.1552 80.9827 94.0404 81.0833C93.8876 81.2224 93.7134 81.3358 93.5244 81.4193C93.2792 81.536 93.0216 81.6246 92.7564 81.6833L51.0204 91.8113L50.4444 91.9313L49.8324 92.0153H49.2084H48.5844H47.9604H47.3364L46.7364 91.9313L46.1724 91.8113L4.42441 81.6833C4.15539 81.6247 3.89377 81.5361 3.64441 81.4193C3.45731 81.339 3.2865 81.2252 3.14041 81.0833C3.02119 80.9845 2.93703 80.8498 2.90041 80.6993C2.8782 80.5591 2.90354 80.4155 2.97241 80.2913L10.6524 65.6513C10.7166 65.5359 10.807 65.4372 10.9164 65.3633C11.0685 65.2579 11.234 65.1732 11.4084 65.1113C11.6272 65.0209 11.8517 64.9447 12.0804 64.8833C12.3204 64.8233 12.5964 64.7633 12.8964 64.7153L46.9644 59.2313H47.3484H47.7564H48.1644L48.5844 59.1113Z" fill="#CBCFD9"/>
<path d="M46.1723 91.8123L46.7362 91.9323L47.3363 92.0163H47.9603H48.5843H49.2083H49.8323L50.4442 91.9323L51.0202 91.8123L92.0243 81.8643L85.0403 68.7843C84.9714 68.6791 84.8815 68.5892 84.7763 68.5203C84.628 68.426 84.4714 68.3456 84.3083 68.2803C84.0966 68.1958 83.8803 68.1236 83.6603 68.0643L82.8803 67.9083L50.1562 62.7363H49.7723H49.3883H47.7923H47.3963H47.0362L14.3123 67.9083C14.0243 67.9083 13.7603 68.0043 13.5203 68.0643C13.3002 68.1236 13.0839 68.1958 12.8723 68.2803C12.7091 68.3456 12.5525 68.426 12.4043 68.5203C12.3022 68.5891 12.2162 68.6792 12.1523 68.7843L5.15625 81.8643L46.1723 91.8123Z" fill="#B3B6BE"/>
<path d="M7.37695 82.4043L46.173 91.8123L46.737 91.9323L47.337 92.0163H47.961H48.585H49.209H49.833L50.445 91.9323L51.021 91.8123L89.817 82.4043V76.4043H7.37695V82.4043Z" fill="url(#paint0_linear_226_34207)"/>
<path d="M7.37695 79.8126L46.173 89.2206L46.737 89.3406L47.337 89.4246L47.961 89.4846H49.161L49.785 89.4246L50.397 89.3406L50.973 89.2206L89.769 79.8126V73.4766H7.37695V79.8126Z" fill="url(#paint1_linear_226_34207)"/>
<path d="M48.5843 54H49.3403H49.7003H50.0603L80.7803 59.052C81.0312 59.0888 81.2797 59.1409 81.5243 59.208C81.7276 59.2613 81.9279 59.3254 82.1243 59.4C82.2811 59.4625 82.4301 59.543 82.5683 59.64C82.6635 59.708 82.745 59.7936 82.8083 59.892L89.7443 73.092C89.7846 73.2127 89.7846 73.3433 89.7443 73.464C89.7118 73.6003 89.636 73.7224 89.5283 73.812C89.3928 73.9351 89.239 74.0363 89.0723 74.112C88.8484 74.2137 88.6153 74.2941 88.3763 74.352L50.7803 83.496L50.2643 83.604C50.082 83.6398 49.8977 83.6638 49.7123 83.676H49.1483H48.5843H48.0203H47.4563L46.9163 83.604L46.4003 83.496L8.7443 74.4C8.50528 74.3421 8.27224 74.2617 8.0483 74.16C7.8797 74.0812 7.72232 73.9803 7.5803 73.86C7.48 73.7662 7.40912 73.6453 7.3763 73.512C7.35345 73.3834 7.37911 73.2508 7.4483 73.14L14.3723 59.94C14.4356 59.8416 14.5171 59.756 14.6123 59.688C14.7505 59.591 14.8995 59.5105 15.0563 59.448C15.2515 59.3699 15.452 59.3057 15.6563 59.256C15.9009 59.1889 16.1494 59.1368 16.4003 59.1L47.1323 54.108H47.4803H47.8403H48.5843V54Z" fill="url(#paint2_linear_226_34207)"/>
<g opacity="0.4">
<path d="M48.416 58.1876H48.992H49.268H49.532L77.612 62.1476L78.14 62.2436L78.5 62.3996L82.94 71.9996L50.072 79.3796C49.9467 79.4162 49.8181 79.4403 49.688 79.4516L49.28 79.5116H48.848H47.984H47.552L47.156 79.4516C47.0259 79.4403 46.8973 79.4162 46.772 79.3796L13.832 72.0836L18.272 62.4836L18.656 62.3636L19.196 62.2676L47.3 58.2596H47.564H47.828H48.404M48.404 57.0596H47.756H47.432C47.3324 57.0479 47.2317 57.0479 47.132 57.0596L19.064 61.0196C18.824 61.0196 18.608 61.0916 18.416 61.1396C18.2358 61.1813 18.0592 61.2375 17.888 61.3076C17.7528 61.3507 17.6237 61.4112 17.504 61.4876C17.4136 61.5329 17.3384 61.6039 17.288 61.6916L12.488 72.2516C12.4299 72.34 12.4083 72.4476 12.428 72.5516C12.4585 72.6598 12.5213 72.756 12.608 72.8276C12.7294 72.9301 12.8674 73.0112 13.016 73.0676C13.2127 73.1528 13.4179 73.2171 13.628 73.2596L46.568 80.5676L47.024 80.6516L47.492 80.7116H47.984H48.968H49.46L49.94 80.6516L50.396 80.5676L83.3 73.2596C83.5058 73.2154 83.7068 73.1511 83.9 73.0676C84.0458 73.0055 84.1829 72.9248 84.308 72.8276C84.3947 72.756 84.4575 72.6598 84.488 72.5516C84.5261 72.4552 84.5261 72.3479 84.488 72.2516L79.628 61.6916C79.5776 61.6039 79.5024 61.5329 79.412 61.4876C79.2923 61.4112 79.1632 61.3507 79.028 61.3076C78.8311 61.2561 78.6305 61.22 78.428 61.1996C78.236 61.1996 78.02 61.1156 77.78 61.0796L49.7 57.0716C49.6004 57.0599 49.4997 57.0599 49.4 57.0716H49.076H48.416L48.404 57.0596Z" fill="#CDD2DB"/>
</g>
<path d="M48.4285 76.8604C48.952 76.8604 49.3765 76.6831 49.3765 76.4644C49.3765 76.2457 48.952 76.0684 48.4285 76.0684C47.9049 76.0684 47.4805 76.2457 47.4805 76.4644C47.4805 76.6831 47.9049 76.8604 48.4285 76.8604Z" fill="#C9CDD9"/>
<path d="M78.3201 70.2959C78.8436 70.2959 79.2681 70.1186 79.2681 69.8999C79.2681 69.6812 78.8436 69.5039 78.3201 69.5039C77.7965 69.5039 77.3721 69.6812 77.3721 69.8999C77.3721 70.1186 77.7965 70.2959 78.3201 70.2959Z" fill="#C9CDD9"/>
<path d="M75.1882 63.5166C75.7118 63.5166 76.1362 63.3393 76.1362 63.1206C76.1362 62.9019 75.7118 62.7246 75.1882 62.7246C74.6647 62.7246 74.2402 62.9019 74.2402 63.1206C74.2402 63.3393 74.6647 63.5166 75.1882 63.5166Z" fill="#C9CDD9"/>
<path d="M21.3445 63.8283C21.8681 63.8283 22.2925 63.6402 22.2925 63.4083C22.2925 63.1763 21.8681 62.9883 21.3445 62.9883C20.8209 62.9883 20.3965 63.1763 20.3965 63.4083C20.3965 63.6402 20.8209 63.8283 21.3445 63.8283Z" fill="#C9CDD9"/>
<path d="M18.9441 70.9913C19.4677 70.9913 19.8921 70.7763 19.8921 70.5113C19.8921 70.2462 19.4677 70.0312 18.9441 70.0312C18.4205 70.0312 17.9961 70.2462 17.9961 70.5113C17.9961 70.7763 18.4205 70.9913 18.9441 70.9913Z" fill="#C9CDD9"/>
<g opacity="0.4">
<path d="M52.5686 62.0879H52.8086L59.0486 63.1799H59.1686H59.0606L57.4046 63.4439H56.5406L52.7486 62.7719H52.5686H52.4246H52.3286V62.6999L52.1006 62.2559H52.1726H52.2686H52.5326L52.5686 62.0879Z" fill="#D0D4DE"/>
<path d="M43.701 62.0879H43.965H44.073H44.145L43.941 62.6519C43.941 62.6519 43.941 62.6519 43.941 62.7239H43.845L43.701 62.9999H43.521L39.729 63.6719H38.901L37.233 63.4079H37.125H37.041H37.137H37.245L43.485 62.3159H43.701V62.0879Z" fill="#D0D4DE"/>
<path d="M48.1285 60.9122C48.4699 60.9106 48.8108 60.9346 49.1485 60.9842C49.437 61.0146 49.7221 61.0709 50.0005 61.1522C50.2046 61.2054 50.399 61.2904 50.5765 61.4042C50.6367 61.4341 50.6889 61.4781 50.7286 61.5324C50.7682 61.5867 50.7943 61.6497 50.8045 61.7162C50.8034 61.7792 50.7863 61.8409 50.7548 61.8954C50.7233 61.95 50.6785 61.9957 50.6245 62.0282C50.4679 62.1406 50.2935 62.2258 50.1085 62.2802C49.8513 62.3693 49.5861 62.4336 49.3165 62.4722C48.9905 62.5201 48.6619 62.5481 48.3325 62.5562L47.8405 62.9162C47.6845 63.0362 47.5285 63.1562 47.3845 63.2882L46.9645 63.6602L46.5925 64.0442C46.5698 64.0707 46.541 64.0913 46.5085 64.1042H46.3765H46.2205H45.7405H45.5845H45.4885C45.4821 64.0847 45.4821 64.0637 45.4885 64.0442C45.4885 63.8762 45.5485 63.7082 45.5845 63.5522C45.6198 63.3965 45.668 63.2439 45.7285 63.0962C45.7853 62.9569 45.8494 62.8207 45.9205 62.6882C45.967 62.5466 46.0273 62.4099 46.1005 62.2802C45.9981 62.2465 45.8979 62.2064 45.8005 62.1602L45.5845 62.0162C45.5342 61.9744 45.4898 61.926 45.4525 61.8722C45.4403 61.8209 45.4403 61.7675 45.4525 61.7162C45.4654 61.6507 45.4925 61.5888 45.5319 61.5348C45.5713 61.4809 45.622 61.4363 45.6805 61.4042C45.8582 61.3104 46.048 61.2418 46.2445 61.2002C46.5235 61.1212 46.8085 61.065 47.0965 61.0322C47.437 60.9661 47.782 60.926 48.1285 60.9122Z" fill="#D0D4DE"/>
<path d="M32.1924 65.748H32.4804L34.0044 66.12L34.1604 66.18C34.2047 66.1899 34.2459 66.2105 34.2804 66.24L34.3524 66.312C34.358 66.3357 34.358 66.3604 34.3524 66.384L33.9684 67.932C33.9761 67.9595 33.9761 67.9886 33.9684 68.016L33.8604 68.088L33.7164 68.16H33.5124L31.7004 68.64H31.3764H31.1244H31.0044C31.0044 68.64 31.0044 68.64 30.9324 68.64L31.7004 66.072H31.7604H31.8564H31.9884H32.2404L32.1924 65.748Z" fill="#D0D4DE"/>
<path d="M64.1006 65.7478H64.3646H64.4846H64.5926H64.6526L65.4086 68.3158H65.3246H65.2046H64.9526H64.6286L62.8286 67.9198H62.6366L62.4806 67.8478L62.3846 67.7758C62.3769 67.7483 62.3769 67.7193 62.3846 67.6918L62.0126 66.1438C62.0063 66.1329 62.0029 66.1205 62.0029 66.1078C62.0029 66.0952 62.0063 66.0828 62.0126 66.0718C62.0301 66.0421 62.0549 66.0173 62.0846 65.9998C62.1144 65.9703 62.1517 65.9495 62.1926 65.9398L62.3486 65.8798L63.8846 65.5078H64.1006V65.7478Z" fill="#D0D4DE"/>
<path d="M62.6367 63.4324C63.0005 63.4132 63.365 63.4132 63.7287 63.4324C64.0452 63.4719 64.3582 63.5361 64.6647 63.6244C64.8877 63.7142 65.1008 63.8268 65.3007 63.9604C65.4501 64.0334 65.569 64.1566 65.6367 64.3084C65.6541 64.3707 65.6531 64.4366 65.634 64.4983C65.6148 64.56 65.5783 64.6149 65.5287 64.6564C65.3881 64.7966 65.2149 64.8996 65.0247 64.9564C64.7559 65.0481 64.4785 65.1124 64.1967 65.1484C63.8426 65.1971 63.486 65.2252 63.1287 65.2324C62.2041 65.7365 61.2504 66.1852 60.2727 66.5764C59.1927 67.0084 58.0047 67.4164 56.6727 67.7764C55.3407 68.1364 53.9847 68.5204 52.4967 68.8564C51.0087 69.1924 49.4127 69.4804 47.6967 69.7444H47.3967H47.2167H47.0487H46.9047H46.7967C46.7967 69.7444 46.7127 69.6844 46.7007 69.6484C46.6933 69.6356 46.6895 69.6212 46.6895 69.6064C46.6895 69.5917 46.6933 69.5772 46.7007 69.5644C46.7007 69.5644 46.7007 69.5044 46.7967 69.4804L47.0007 69.4084L47.6367 69.2644L48.2607 69.1084L48.8847 68.9524L49.4727 68.8084L50.9007 68.4004L52.3407 67.9924L53.8887 67.5244L55.4607 67.0084C56.0727 66.8044 56.6607 66.6004 57.1407 66.3964C57.6207 66.1924 58.1007 66.0004 58.5207 65.8084C58.9407 65.6164 59.3007 65.4364 59.6127 65.2564C59.8959 65.0983 60.1685 64.922 60.4287 64.7284L60.2847 64.6324L60.1767 64.5244L60.1047 64.4284C60.0944 64.3931 60.0944 64.3557 60.1047 64.3204C60.0928 64.2547 60.1 64.1869 60.1256 64.1252C60.1511 64.0635 60.1938 64.0105 60.2487 63.9724C60.4079 63.8513 60.5864 63.758 60.7767 63.6964C61.0501 63.6062 61.3313 63.542 61.6167 63.5044C61.9552 63.4623 62.2957 63.4383 62.6367 63.4324Z" fill="#D0D4DE"/>
<path d="M32.0366 69.264C32.2805 69.2514 32.5248 69.2514 32.7686 69.264C32.9944 69.2817 33.2189 69.3137 33.4406 69.36C33.6365 69.3909 33.8292 69.4391 34.0166 69.504C34.1728 69.5527 34.322 69.6212 34.4606 69.708L35.9006 69.636L37.3286 69.6L38.7446 69.504L40.1246 69.384H40.4726H40.6406H40.7726H40.8566C40.8658 69.4112 40.8658 69.4407 40.8566 69.468C40.862 69.4792 40.8647 69.4915 40.8647 69.504C40.8647 69.5164 40.862 69.5287 40.8566 69.54L40.7366 69.612C40.6729 69.6203 40.6084 69.6203 40.5446 69.612L38.9726 69.9L37.4486 70.14L35.9966 70.344L34.6526 70.524C34.4954 70.6506 34.3218 70.7555 34.1366 70.836C33.8958 70.9398 33.647 71.024 33.3926 71.088C32.7543 71.2301 32.1025 71.3025 31.4486 71.304C31.047 71.3078 30.6458 71.2797 30.2486 71.22C29.9279 71.1724 29.6138 71.0878 29.3126 70.968C29.0995 70.8927 28.9066 70.7696 28.7486 70.608C28.6919 70.5533 28.6518 70.4838 28.6327 70.4075C28.6136 70.3311 28.6163 70.2509 28.6406 70.176C28.7144 69.9916 28.8502 69.8388 29.0246 69.744C29.2648 69.5957 29.5228 69.4788 29.7926 69.396C30.1389 69.2954 30.4917 69.2192 30.8486 69.168C31.2462 69.1758 31.6429 69.2078 32.0366 69.264Z" fill="#D0D4DE"/>
<path d="M58.2208 71.0645H58.5688H58.6768L60.6928 71.3885H60.8368C60.8725 71.3819 60.9091 71.3819 60.9448 71.3885H60.8248L53.8288 72.9245H53.5408H53.2168H53.0848H53.0008H52.9408C52.9351 72.9049 52.9351 72.8841 52.9408 72.8645L53.0608 72.0485C53.0565 72.0166 53.0565 71.9843 53.0608 71.9525L53.1568 71.8685L53.3128 71.7965L53.5408 72.0005L57.7048 71.1125H57.8248H58.2208V71.0645Z" fill="#D0D4DE"/>
<path d="M38.0371 71.0645H38.4331H38.5531L42.7171 71.9525L42.9211 72.0125L43.0771 72.0845L43.1731 72.1685C43.1797 72.1836 43.1831 72.1999 43.1831 72.2165C43.1831 72.233 43.1797 72.2493 43.1731 72.2645L43.2931 73.0805C43.2988 73.1001 43.2988 73.1209 43.2931 73.1405H43.1971H43.0651H42.7531H42.4531L35.4571 71.6045H35.3491C35.3491 71.6045 35.2771 71.6045 35.2651 71.6045H35.3371H35.4451H35.5891L37.6051 71.2805H37.7251H38.0731L38.0371 71.0645Z" fill="#D0D4DE"/>
<path d="M42.7286 65.6875H42.9686H43.1726L43.3166 65.7595C43.3166 65.7595 43.3166 65.7595 43.3166 65.8315V66.0715V66.3235C43.3234 66.4034 43.3234 66.4836 43.3166 66.5635L43.3886 66.7915C43.3886 66.9475 43.4726 67.1275 43.5326 67.3075C43.5926 67.4875 43.6766 67.7155 43.7846 67.9435C43.8882 68.1854 44.0044 68.4217 44.1326 68.6515C44.2757 68.9253 44.4361 69.1899 44.6126 69.4435C44.8305 69.7611 45.0669 70.0657 45.3206 70.3555C45.5781 70.6531 45.8547 70.9337 46.1486 71.1955C46.5165 71.4858 46.9012 71.7542 47.3006 71.9995C47.6489 72.2417 48.0094 72.466 48.3806 72.6715C48.7832 72.6779 49.1846 72.718 49.5806 72.7915C49.913 72.8446 50.2389 72.9331 50.5526 73.0555C50.7979 73.1364 51.0258 73.2625 51.2246 73.4275C51.3697 73.5436 51.4643 73.7113 51.4886 73.8955C51.4844 73.9879 51.4609 74.0783 51.4196 74.161C51.3782 74.2437 51.32 74.3168 51.2486 74.3755C51.0389 74.5528 50.7991 74.691 50.5406 74.7835C50.1984 74.9096 49.8447 75.002 49.4846 75.0595C48.6133 75.1876 47.7279 75.1876 46.8566 75.0595C46.4964 75.002 46.1428 74.9096 45.8006 74.7835C45.542 74.691 45.3022 74.5528 45.0926 74.3755C44.9994 74.3016 44.9302 74.2017 44.8939 74.0885C44.8576 73.9753 44.8557 73.8538 44.8886 73.7395C44.9087 73.6811 44.9415 73.6278 44.9846 73.5835C45.0218 73.5297 45.0662 73.4813 45.1166 73.4395L45.2966 73.2955C44.5493 72.7175 43.8655 72.0618 43.2566 71.3395C42.7605 70.7648 42.3558 70.1172 42.0566 69.4195C41.8147 68.8416 41.6884 68.222 41.6846 67.5955C41.6902 67.0002 41.8167 66.4123 42.0566 65.8675C42.0638 65.8483 42.075 65.8309 42.0895 65.8164C42.104 65.8019 42.1214 65.7907 42.1406 65.7835C42.1841 65.7541 42.2331 65.7338 42.2846 65.7235H42.5006L42.7286 65.6875Z" fill="#D0D4DE"/>
<path d="M33.6203 63.4331C33.8522 63.4207 34.0845 63.4207 34.3163 63.4331L34.9523 63.5171L35.4803 63.6491C35.624 63.6899 35.7614 63.7505 35.8883 63.8291C37.5563 63.8291 39.2003 63.9371 40.8083 64.0451C42.4163 64.1531 44.0123 64.2971 45.6083 64.4891C47.2043 64.6811 48.6923 64.8851 50.1803 65.1371C51.6683 65.3891 53.1443 65.6891 54.5603 66.0251H54.7403C54.7797 66.0434 54.813 66.0726 54.8363 66.1091C54.8417 66.1204 54.8444 66.1327 54.8444 66.1451C54.8444 66.1576 54.8417 66.1699 54.8363 66.1811C54.8291 66.2003 54.8179 66.2177 54.8034 66.2322C54.7889 66.2467 54.7715 66.2579 54.7523 66.2651H54.6443H54.5123H54.1883H53.8883L53.2163 66.1571L52.5443 66.0611L51.8843 65.9531L51.1883 66.0011L49.7843 65.7971L48.0923 65.5931L46.1963 65.4011L44.1323 65.1971C43.4243 65.1251 42.7283 65.0771 42.0563 65.0291C41.3843 64.9811 40.7483 64.9331 40.1123 64.9091L38.3003 64.8011C37.7123 64.8011 37.1003 64.8011 36.6083 64.8011H35.6003C35.4427 64.8774 35.2779 64.9377 35.1083 64.9811C34.9113 65.0349 34.7109 65.075 34.5083 65.1011C34.2861 65.1418 34.0617 65.1698 33.8363 65.1851C33.6005 65.1974 33.3642 65.1974 33.1283 65.1851C32.7633 65.1811 32.3987 65.157 32.0363 65.1131C31.7502 65.0735 31.4688 65.0051 31.1963 64.9091C31.0019 64.8517 30.8219 64.7535 30.6683 64.6211C30.6178 64.5778 30.5807 64.5208 30.5616 64.457C30.5424 64.3931 30.542 64.3252 30.5603 64.2611C30.6319 64.112 30.7498 63.9899 30.8963 63.9131C31.1149 63.7994 31.344 63.707 31.5803 63.6371C31.8871 63.55 32.2 63.4858 32.5163 63.4451C32.8839 63.4223 33.2524 63.4183 33.6203 63.4331Z" fill="#D0D4DE"/>
</g>
<path opacity="0.5" d="M49.2328 72.456C60.6783 72.456 69.9568 70.7314 69.9568 68.604C69.9568 66.4766 60.6783 64.752 49.2328 64.752C37.7872 64.752 28.5088 66.4766 28.5088 68.604C28.5088 70.7314 37.7872 72.456 49.2328 72.456Z" fill="#CBD0D9"/>
</g>
<g clip-path="url(#clip1_226_34207)">
<path d="M70.7833 9.83964C71.118 9.83913 71.4491 9.90861 71.7553 10.0436C72.0383 10.1698 72.2917 10.3537 72.4993 10.5836C72.7243 10.8067 72.8965 11.0774 73.0033 11.3756C73.1219 11.6854 73.1751 12.0163 73.1593 12.3476L72.7873 19.1156L26.6113 18.2156L27.1273 11.9156C27.1503 11.5994 27.2317 11.2902 27.3673 11.0036C27.5014 10.7289 27.6844 10.4809 27.9073 10.2716C28.1224 10.0626 28.3748 9.89571 28.6513 9.77964C28.9318 9.65923 29.2341 9.59796 29.5393 9.59964L70.7833 9.83964Z" fill="url(#paint3_linear_226_34207)"/>
<path d="M74.1797 15.9601C74.1797 15.9601 74.1797 15.8401 74.1797 15.7921C74.1797 15.7441 74.1797 15.6841 74.1797 15.6241V15.4681L74.0957 15.1201V14.9401L73.9997 14.5801L73.9037 14.2081V14.0161L73.6997 13.6441L73.5437 13.2001V13.0081L73.4357 12.6121L73.3277 12.2041V12.0001L73.2197 11.5801V11.7481C73.2255 11.8079 73.2255 11.8682 73.2197 11.9281C73.226 11.9919 73.226 12.0562 73.2197 12.1201V12.3001L72.8477 19.0681L73.8677 22.2121L74.1917 16.0801C74.1905 16.0398 74.1865 15.9997 74.1797 15.9601Z" fill="#B6BBC3"/>
<path d="M72.8233 19.1148L73.8433 22.2588L31.6633 21.2508L26.6113 18.2148L72.8233 19.1148Z" fill="#659FCC"/>
<path d="M72.8232 19.1152L70.4232 62.6752C70.4117 62.9104 70.3755 63.1437 70.3152 63.3712C70.2605 63.5919 70.1799 63.8054 70.0752 64.0072C69.9807 64.2076 69.8639 64.3968 69.7272 64.5712C69.5984 64.748 69.4494 64.9091 69.2832 65.0512L70.6632 63.8512C70.8146 63.7181 70.9513 63.5693 71.0712 63.4072C71.1933 63.2511 71.2979 63.0821 71.3832 62.9032C71.4796 62.7213 71.5522 62.5277 71.5992 62.3272C71.6555 62.1237 71.6877 61.9143 71.6952 61.7032L73.8432 22.2712L72.8232 19.1152Z" fill="url(#paint4_linear_226_34207)"/>
<path d="M72.8233 19.1148L70.4233 62.6748C70.4093 63.1404 70.299 63.598 70.0993 64.0188C69.9053 64.4181 69.6317 64.7734 69.2953 65.0628C68.9528 65.3631 68.5527 65.5904 68.1194 65.7307C67.6861 65.871 67.2288 65.9214 66.7753 65.8788L26.1073 62.2788C25.6841 62.2483 25.2736 62.1211 24.9073 61.9068C24.5562 61.7076 24.2466 61.4428 23.9953 61.1268C23.7423 60.7887 23.555 60.4061 23.4433 59.9988C23.3167 59.5834 23.2678 59.1481 23.2993 58.7148L26.6113 18.2148L72.8233 19.1148Z" fill="url(#paint5_linear_226_34207)"/>
<path d="M31.3034 14.5795L31.9274 14.8195L30.7154 14.7595L30.0674 14.5195L31.3034 14.5795Z" fill="#DBDBDD"/>
<path d="M31.4591 12.3959L31.9871 13.5239L31.3031 14.5799L30.0671 14.5199L29.5391 13.4039L30.2231 12.3359L31.4591 12.3959Z" fill="white"/>
<path d="M31.459 12.3965L32.083 12.6725L32.599 13.7765L31.987 13.5245L31.459 12.3965Z" fill="#DBDBDD"/>
<path d="M31.9867 13.5234L32.5987 13.7754L31.9267 14.8194L31.3027 14.5794L31.9867 13.5234Z" fill="#DBDBDD"/>
<path d="M35.0827 14.7709L35.6467 15.0109L34.4347 14.9509L33.8467 14.7109L35.0827 14.7709Z" fill="#DBDBDD"/>
<path d="M35.2389 12.5636L35.7789 13.7036L35.0829 14.7716L33.8469 14.7116L33.2949 13.5836L33.9909 12.5156L35.2389 12.5636Z" fill="white"/>
<path d="M35.2393 12.5645L35.8033 12.8405L36.3313 13.9565L35.7793 13.7045L35.2393 12.5645Z" fill="#DBDBDD"/>
<path d="M35.779 13.7031L36.331 13.9551L35.647 15.0111L35.083 14.7711L35.779 13.7031Z" fill="#DBDBDD"/>
<path d="M38.9121 14.9643L39.4161 15.1923L38.1921 15.1323L37.6641 14.9043L38.9121 14.9643Z" fill="#DBDBDB"/>
<path d="M39.0556 12.7436L39.6076 13.8836L38.9116 14.9636L37.6636 14.9036L37.0996 13.7636L37.8076 12.6836L39.0556 12.7436Z" fill="white"/>
<path d="M39.0557 12.7441L39.5597 13.0201L40.0997 14.1361L39.6077 13.8841L39.0557 12.7441Z" fill="#DBDBDB"/>
<path d="M39.6071 13.8828L40.0991 14.1348L39.4151 15.1908L38.9111 14.9628L39.6071 13.8828Z" fill="#DBDBDB"/>
<path d="M56.059 12.5524C56.3204 12.5513 56.5787 12.6087 56.815 12.7204C57.0374 12.8298 57.2369 12.9805 57.403 13.1644C57.5709 13.3564 57.7048 13.5755 57.799 13.8124C57.8835 14.0675 57.9201 14.336 57.907 14.6044C57.8988 14.8751 57.8333 15.1409 57.715 15.3844C57.6107 15.6203 57.4597 15.8326 57.271 16.0084C57.0897 16.19 56.8733 16.3329 56.635 16.4284C56.3915 16.5272 56.1296 16.5723 55.867 16.5604C55.6088 16.5564 55.3546 16.4949 55.123 16.3804C54.8946 16.2754 54.6903 16.1242 54.523 15.9364C54.3522 15.7489 54.2215 15.5284 54.139 15.2884C54.0498 15.0384 54.0091 14.7737 54.019 14.5084C54.0317 14.2423 54.0969 13.9812 54.211 13.7404C54.4237 13.2639 54.8099 12.8863 55.291 12.6844C55.5348 12.5863 55.7966 12.5413 56.059 12.5524Z" fill="#EFF0F4"/>
<path d="M73.0755 14.723L73.0515 15.203L57.8955 14.831L57.9195 14.375L73.0755 14.723Z" fill="#EFF0F4"/>
<g opacity="0.6">
<path d="M68.3715 23.8674C68.6794 23.8856 68.9809 23.9631 69.2595 24.0954C69.5247 24.2175 69.7617 24.3932 69.9555 24.6114C70.1612 24.8269 70.3169 25.085 70.4115 25.3674C70.5203 25.6503 70.5693 25.9526 70.5555 26.2554C70.5335 26.5641 70.452 26.8657 70.3155 27.1434C70.185 27.4067 70.0059 27.6428 69.7875 27.8394C69.5659 28.043 69.3043 28.1983 69.0195 28.2954C68.7332 28.4062 68.4256 28.4513 68.1195 28.4274L29.9355 26.4714C29.6641 26.459 29.3983 26.3895 29.1555 26.2674C28.9269 26.1367 28.7237 25.966 28.5555 25.7634C28.3839 25.5583 28.2535 25.322 28.1715 25.0674C28.0851 24.7963 28.0525 24.511 28.0755 24.2274C28.1011 23.9399 28.1784 23.6595 28.3035 23.3994C28.5552 22.8999 28.9826 22.511 29.5035 22.3074C29.7598 22.2095 30.0333 22.1646 30.3075 22.1754L68.3715 23.8674Z" fill="white"/>
</g>
<path opacity="0.6" d="M68.0354 30.8521C68.3434 30.8595 68.6463 30.9332 68.9234 31.0681C69.1879 31.197 69.4276 31.3717 69.6314 31.5841C69.8367 31.8246 69.9954 32.1013 70.0994 32.4001C70.2003 32.6889 70.2451 32.9944 70.2314 33.3001C70.2079 33.6047 70.1264 33.902 69.9914 34.1761C69.8609 34.4393 69.6817 34.6755 69.4634 34.8721C69.2355 35.0672 68.9757 35.2214 68.6954 35.3281C68.406 35.4271 68.1009 35.4718 67.7954 35.4601L29.6114 33.4321C29.3395 33.4227 29.073 33.353 28.8314 33.2281C28.5951 33.1089 28.3865 32.9412 28.2194 32.7361C28.0477 32.531 27.9173 32.2946 27.8354 32.0401C27.7524 31.7683 27.7238 31.4829 27.7514 31.2001C27.7661 30.9122 27.8396 30.6304 27.9674 30.3721C28.0885 30.1232 28.2554 29.8993 28.4594 29.7121C28.6565 29.53 28.8839 29.3838 29.1314 29.2801C29.3877 29.1821 29.6612 29.1372 29.9354 29.1481L68.0354 30.8521Z" fill="white"/>
<path opacity="0.6" d="M45.7638 36.8039C46.0587 36.8228 46.3475 36.896 46.6158 37.0199C46.875 37.1461 47.1073 37.3213 47.2998 37.5359C47.4936 37.7468 47.6408 37.9963 47.7318 38.2679C47.8295 38.5507 47.8702 38.85 47.8517 39.1487C47.8332 39.4473 47.7557 39.7393 47.6238 40.0079C47.4933 40.2711 47.3142 40.5073 47.0958 40.7039C46.8835 40.8987 46.6347 41.0496 46.3638 41.1479C46.0825 41.2459 45.7855 41.2906 45.4878 41.2799L28.5678 40.4159C28.2886 40.3952 28.0158 40.3219 27.7638 40.1999C27.5232 40.0768 27.3108 39.9052 27.1398 39.6959C26.9574 39.4873 26.8223 39.2416 26.7438 38.9759C26.6471 38.7029 26.6102 38.4123 26.6358 38.1239C26.6639 37.5541 26.9149 37.0182 27.3348 36.632C27.7547 36.2458 28.3097 36.0403 28.8798 36.0599L45.7638 36.8039Z" fill="white"/>
<g opacity="0.6">
<path d="M53.9953 44.1723C54.2908 44.1855 54.5807 44.2569 54.8484 44.3825C55.1161 44.5082 55.3564 44.6855 55.5553 44.9043C55.7472 45.1233 55.8977 45.3754 55.9993 45.6483C56.1003 45.9328 56.1411 46.2351 56.1193 46.5363C56.1062 46.8373 56.0284 47.1319 55.8913 47.4003C55.7608 47.6635 55.5817 47.8997 55.3633 48.0963C54.9187 48.5008 54.3318 48.7123 53.7313 48.6843L28.5313 47.3883C28.255 47.3735 27.985 47.2998 27.7393 47.1723C27.4963 47.053 27.2831 46.8808 27.1153 46.6683C26.9353 46.4625 26.8004 46.2213 26.7193 45.9603C26.6338 45.6889 26.5973 45.4044 26.6113 45.1203C26.6355 44.8287 26.7128 44.544 26.8393 44.2803C26.9657 44.0314 27.1366 43.8077 27.3433 43.6203C27.5295 43.4446 27.7447 43.3025 27.9793 43.2003C28.2396 43.1014 28.5172 43.0564 28.7953 43.0683L53.9953 44.1723Z" fill="white"/>
</g>
<path opacity="0.6" d="M67.5315 37.8588C67.8264 37.8683 68.1163 37.9377 68.3835 38.0628C68.8964 38.3039 69.2963 38.7338 69.4995 39.2628C69.6012 39.543 69.6421 39.8416 69.6195 40.1388C69.5827 40.7381 69.3111 41.2987 68.8635 41.6988C68.6468 41.8963 68.3931 42.0488 68.1171 42.1477C67.8411 42.2465 67.5483 42.2898 67.2555 42.2748L51.9315 41.4828C51.6504 41.4738 51.3753 41.3999 51.1275 41.2668C50.879 41.1509 50.6611 40.9783 50.4915 40.7628C50.3115 40.5571 50.1766 40.3159 50.0955 40.0548C49.9985 39.7778 49.9617 39.4832 49.9875 39.1908C50.0131 38.9034 50.0903 38.6229 50.2155 38.3628C50.4538 37.8506 50.8853 37.4537 51.4155 37.2588C51.6799 37.1599 51.9615 37.1151 52.2435 37.1268L67.5315 37.8588Z" fill="white"/>
</g>
<g clip-path="url(#clip2_226_34207)">
<path d="M79.7119 48.8887H83.3479L82.2319 59.4007H80.9119L79.7119 48.8887Z" fill="url(#paint6_linear_226_34207)"/>
<path d="M81.5242 50.4605C82.5316 50.4605 83.3482 49.6439 83.3482 48.6365C83.3482 47.6291 82.5316 46.8125 81.5242 46.8125C80.5168 46.8125 79.7002 47.6291 79.7002 48.6365C79.7002 49.6439 80.5168 50.4605 81.5242 50.4605Z" fill="url(#paint7_linear_226_34207)"/>
</g>
<g clip-path="url(#clip3_226_34207)">
<g opacity="0.6">
<path d="M64.7362 30.2406C65.5989 29.9051 66.5112 29.7145 67.4362 29.6766C68.3713 29.6407 69.3064 29.75 70.2082 30.0006C71.1378 30.2709 72.0231 30.6751 72.8362 31.2006C73.6831 31.7295 74.4473 32.3805 75.1042 33.1326C75.8496 33.9778 76.4388 34.949 76.8442 36.0006C77.2152 37.006 77.3903 38.0732 77.3602 39.1446C77.3319 40.1863 77.091 41.2113 76.6522 42.1566C76.1868 43.126 75.5103 43.9789 74.6722 44.6526C74.5494 44.7591 74.4213 44.8593 74.2882 44.9526C74.1609 45.0474 74.0287 45.1355 73.8922 45.2166L73.4842 45.4566L73.0522 45.6726C72.1891 46.0663 71.2624 46.302 70.3162 46.3686C69.3455 46.4495 68.3682 46.3683 67.4242 46.1286C66.4419 45.8795 65.506 45.4743 64.6522 44.9286C63.7453 44.3853 62.9344 43.6961 62.2522 42.8886C61.4793 41.9799 60.8849 40.9336 60.5002 39.8046C60.1572 38.7527 60.0227 37.644 60.1042 36.5406C60.1799 35.4859 60.4784 34.4593 60.9802 33.5286C61.5126 32.6089 62.2371 31.8149 63.1042 31.2006L63.5002 30.9366L63.8962 30.6966L64.3162 30.4926L64.7362 30.2406Z" fill="#E8E8E9"/>
</g>
<path d="M75.1996 35.1128C74.9583 34.687 74.677 34.2852 74.3596 33.9128C73.257 32.6526 71.8094 31.7432 70.1956 31.2968C69.4153 31.0774 68.6057 30.9802 67.7956 31.0088C67.0084 31.0386 66.2308 31.1925 65.4916 31.4648L65.1316 31.6088L64.7836 31.7888L64.4356 31.9808L64.0996 32.2328C63.8896 32.3842 63.6892 32.5485 63.4996 32.7248C63.3087 32.8896 63.1321 33.0702 62.9716 33.2648C62.8092 33.4567 62.657 33.6569 62.5156 33.8648C62.384 34.07 62.2638 34.2823 62.1556 34.5008L61.1836 36.5888C61.2933 36.3867 61.4135 36.1904 61.5436 36.0008C61.674 35.7989 61.8183 35.6064 61.9756 35.4248C62.132 35.2043 62.3045 34.9958 62.4916 34.8008C62.6793 34.6346 62.8756 34.4784 63.0796 34.3328C63.186 34.2524 63.2983 34.1802 63.4156 34.1168L63.7516 33.9248L64.0996 33.7808L64.4356 33.6008C65.1496 33.3292 65.904 33.1791 66.6676 33.1568C67.4446 33.1252 68.2219 33.2142 68.9716 33.4208C69.7372 33.6311 70.4687 33.9504 71.1436 34.3688C71.8481 34.8128 72.4796 35.3634 73.0156 36.0008C73.3181 36.3792 73.5909 36.7804 73.8316 37.2008C74.0589 37.5828 74.2517 37.9844 74.4076 38.4008C74.7137 39.2337 74.8563 40.1178 74.8276 41.0048C74.8069 41.311 74.7668 41.6156 74.7076 41.9168C74.6557 42.2145 74.5794 42.5075 74.4796 42.7928C74.2658 43.3481 73.9793 43.8727 73.6276 44.3528L75.0196 42.5168C75.2122 42.2778 75.3811 42.0206 75.5236 41.7488C75.6669 41.4819 75.7912 41.2052 75.8956 40.9208C75.9938 40.63 76.074 40.3334 76.1356 40.0328C76.1952 39.7239 76.2313 39.411 76.2436 39.0968C76.2579 38.6431 76.2298 38.1892 76.1596 37.7408C76.0846 37.291 75.9681 36.8491 75.8116 36.4208C75.6421 35.9694 75.4375 35.5321 75.1996 35.1128Z" fill="url(#paint8_linear_226_34207)"/>
<path d="M76.8558 44.2578L75.3918 46.0458L75.1158 46.3698L74.8038 46.6818L74.4918 46.9818L74.1438 47.2578L73.8078 47.5218L73.4478 47.7498C73.335 47.8331 73.2144 47.9055 73.0878 47.9658C72.9678 48.0409 72.8436 48.109 72.7158 48.1698L74.1078 46.4418L74.4918 46.2378L74.8638 46.0098L75.2238 45.7698L75.5718 45.5058C75.6959 45.4201 75.8124 45.3237 75.9198 45.2178L76.2558 44.9178L76.5558 44.5938C76.6621 44.4875 76.7622 44.3754 76.8558 44.2578Z" fill="url(#paint9_linear_226_34207)"/>
<path d="M74.108 46.4414L72.716 48.1694L71.96 48.5054L73.328 46.7774L74.108 46.4414Z" fill="#B6C4CE"/>
<path d="M76.1 32.6654C76.54 33.1448 76.9413 33.6585 77.3 34.2014C77.6183 34.7317 77.8874 35.2901 78.104 35.8694C78.2899 36.4399 78.4225 37.0264 78.5 37.6214C78.6004 38.2159 78.6406 38.8189 78.62 39.4214C78.5979 40.0127 78.5134 40.5999 78.368 41.1734C78.2366 41.7403 78.035 42.2885 77.768 42.8054C77.5089 43.3281 77.1909 43.8193 76.82 44.2694C76.4395 44.7132 76.0131 45.1154 75.548 45.4694L75.2 45.7334L74.84 45.9734L74.468 46.2014L74.084 46.4054L73.304 46.7414C72.3288 47.1109 71.2984 47.3137 70.256 47.3414C69.1788 47.3734 68.1028 47.244 67.064 46.9574C66.0169 46.6476 65.019 46.1911 64.1 45.6014C63.1144 45.0065 62.2244 44.2661 61.46 43.4054C60.5861 42.3829 59.9179 41.2013 59.492 39.9254C59.1109 38.766 58.9681 37.5415 59.072 36.3254C59.1734 35.1508 59.5297 34.0123 60.116 32.9894C60.7126 31.9572 61.5326 31.0716 62.516 30.3974C62.6624 30.293 62.8147 30.1968 62.972 30.1094L63.44 29.8094L63.92 29.5814L64.412 29.3894C65.39 29.0318 66.4191 28.8333 67.46 28.8014C68.5217 28.7781 69.5811 28.9116 70.604 29.1974C72.7382 29.7853 74.6507 30.992 76.1 32.6654ZM76.232 39.0374C76.2463 38.5838 76.2181 38.1298 76.148 37.6814C76.073 37.2316 75.9565 36.7897 75.8 36.3614C75.6301 35.9449 75.4254 35.5435 75.188 35.1614C74.9466 34.7357 74.6654 34.3339 74.348 33.9614C73.2454 32.7013 71.7978 31.7918 70.184 31.3454C69.4036 31.1261 68.594 31.0289 67.784 31.0574C66.9968 31.0873 66.2192 31.2412 65.48 31.5134L65.12 31.6574L64.772 31.8374L64.424 32.0294L64.1 32.2334C63.3859 32.7574 62.7925 33.4285 62.36 34.2014C61.928 34.9679 61.6699 35.8201 61.604 36.6974C61.5324 37.6109 61.6467 38.5294 61.94 39.3974C62.2519 40.3533 62.7494 41.2382 63.404 42.0014C63.9749 42.6779 64.6517 43.2574 65.408 43.7174C66.1515 44.1719 66.9611 44.5079 67.808 44.7134C68.5915 44.9129 69.4005 44.9938 70.208 44.9534C70.9984 44.9054 71.7743 44.7186 72.5 44.4014L72.86 44.2334L73.208 44.0534L73.544 43.8374C73.6589 43.7672 73.7673 43.6869 73.868 43.5974C74.2221 43.327 74.5442 43.017 74.828 42.6734C75.1114 42.3443 75.3532 41.9816 75.548 41.5934C75.7453 41.2108 75.9022 40.8086 76.016 40.3934C76.1227 39.9607 76.187 39.5186 76.208 39.0734" fill="#EAE9EE"/>
<path d="M58.8078 35.7738L59.7438 33.6738C59.4189 34.4153 59.2007 35.1991 59.0958 36.0018C58.9949 36.8364 59.0151 37.6811 59.1558 38.5098C59.2962 39.3823 59.5588 40.2306 59.9358 41.0298C60.3311 41.8961 60.8439 42.7037 61.4598 43.4298C62.226 44.282 63.116 45.0142 64.0998 45.6018C65.0419 46.1935 66.0644 46.6461 67.1358 46.9458C68.1747 47.2324 69.2506 47.3618 70.3278 47.3298C71.3703 47.3021 72.4006 47.0993 73.3758 46.7298L72.0078 48.4578C71.0591 48.8164 70.0575 49.0151 69.0438 49.0458C67.9996 49.0811 66.956 48.9597 65.9478 48.6858C64.908 48.4047 63.9168 47.9678 63.0078 47.3898C61.254 46.3379 59.8478 44.794 58.9638 42.9498C58.6027 42.1884 58.3483 41.3808 58.2078 40.5498C58.0974 39.7536 58.0974 38.946 58.2078 38.1498C58.2916 37.3329 58.4937 36.5326 58.8078 35.7738Z" fill="url(#paint10_linear_226_34207)"/>
<path d="M74.3719 46.3223L75.4999 48.3983L74.2279 48.9743L73.0879 46.8863L73.3279 46.7783L74.1079 46.4423L74.3719 46.3223Z" fill="white"/>
<path d="M75.4992 48.3984L74.0592 50.0784L72.8232 50.6424L74.2272 48.9744L75.4992 48.3984Z" fill="white"/>
<path d="M74.2274 48.9747L72.8234 50.6427L71.7314 48.6027L73.0874 46.8867L74.2274 48.9747Z" fill="#EAEAEA"/>
<path d="M81.1275 58.3828L79.4955 59.7748H79.4355L81.0675 58.3828H81.1275Z" fill="white"/>
<path d="M75.5835 48.3625C75.6393 48.3557 75.6958 48.3557 75.7515 48.3625H75.9196C75.9765 48.3856 76.0293 48.418 76.0755 48.4585C76.1208 48.4989 76.1575 48.5478 76.1835 48.6025L81.2115 57.8185C81.2167 57.8824 81.2167 57.9466 81.2115 58.0105C81.218 58.0663 81.218 58.1227 81.2115 58.1785C81.2001 58.2354 81.1754 58.2888 81.1396 58.3345C81.1012 58.3769 81.0567 58.4133 81.0075 58.4425L79.5675 59.1385C79.5122 59.1509 79.4549 59.1509 79.3995 59.1385H79.2316L79.0635 59.0425C79.017 58.9959 78.9767 58.9434 78.9436 58.8865L73.9156 49.5745C73.9035 49.5192 73.9035 49.4619 73.9156 49.4065C73.9031 49.3512 73.9031 49.2938 73.9156 49.2385C73.939 49.188 73.9672 49.1398 73.9995 49.0945C74.0359 49.0531 74.081 49.0203 74.1315 48.9985L75.5835 48.3625Z" fill="#EAEAEE"/>
<path d="M79.6158 59.1378C79.5605 59.1502 79.5031 59.1502 79.4478 59.1378H79.2798L79.1118 59.0418C79.0653 58.9951 79.025 58.9427 78.9918 58.8857L73.9638 49.5737C73.9585 49.5339 73.9585 49.4936 73.9638 49.4537C73.9579 49.4099 73.9579 49.3656 73.9638 49.3218C73.9582 49.2819 73.9582 49.2416 73.9638 49.2018C73.9792 49.1634 73.9994 49.1271 74.0238 49.0938C73.5678 49.6578 73.0998 50.2097 72.6318 50.7617C72.6048 50.7934 72.5844 50.8301 72.5718 50.8697C72.5662 50.9055 72.5662 50.942 72.5718 50.9777C72.5659 51.0215 72.5659 51.066 72.5718 51.1098C72.5671 51.1496 72.5671 51.1899 72.5718 51.2298L77.3718 60.2657C77.405 60.3227 77.4453 60.3751 77.4918 60.4218C77.5368 60.4612 77.5902 60.4899 77.6478 60.5058C77.7031 60.5182 77.7605 60.5182 77.8158 60.5058C77.8672 60.5168 77.9204 60.5168 77.9718 60.5058L79.3758 59.8218L81.0078 58.4298L79.6158 59.1378Z" fill="url(#paint11_linear_226_34207)"/>
<path d="M69.4395 40.334H69.5955H69.9195H70.0755L70.2315 40.406L70.3635 40.502C70.4088 40.5326 70.4458 40.5738 70.4715 40.622C70.5102 40.6607 70.5426 40.7053 70.5675 40.754L70.6395 40.91V41.066V41.222V41.378V41.522L70.5435 41.642C70.5135 41.6802 70.477 41.7127 70.4355 41.738L70.2915 41.822H70.1355H69.9795H69.7515H69.5955C69.5386 41.8105 69.4852 41.7858 69.4395 41.75L69.3075 41.654C69.2617 41.6203 69.2213 41.5798 69.1875 41.534C69.15 41.4899 69.1178 41.4416 69.0915 41.39C69.0665 41.3443 69.0463 41.296 69.0315 41.246C69.0272 41.1941 69.0272 41.1419 69.0315 41.09V40.922V40.766C69.0492 40.721 69.0693 40.6769 69.0915 40.634C69.1167 40.589 69.1491 40.5484 69.1875 40.514L69.2955 40.406L69.4395 40.334Z" fill="white"/>
<path d="M69.08 35.0168L69.308 35.1728L69.5 35.3648C69.5726 35.4253 69.6336 35.4985 69.68 35.5808C69.7389 35.6561 69.7911 35.7364 69.836 35.8208L69.932 36.0008C69.932 36.0008 69.932 36.1208 69.992 36.1688C69.9973 36.2247 69.9973 36.2809 69.992 36.3368V36.4928C69.992 36.4928 69.992 36.6008 69.992 36.6608V36.8168C69.992 36.8168 69.992 36.9248 69.992 36.9728V37.1288C69.992 37.1288 69.992 37.2368 69.992 37.2968L69.92 37.4528L69.836 37.6088L69.74 37.7768L69.644 37.9208C69.6116 37.9661 69.5835 38.0143 69.56 38.0648V38.1848V38.3048V38.4128C69.5544 38.4486 69.5544 38.485 69.56 38.5208C69.5532 38.5524 69.5532 38.5851 69.56 38.6168V38.7128C69.56 38.7128 69.56 38.7848 69.56 38.8088C69.5544 38.8446 69.5544 38.881 69.56 38.9168V39.0248V39.1208L69.656 39.3128L68.456 39.8408L68.264 39.6008L68.168 39.4448L68.096 39.2888C68.0728 39.2381 68.0528 39.186 68.036 39.1328V38.9888C68.0302 38.941 68.0302 38.8926 68.036 38.8448C68.036 38.8448 68.036 38.7488 68.036 38.7008C68.036 38.6528 68.036 38.6048 68.036 38.5568V38.4128C68.0309 38.3649 68.0309 38.3166 68.036 38.2688C68.0292 38.217 68.0292 38.1646 68.036 38.1128L68.108 37.9568L68.204 37.8008C68.2401 37.7557 68.2723 37.7075 68.3 37.6568L68.372 37.5128L68.444 37.3928V37.2728V37.1768C68.4496 37.141 68.4496 37.1046 68.444 37.0688C68.4492 37.037 68.4492 37.0046 68.444 36.9728V36.8408C68.444 36.8408 68.444 36.8408 68.444 36.7448C68.4482 36.7129 68.4482 36.6806 68.444 36.6488V36.5528V36.4448L68.372 36.3368V36.2408L68.288 36.1688L68.192 36.0968L68.084 36.0008H67.976H67.868H67.7H67.496H67.376H67.244H67.124L67.016 36.0608L66.92 36.1448L66.848 36.2288C66.8422 36.2605 66.8422 36.2931 66.848 36.3248C66.8458 36.3567 66.8458 36.3888 66.848 36.4208V36.5288C66.848 36.5288 66.848 36.6128 66.848 36.6488V36.7688C66.848 36.7688 66.848 36.8408 66.848 36.8888C66.8429 36.9246 66.8429 36.961 66.848 36.9968V37.1168L65.648 37.6328L65.54 37.3568C65.457 37.3096 65.3768 37.2575 65.3 37.2008V36.9248C65.288 36.8372 65.288 36.7484 65.3 36.6608C65.2891 36.5731 65.2891 36.4844 65.3 36.3968C65.3226 36.3111 65.3506 36.2269 65.384 36.1448C65.4167 36.0613 65.4569 35.981 65.504 35.9048C65.5477 35.8234 65.6 35.7469 65.66 35.6768C65.7177 35.6031 65.782 35.5348 65.852 35.4728L66.092 35.2688C66.1821 35.2032 66.2786 35.1469 66.38 35.1008C66.4832 35.0393 66.5916 34.9871 66.704 34.9448L67.064 34.8008H67.388H67.7H68H68.288H68.564L68.828 34.8968L69.08 35.0168Z" fill="white"/>
</g>
<g clip-path="url(#clip4_226_34207)">
<path d="M13.7119 21.2988H17.3719L16.2439 31.8828H14.9119L13.7119 21.2988Z" fill="url(#paint12_linear_226_34207)"/>
<path d="M15.5362 22.8829C16.5502 22.8829 17.3722 22.0609 17.3722 21.0469C17.3722 20.0329 16.5502 19.2109 15.5362 19.2109C14.5222 19.2109 13.7002 20.0329 13.7002 21.0469C13.7002 22.0609 14.5222 22.8829 15.5362 22.8829Z" fill="url(#paint13_linear_226_34207)"/>
</g>
<defs>
<linearGradient id="paint0_linear_226_34207" x1="42.585" y1="84.2763" x2="54.705" y2="84.2763" gradientUnits="userSpaceOnUse">
<stop offset="0.39" stop-color="#D4D6E1"/>
<stop offset="0.56" stop-color="#BDC2D3"/>
</linearGradient>
<linearGradient id="paint1_linear_226_34207" x1="7.37695" y1="81.4926" x2="89.8169" y2="81.4926" gradientUnits="userSpaceOnUse">
<stop offset="0.48" stop-color="#E8E8EE"/>
<stop offset="0.51" stop-color="#C9CDD9"/>
</linearGradient>
<linearGradient id="paint2_linear_226_34207" x1="57.0083" y1="50.256" x2="43.6043" y2="87.072" gradientUnits="userSpaceOnUse">
<stop offset="0.25" stop-color="#DFE0E8"/>
<stop offset="0.9" stop-color="#EEEEEE"/>
</linearGradient>
<linearGradient id="paint3_linear_226_34207" x1="70.48" y1="14.5255" x2="28.9096" y2="13.5812" gradientUnits="userSpaceOnUse">
<stop offset="0.02" stop-color="#E4E3E9"/>
<stop offset="1" stop-color="#F0F0F2"/>
</linearGradient>
<linearGradient id="paint4_linear_226_34207" x1="66.4842" y1="63.1216" x2="69.0557" y2="53.069" gradientUnits="userSpaceOnUse">
<stop offset="0.04" stop-color="#D0D2DA"/>
<stop offset="0.1" stop-color="#C3C5CB"/>
<stop offset="0.13" stop-color="#C3C5CB"/>
</linearGradient>
<linearGradient id="paint5_linear_226_34207" x1="46.8354" y1="62.2529" x2="49.0388" y2="20.4785" gradientUnits="userSpaceOnUse">
<stop offset="0.25" stop-color="#E6E6EC"/>
<stop offset="0.9" stop-color="#F0F0F0"/>
</linearGradient>
<linearGradient id="paint6_linear_226_34207" x1="81.5239" y1="49.4767" x2="81.4639" y2="56.8207" gradientUnits="userSpaceOnUse">
<stop stop-color="#E8E8EE" stop-opacity="0.6"/>
<stop offset="1" stop-color="#CDD0DE" stop-opacity="0"/>
</linearGradient>
<linearGradient id="paint7_linear_226_34207" x1="79.9426" y1="47.7223" x2="83.1123" y2="49.5523" gradientUnits="userSpaceOnUse">
<stop stop-color="#EBEBF1"/>
<stop offset="1" stop-color="#D2D5E0"/>
</linearGradient>
<linearGradient id="paint8_linear_226_34207" x1="62.0913" y1="39.9245" x2="75.79" y2="36.2" gradientUnits="userSpaceOnUse">
<stop offset="0.02" stop-color="#DBDBDD"/>
<stop offset="0.76" stop-color="#D2D4DC"/>
</linearGradient>
<linearGradient id="paint9_linear_226_34207" x1="72.3645" y1="46.882" x2="77.2048" y2="45.566" gradientUnits="userSpaceOnUse">
<stop offset="0.02" stop-color="#D4D5D8"/>
<stop offset="0.75" stop-color="#C4C8D2"/>
</linearGradient>
<linearGradient id="paint10_linear_226_34207" x1="58.8422" y1="43.0225" x2="71.3714" y2="39.616" gradientUnits="userSpaceOnUse">
<stop offset="0.02" stop-color="white"/>
<stop offset="0.75" stop-color="#BDC2CC"/>
</linearGradient>
<linearGradient id="paint11_linear_226_34207" x1="73.7017" y1="55.4596" x2="79.7926" y2="53.8036" gradientUnits="userSpaceOnUse">
<stop offset="0.02" stop-color="white"/>
<stop offset="0.75" stop-color="#B8BCC7"/>
</linearGradient>
<linearGradient id="paint12_linear_226_34207" x1="15.5359" y1="21.8868" x2="15.4759" y2="29.2788" gradientUnits="userSpaceOnUse">
<stop stop-color="#E8E8EE" stop-opacity="0.6"/>
<stop offset="1" stop-color="#CDD0DE" stop-opacity="0"/>
</linearGradient>
<linearGradient id="paint13_linear_226_34207" x1="13.9503" y1="20.1309" x2="17.1408" y2="21.9729" gradientUnits="userSpaceOnUse">
<stop stop-color="#EBEBF1"/>
<stop offset="1" stop-color="#D2D5E0"/>
</linearGradient>
<clipPath id="clip0_226_34207">
<rect width="91.38" height="38.088" fill="white" transform="translate(2.90039 54)"/>
</clipPath>
<clipPath id="clip1_226_34207">
<rect width="50.88" height="56.292" fill="white" transform="translate(23.2998 9.59961)"/>
</clipPath>
<clipPath id="clip2_226_34207">
<rect width="3.66" height="12.6" fill="white" transform="translate(79.7002 46.8008)"/>
</clipPath>
<clipPath id="clip3_226_34207">
<rect width="23.172" height="31.752" fill="white" transform="translate(58.0996 28.8008)"/>
</clipPath>
<clipPath id="clip4_226_34207">
<rect width="3.684" height="12.684" fill="white" transform="translate(13.7002 19.1992)"/>
</clipPath>
</defs>
</svg>
